<svg width="200" height="200" viewBox="0 0 200 200" fill="none" xmlns="http://www.w3.org/2000/svg">
<path fill-rule="evenodd" clip-rule="evenodd" d="M87.3394 85.4602C87.1994 85.7302 86.7894 88.4602 88.3994 88.4602C88.6807 88.4607 88.9527 88.36 89.1658 88.1763C89.3788 87.9927 89.5186 87.7384 89.5594 87.4602C89.8994 84.4002 87.8994 84.4102 87.3394 85.4602ZM101.839 85.4202C101.929 86.4802 102.049 87.4202 103.109 87.4202C103.391 87.4207 103.663 87.32 103.876 87.1363C104.089 86.9527 104.229 86.6984 104.269 86.4202C104.291 85.7767 104.22 85.1335 104.059 84.5102C103.479 83.4402 101.689 83.7002 101.839 85.4202ZM94.8394 95.0802C95.1494 95.0802 97.8394 94.9502 98.4694 94.4602C98.6594 94.3202 98.6394 94.0502 98.6394 93.8002C98.5795 90.9636 98.3053 88.1355 97.8194 85.3402C97.8194 85.1902 97.6894 85.1602 97.6094 85.1802C97.5294 85.2002 97.4894 85.3402 97.4994 85.5802C97.4994 86.4002 97.4294 86.6802 97.7194 91.2702C97.9094 94.2702 97.8294 93.4302 97.8894 93.9302C96.9517 94.2738 95.9888 94.5445 95.0094 94.7402C94.3594 94.8802 94.8194 95.0802 94.8394 95.0802ZM97.9994 102C97.2575 102.398 96.4393 102.633 95.5994 102.69C95.557 102.69 95.5163 102.707 95.4863 102.737C95.4563 102.767 95.4394 102.808 95.4394 102.85C95.4394 102.893 95.4563 102.933 95.4863 102.963C95.5163 102.993 95.557 103.01 95.5994 103.01C96.0692 103.179 96.5711 103.24 97.0677 103.188C97.5643 103.136 98.0428 102.973 98.4675 102.711C98.8923 102.448 99.2525 102.094 99.5211 101.673C99.7898 101.252 99.9601 100.776 100.019 100.28C100.025 100.26 100.026 100.239 100.023 100.218C100.02 100.197 100.013 100.177 100.002 100.159C99.9916 100.141 99.9775 100.125 99.9607 100.112C99.9439 100.1 99.9248 100.09 99.9044 100.085C99.8841 100.08 99.8629 100.079 99.8421 100.082C99.8212 100.085 99.8012 100.092 99.7831 100.102C99.765 100.113 99.7492 100.127 99.7365 100.144C99.7239 100.161 99.7147 100.18 99.7094 100.2C99.3045 100.938 98.7154 101.558 97.9994 102ZM53.1794 24.8802C55.7494 33.4702 64.8394 33.0502 65.8994 33.6902C65.8994 33.7902 67.9794 41.8002 68.8194 42.9002C69.2894 43.5102 70.4194 43.2702 71.1694 43.1302C72.9294 42.7802 74.9694 42.6702 76.4594 41.4802C76.8394 41.1702 76.6194 39.9102 76.5194 39.4802C76.2011 37.6821 75.7601 35.908 75.1994 34.1702C74.9789 33.6459 74.7919 33.1081 74.6394 32.5602C75.3295 31.9489 76.08 31.4094 76.8794 30.9502C78.1989 30.0513 79.3726 28.9552 80.3594 27.7002C82.2688 24.9029 83.132 21.5225 82.7973 18.1522C82.4627 14.782 80.9516 11.6373 78.5294 9.27017C71.1194 2.00017 57.7194 4.37017 53.3694 13.5402C51.8794 16.7202 52.1694 21.5402 53.1794 24.8802ZM75.9994 41.0002C74.6694 42.0702 72.7094 42.2102 70.9994 42.5602C70.5394 42.6602 69.4494 42.9302 69.1594 42.5602C68.5936 41.7434 68.1865 40.8275 67.9594 39.8602C70.5498 39.4951 73.0833 38.8029 75.4994 37.8002C75.8263 38.8356 75.9949 39.9144 75.9994 41.0002ZM75.3894 37.3902C72.8342 37.8664 70.3249 38.5623 67.8894 39.4702C67.6311 38.3096 67.2971 37.1671 66.8894 36.0502C69.473 35.7796 72.007 35.1537 74.4194 34.1902C74.8229 35.2473 75.1569 36.3296 75.4194 37.4302L75.3894 37.3902ZM53.9994 13.8502C58.1894 5.19017 70.9994 3.00017 77.9994 9.85017C80.2746 12.0818 81.6979 15.0386 82.0229 18.2089C82.348 21.3792 81.5544 24.5633 79.7794 27.2102C78.0494 29.6502 74.5494 31.3302 74.0094 32.2102C73.8194 32.5202 74.1694 33.3102 74.3894 33.8702C73.2494 34.0902 71.9994 34.3602 70.8794 34.6102C70.5794 33.2402 69.1794 27.7102 68.6594 26.4102C68.4594 25.8902 68.2794 25.9302 67.7494 26.0802C64.8294 26.0802 61.6194 25.3402 60.5894 22.5902C60.465 22.2678 60.3778 21.9323 60.3294 21.5902C60.1894 20.1502 61.3294 18.4702 62.5894 18.5902C62.4094 19.6902 62.5894 21.7902 63.5294 22.4202C64.4694 23.0502 65.5294 22.0502 65.5294 21.1502C65.4761 20.5012 65.2651 19.875 64.9148 19.326C64.5646 18.7771 64.0856 18.322 63.5194 18.0002C63.6766 17.6432 63.9096 17.3246 64.2021 17.0666C64.4947 16.8086 64.8399 16.6174 65.2138 16.5061C65.5876 16.3948 65.9812 16.3661 66.3673 16.4221C66.7533 16.478 67.1226 16.6173 67.4494 16.8302C66.6594 18.3702 67.4494 21.9002 68.8494 21.0702C70.2494 20.2402 69.7894 18.2002 68.9194 17.0702C68.4994 16.5202 68.4094 16.6702 68.6194 16.5102C70.2494 15.3202 72.0994 16.7002 72.8794 18.5102C73.9994 21.0002 71.5994 24.0702 70.0794 25.0002C70.0423 25.0227 70.0156 25.0591 70.0053 25.1013C69.995 25.1435 70.0019 25.188 70.0244 25.2252C70.047 25.2623 70.0833 25.289 70.1255 25.2993C70.1677 25.3096 70.2123 25.3027 70.2494 25.2802C72.1094 24.1902 74.4594 20.9802 73.3894 18.2802C72.3194 15.5802 69.6294 14.5402 67.9294 16.1502C67.5014 15.8565 67.0129 15.6625 66.4999 15.5827C65.987 15.5029 65.4627 15.5391 64.9656 15.6888C64.4685 15.8385 64.0113 16.0978 63.6278 16.4477C63.2443 16.7975 62.9441 17.2289 62.7494 17.7102C60.8894 17.4702 59.3194 19.6402 59.5294 21.6102C59.6424 22.4809 59.9715 23.3095 60.4868 24.0204C61.0021 24.7313 61.6871 25.3019 62.4794 25.6802C63.4194 26.1302 66.7594 26.9502 68.0794 26.5702C68.5394 27.5702 70.2094 33.4402 70.5094 34.6702C66.0694 35.6702 66.9694 36.1402 66.7494 35.4902C66.4894 34.6802 66.3294 33.4902 66.1094 33.4102C60.5894 32.1602 55.6094 31.2402 53.7494 24.6902C52.8394 21.5202 52.5994 16.8202 53.9994 13.8502ZM63.2794 18.7902C63.6583 19.059 63.975 19.4063 64.2079 19.8083C64.4409 20.2103 64.5846 20.6577 64.6294 21.1202C64.6294 21.3902 64.0194 22.1202 63.6294 21.3202C63.3308 20.5124 63.2247 19.6461 63.3194 18.7902H63.2794ZM67.9994 17.2602C68.7994 18.0402 69.2994 19.8602 68.4294 20.3902C68.1279 19.934 67.9326 19.4159 67.8582 18.8741C67.7838 18.3323 67.832 17.7808 67.9994 17.2602ZM37.9994 55.4302C42.0694 54.1602 46.9994 55.2602 48.8994 59.7602C52.1894 67.3802 43.4894 71.2602 43.5794 71.6602C43.7794 72.6602 44.1394 74.4102 44.2894 75.4202C44.3014 75.505 44.3465 75.5817 44.415 75.6333C44.4834 75.6848 44.5695 75.7071 44.6544 75.6952C44.7393 75.6832 44.8159 75.6381 44.8675 75.5696C44.9191 75.5012 44.9414 75.415 44.9294 75.3302C44.8094 74.3302 44.6794 72.8902 44.5394 71.8502C45.9533 71.283 47.2616 70.4818 48.4094 69.4802C55.4694 61.1502 47.5894 50.6402 37.5194 53.9302C35.9249 54.3951 34.5146 55.3448 33.4843 56.6476C32.4539 57.9503 31.8546 59.5414 31.7694 61.2002C31.4494 65.1402 34.5894 68.5402 39.6594 68.1002C39.7358 68.0867 39.8051 68.0468 39.855 67.9873C39.9048 67.9279 39.9322 67.8528 39.9322 67.7752C39.9322 67.6976 39.9048 67.6225 39.855 67.563C39.8051 67.5036 39.7358 67.4636 39.6594 67.4502C35.1594 67.6802 32.7494 64.4502 33.1794 61.3502C33.279 59.9883 33.7949 58.6899 34.657 57.631C35.5192 56.5721 36.686 55.8038 37.9994 55.4302ZM112.689 29.3402C112.774 29.3627 112.865 29.3506 112.941 29.3065C113.017 29.2625 113.072 29.19 113.094 29.1052C113.117 29.0203 113.105 28.93 113.061 28.854C113.017 28.778 112.944 28.7227 112.859 28.7002C108.529 27.4802 107.279 23.6502 108.679 20.8402C109.225 19.5852 110.143 18.5282 111.309 17.8127C112.475 17.0971 113.834 16.7576 115.199 16.8402C122.719 17.0302 126.019 23.9502 123.199 28.8902C121.329 32.2702 118.829 33.1802 115.629 33.6002C115.528 33.6144 115.435 33.6611 115.363 33.7333C115.29 33.8054 115.244 33.8991 115.229 34.0002C115.119 34.9202 114.879 36.7302 114.699 37.7802C114.682 37.8637 114.699 37.9507 114.746 38.0219C114.793 38.0932 114.866 38.1429 114.949 38.1602C115.033 38.1774 115.12 38.1608 115.191 38.1139C115.262 38.067 115.312 37.9937 115.329 37.9102C115.559 36.8302 115.869 35.5602 116.079 34.4902C117.599 34.4085 119.093 34.0704 120.499 33.4902C123.889 31.4902 125.949 28.3302 125.679 24.3302C125.049 14.9402 111.349 11.5802 107.409 20.3302C105.879 23.8902 107.739 28.2202 112.689 29.3402ZM168.249 76.2602C168.135 74.4065 167.474 72.6284 166.349 71.1502C165.268 69.9333 163.949 68.9506 162.473 68.2627C160.998 67.5748 159.397 67.1962 157.769 67.1502C156.113 67.0734 154.473 67.5133 153.078 68.4091C151.682 69.3048 150.6 70.6122 149.979 72.1502C148.409 75.7802 150.299 80.0102 155.229 81.2102C155.273 81.2299 155.321 81.2399 155.369 81.2392C155.417 81.2386 155.465 81.2274 155.508 81.2065C155.552 81.1855 155.59 81.1553 155.62 81.118C155.651 81.0807 155.673 81.0372 155.685 80.9905C155.697 80.9438 155.698 80.8951 155.689 80.8477C155.68 80.8004 155.661 80.7556 155.633 80.7165C155.605 80.6774 155.568 80.6449 155.526 80.6214C155.484 80.5978 155.437 80.5838 155.389 80.5802C151.089 79.2802 149.809 75.5802 151.219 72.7202C151.765 71.4652 152.683 70.4082 153.849 69.6927C155.015 68.9771 156.374 68.6376 157.739 68.7202C159.126 68.7587 160.491 69.0781 161.751 69.6591C163.011 70.24 164.14 71.0705 165.069 72.1002C166.006 73.3227 166.563 74.7937 166.669 76.3302C167.379 85.1502 157.879 85.1802 157.789 85.8802C157.669 86.8802 157.449 88.6402 157.259 89.6602C157.242 89.7437 157.259 89.8307 157.306 89.9019C157.353 89.9732 157.426 90.0229 157.509 90.0402C157.593 90.0574 157.68 90.0408 157.751 89.9939C157.822 89.947 157.872 89.8737 157.889 89.7902C158.129 88.7202 158.429 87.4402 158.639 86.3702C160.161 86.2847 161.658 85.9468 163.069 85.3702C166.409 83.4102 168.519 80.3002 168.249 76.2602ZM48.7394 83.0002C49.1694 81.2202 47.8794 79.3502 46.5994 79.5002C45.7693 79.4104 44.9333 79.387 44.0994 79.4302C41.9294 79.9502 40.9094 82.7902 42.9494 84.1802C45.2894 85.7402 48.3194 84.6602 48.7394 83.0002ZM47.1894 82.8002C46.8343 83.0965 46.3993 83.2809 45.9394 83.3302C43.2194 83.7102 42.6394 81.3302 44.4694 80.5502L46.6194 80.1502C47.5494 80.2302 47.7594 82.2202 47.1894 82.7502V82.8002ZM113.869 41.6002C111.539 40.7502 109.019 43.3802 110.669 45.6002C112.319 47.8202 115.589 47.8202 116.529 46.3402C117.469 44.8602 116.899 42.6202 115.639 42.3402C115.529 42.2902 114.659 41.8902 113.869 41.6002ZM115.129 45.6002C114.682 45.7524 114.203 45.7864 113.739 45.6988C113.274 45.6111 112.841 45.4049 112.479 45.1002C112.184 44.888 111.941 44.6109 111.769 44.2902C111.479 43.4802 112.519 42.6502 113.279 42.6002L115.439 42.9102C116.279 43.3602 115.859 45.3202 115.129 45.6302V45.6002ZM158.169 94.2802C157.969 94.1902 156.939 93.7602 156.409 93.5602C154.069 92.7102 151.559 95.3402 153.209 97.5602C154.859 99.7802 158.119 99.7802 159.069 98.3002C160.019 96.8202 159.439 94.5602 158.169 94.2802ZM157.659 97.5902C157.212 97.7414 156.733 97.7749 156.269 97.6873C155.805 97.5997 155.371 97.3941 155.009 97.0902C154.716 96.8711 154.474 96.5914 154.299 96.2702C154.019 95.4702 155.049 94.6402 155.809 94.5902L157.969 94.9002C158.809 95.3202 158.389 97.2702 157.659 97.5902Z" fill="black"/>
<path fill-rule="evenodd" clip-rule="evenodd" d="M149.999 149.44C147.999 139.6 140.219 124.44 130.879 120.57L128.999 116.64C128.986 116.612 128.966 116.586 128.942 116.566C128.918 116.546 128.89 116.531 128.86 116.522C128.829 116.514 128.797 116.512 128.766 116.517C128.735 116.521 128.705 116.533 128.679 116.55L126.679 117.84C126.044 113.596 124.104 109.654 121.129 106.56C123.209 103.35 126.539 102.37 129.979 102.22C132.829 102.1 134.929 101.93 136.579 99.4902C139.849 94.6702 139.079 89.9702 135.239 85.4902C129.389 78.6702 127.089 80.7102 124.239 76.9402C118.819 69.8602 117.589 59.3902 109.609 53.9402C99.4091 47.0302 93.9091 52.6002 91.7691 54.3202C88.6391 52.4202 81.6591 53.0802 78.6591 55.6502C76.1091 57.8302 72.7291 60.6502 71.4191 63.8002C68.6291 70.4502 68.9291 78.3202 64.8491 84.3502C63.8491 85.8502 62.1391 86.8602 60.9291 88.2802C59.2683 90.3626 57.8554 92.6312 56.7191 95.0402C55.2391 97.8402 54.1091 100.95 55.4591 103.85C57.2691 107.73 61.3191 111.43 65.6391 111.15C68.1391 110.98 71.4491 109.48 73.7991 110.47C75.1991 111.05 75.7391 112.4 76.7991 113.53C79.1991 116.2 84.7991 117.01 87.8991 115.16C84.4891 119.5 79.2891 119.35 70.2191 124.35C56.2991 132.01 51.2191 140.71 49.7291 149.62C49.1591 152.392 48.7385 155.193 48.4691 158.01C47.6091 172.54 52.0191 190.96 66.3191 194.01C70.2391 194.85 74.7291 195.39 78.6091 194.42C85.9591 192.59 94.7291 187.64 101.169 183.62C104.169 181.75 115.269 174.26 120.429 173.28C120.74 175.949 121.413 178.563 122.429 181.05C126.559 189.54 133.169 194.56 142.429 192.38C148.429 190.97 150.139 184.58 150.299 178.46C153.309 172 150.919 154.14 149.999 149.44ZM115.399 102.62C117.179 102.95 118.399 104.62 119.719 105.98C123.209 109.47 125.609 113.21 126.329 117.98C123.439 119.82 121.559 120.98 121.519 121.04C121.479 121.1 120.089 117.56 119.249 117.13C117.992 116.506 116.852 115.671 115.879 114.66C115.129 113.83 114.209 112.37 114.329 111.27C114.861 110.987 115.441 110.808 116.039 110.74V110.12C112.949 110.21 111.889 113.03 111.609 113.66C111.409 114.11 111.129 114.56 110.489 114.49C109.849 114.42 109.619 113.68 109.859 113.02C110.099 112.36 110.679 109.46 114.769 108.83C114.82 108.823 114.87 108.806 114.914 108.78C114.959 108.753 114.998 108.718 115.029 108.677C115.06 108.636 115.083 108.589 115.095 108.539C115.108 108.489 115.111 108.436 115.104 108.385C115.097 108.334 115.08 108.285 115.053 108.24C115.027 108.196 114.992 108.157 114.951 108.126C114.91 108.094 114.863 108.072 114.813 108.059C114.762 108.046 114.71 108.043 114.659 108.05C113.803 108.159 112.973 108.42 112.209 108.82C111.522 109.156 110.912 109.63 110.418 110.214C109.924 110.797 109.557 111.477 109.339 112.21C108.859 113.58 107.179 112.97 107.579 111.79C107.982 110.642 108.58 109.573 109.349 108.63C110.203 107.817 111.228 107.205 112.349 106.84C113.229 106.48 113.979 106.65 114.179 106.36C114.379 106.07 113.909 105.1 113.669 104.81C112.379 103.27 108.669 104.6 107.249 102.88C106.339 101.75 108.249 101.71 109.019 101.61C111.179 101.37 113.229 102.21 115.399 102.62ZM119.069 127.4C116.21 128.332 113.294 129.077 110.339 129.63C111.339 123.94 112.019 119.06 111.919 117.29C114.249 117.74 116.919 118.06 119.839 118.54C120.629 119.85 121.059 120.95 121.249 121.26L119.309 122.49C119.209 122.62 119.229 122.08 119.069 127.4ZM108.209 156.29C108.652 158.21 108.966 160.158 109.149 162.12C105.049 161.86 101.919 161.91 100.379 161.85C100.439 159.04 100.469 158.17 100.519 157.58C103.043 156.941 105.615 156.509 108.209 156.29ZM92.4791 131.66C98.1521 131.701 103.818 131.239 109.409 130.28C107.629 139.88 104.919 151.42 103.639 153.73C100.699 145.71 100.999 145.68 92.4791 131.66ZM104.479 153.6C106.099 149.97 108.559 139.14 110.199 130.12C113.184 129.561 116.127 128.799 119.009 127.84C118.699 138.64 118.609 152.12 119.259 162.95C117.359 162.78 114.599 162.54 111.919 162.33C111.749 160.71 111.079 155.07 110.509 153.59C110.359 153.19 110.179 153.03 109.509 153.01C107.837 153.083 106.172 153.281 104.529 153.6H104.479ZM108.049 115.45C107.036 114.858 106.227 113.972 105.729 112.91C106.192 113.106 106.675 113.25 107.169 113.34C107.357 113.551 107.598 113.707 107.868 113.79C108.138 113.873 108.425 113.88 108.699 113.81C109.149 113.67 108.859 113.61 109.099 114.24C109.191 114.494 109.347 114.72 109.55 114.897C109.754 115.075 110 115.197 110.264 115.253C110.528 115.309 110.802 115.297 111.06 115.218C111.318 115.138 111.552 114.995 111.739 114.8C112.129 114.45 112.159 114.03 112.629 113.13C113.089 113.04 113.539 112.92 113.979 112.79C115.169 115.91 118.899 117.42 119.159 117.65C114.769 117 110.879 116.59 108.099 115.45H108.049ZM88.8791 114.25C91.2791 111.47 90.7891 109.48 88.3191 107.51C83.3191 103.59 83.9391 104.64 81.8391 100.26C79.3691 93.1502 81.4991 81.9502 83.3291 74.6602C83.8291 72.6602 87.2391 70.5202 89.7191 70.8402C93.1591 71.2802 91.7191 73.0902 94.6591 74.1202C95.1695 74.2695 95.6974 74.3502 96.2291 74.3602C96.2606 74.3701 96.2937 74.3736 96.3266 74.3707C96.3595 74.3677 96.3915 74.3583 96.4207 74.343C96.45 74.3277 96.476 74.3067 96.4971 74.2814C96.5183 74.256 96.5342 74.2268 96.5441 74.1952C96.5539 74.1637 96.5575 74.1306 96.5545 74.0977C96.5516 74.0648 96.5421 74.0328 96.5268 74.0036C96.5115 73.9743 96.4906 73.9484 96.4652 73.9272C96.4399 73.9061 96.4106 73.8901 96.3791 73.8802C94.8194 72.9448 93.3818 71.8195 92.0991 70.5302C92.7091 68.0402 94.2591 66.6802 97.1691 66.6602C99.1691 66.6602 100.749 68.1802 102.169 69.4802C103.889 71.0502 105.739 75.2902 105.599 77.6202C105.283 80.3201 105.916 83.0459 107.389 85.3302C108.389 87.0702 110.269 88.5802 111.389 90.0502C112.009 90.8702 111.649 94.5302 111.289 96.1402C110.819 97.5502 109.819 100.24 109.589 100.85C105.409 101 105.589 103.24 107.589 104.2C105.719 106.44 101.149 108.93 104.419 112.07C105.119 113.54 106.239 115.55 107.739 116.16C108.804 116.592 109.905 116.926 111.029 117.16C111.249 118.71 110.529 123.84 109.429 129.81C103.69 130.765 97.8766 131.203 92.0591 131.12C88.4491 125.21 84.8591 119.61 83.9491 118.71C85.9695 117.683 87.6863 116.146 88.9291 114.25H88.8791ZM82.0591 119.52C84.0591 118.77 83.0591 118.9 83.5391 119.27C84.0191 119.64 87.3191 124.87 91.1491 131.08C86.6091 131.01 81.4991 130.67 79.5691 130.45C80.1491 129.99 78.6491 122.09 78.0691 121.09C79.5191 120.51 80.8591 120 82.1091 119.52H82.0591ZM77.3291 121.4C78.1513 124.345 78.7102 127.357 78.9991 130.4C74.6841 129.782 70.4514 128.685 66.3791 127.13C69.8687 124.898 73.5499 122.981 77.3791 121.4H77.3291ZM78.2391 193.7C74.4891 194.64 70.0991 194.09 66.3191 193.28C60.4091 192.01 56.3191 188.06 53.6591 183C49.4291 175 48.1691 163.11 49.4591 154.78C49.7191 153.11 50.0491 151.46 50.3291 149.78C51.9191 140.25 57.7091 133.07 65.7891 127.64C73.7191 130.55 79.0491 131.57 91.5091 131.64C100.139 145.64 100.329 147.04 102.799 153.89C102.039 154.03 98.5191 154.74 97.9191 155.23C97.6791 155.42 97.6791 155.8 97.9191 161.81C88.8191 161.99 79.9191 163.41 71.5491 168.81C70.5491 161.6 71.6991 159.42 74.0291 155.29C77.6891 148.8 77.0291 147.6 74.7191 143.91C74.3383 143.412 74.0658 142.84 73.9191 142.23C73.9191 141.99 72.9191 141.66 74.3291 144.14C76.3291 147.78 76.8691 148.64 73.3291 154.89C70.7391 159.47 69.6791 161.82 71.2391 169.02C70.5391 169.49 69.7391 170.02 68.9691 170.64C67.7927 171.469 66.6887 172.395 65.6691 173.41C65.6492 173.449 65.6454 173.493 65.6585 173.535C65.6716 173.576 65.7006 173.61 65.7391 173.63C65.7775 173.65 65.8223 173.654 65.8636 173.641C65.9048 173.628 65.9392 173.599 65.9591 173.56C66.2691 173.01 71.4391 169.56 72.8291 168.85C80.5891 164.94 89.1691 161.56 103.219 162.49C103.042 168.435 103.657 174.378 105.049 180.16C97.8291 184.72 87.5691 191.38 78.2891 193.7H78.2391ZM105.669 179.76C104.384 174.121 103.817 168.342 103.979 162.56C119.159 163.56 114.399 163.24 119.299 163.56C119.479 166.48 119.749 169.65 120.149 172.56C116.229 173.29 109.179 177.59 105.719 179.76H105.669ZM142.009 191.66C133.179 193.75 126.909 188.93 122.929 180.77C118.529 171.77 119.259 132.68 119.509 122.72L128.649 117.06C140.989 143.71 142.469 146.23 145.239 155.06C148.819 166.31 153.539 189 142.059 191.66H142.009ZM150.069 176.36C149.837 171.006 149.012 165.693 147.609 160.52C144.439 148.19 141.009 142.01 131.519 122.06L131.799 121.91C140.179 126.39 147.279 140.3 149.139 149.59C150.159 154.44 152.109 170.3 150.119 176.36H150.069Z" fill="black"/>
</svg>
