<?xml version="1.0" encoding="UTF-8"?>
<svg version="1.1" xmlns="http://www.w3.org/2000/svg" width="1211" height="206">
<path d="M0 0 C3.16676796 2.6389733 4.41243378 4.48973085 4.92578125 8.58984375 C4.96643763 17.38517442 4.96643763 17.38517442 1.625 21.1875 C-1.33740248 23.3352418 -2.68946856 24.1875 -6.375 24.1875 C-6.41258423 25.08505005 -6.41258423 25.08505005 -6.45092773 26.00073242 C-7.80842776 58.05435552 -7.80842776 58.05435552 -9.375 61.1875 C-7.14649723 61.52524332 -4.91716533 61.8575187 -2.6875 62.1875 C-1.44613281 62.373125 -0.20476562 62.55875 1.07421875 62.75 C5.34725961 63.29056593 5.34725961 63.29056593 9.625 63.1875 C12.29166667 60.85416667 12.29166667 60.85416667 14.625 58.1875 C18.69555656 55.47379563 21.85263304 55.6808446 26.625 56.1875 C31.26235119 57.67495227 33.74742696 59.75843252 36.0078125 64.1484375 C37.43609271 68.86718605 36.14231638 73.63555086 34.625 78.1875 C36.32212207 79.49609649 36.32212207 79.49609649 38.625 80.1875 C39.73875 79.49140625 39.73875 79.49140625 40.875 78.78125 C44.068067 76.93072254 46.27706257 76.70112294 49.9375 76.5 C51.00613281 76.43425781 52.07476562 76.36851563 53.17578125 76.30078125 C53.98402344 76.26339844 54.79226562 76.22601563 55.625 76.1875 C56.23675404 74.11233433 56.81354831 72.02683663 57.375 69.9375 C57.69984375 68.77734375 58.0246875 67.6171875 58.359375 66.421875 C58.44703125 65.35453125 58.5346875 64.2871875 58.625 63.1875 C56.7799523 61.03516049 56.7799523 61.03516049 54.625 59.1875 C53.76629592 55.7582597 53.90001879 52.63952593 54.625 49.1875 C56.34515943 46.35614269 57.53520411 45.8427478 60.625 44.1875 C64.85408777 43.27243422 67.85460075 43.6957558 71.5625 46.0625 C74.41352207 48.99991668 74.59315355 49.79897334 74.9375 54 C74.88098836 57.10814005 74.58016489 58.27179001 73.0625 61.125 C69.95896421 63.75106875 67.6240906 63.95678323 63.625 64.1875 C63.50382813 64.76757812 63.38265625 65.34765625 63.2578125 65.9453125 C62.28764526 70.46778442 61.19102217 74.82500966 59.625 79.1875 C60.181875 79.414375 60.73875 79.64125 61.3125 79.875 C65.03704357 81.98893013 67.7346212 84.70353533 69.9375 88.375 C71.56249432 95.02270402 71.45113299 101.32716464 68.03515625 107.36328125 C64.81589144 111.52781495 60.5950794 114.53080687 55.625 116.1875 C48.75195495 116.93218161 43.36865708 116.15367429 37.625 112.1875 C35.90234375 110.67578125 35.90234375 110.67578125 34.625 109.1875 C34.625 108.5275 34.625 107.8675 34.625 107.1875 C24.065 111.8075 13.505 116.4275 2.625 121.1875 C2.955 122.8375 3.285 124.4875 3.625 126.1875 C11.20386718 127.76235944 18.78460189 129.32797374 26.36669922 130.88720703 C28.94526274 131.41861224 31.52339303 131.95212421 34.10107422 132.48779297 C37.80844752 133.25784083 41.51731808 134.02027311 45.2265625 134.78125 C46.37677887 135.02186157 47.52699524 135.26247314 48.71206665 135.51037598 C49.79273407 135.73060425 50.87340149 135.95083252 51.98681641 136.17773438 C52.93279694 136.37314819 53.87877747 136.56856201 54.85342407 136.76989746 C57.86116077 137.22308313 60.58908072 137.41623749 63.625 137.1875 C66.22914714 134.83337234 66.22914714 134.83337234 68.625 132.1875 C72.32291873 129.98873751 75.39444624 129.95661193 79.6328125 130.65234375 C84.19937018 131.8790465 86.9153953 134.12309294 89.5 138 C91.22673809 142.89242458 91.22673809 146.48257542 89.5 151.375 C86.69701598 155.57947603 83.57174526 157.53858491 78.8125 159.125 C73.14857233 159.23605741 68.32494207 157.80026555 64.1875 153.875 C62.54118083 151.04333102 61.61657939 148.29959981 60.625 145.1875 C52.88506844 143.61416137 45.14363971 142.04836005 37.40112305 140.48779297 C34.7671923 139.95654253 32.13376348 139.42289831 29.50073242 138.88720703 C25.71623361 138.11817975 21.93052815 137.35536312 18.14453125 136.59375 C16.96727982 136.35313843 15.79002838 136.11252686 14.57710266 135.86462402 C13.47633896 135.64439575 12.37557526 135.42416748 11.24145508 135.19726562 C10.27548904 135.00185181 9.30952301 134.80643799 8.31428528 134.60510254 C5.66676475 134.19398539 3.29584611 133.94827449 0.625 134.1875 C0.191875 134.909375 -0.24125 135.63125 -0.6875 136.375 C-3.02019181 140.26281969 -6.26569183 142.33397328 -10.375 144.1875 C-11.695 144.1875 -13.015 144.1875 -14.375 144.1875 C-13.88 158.5425 -13.88 158.5425 -13.375 173.1875 C-11.725 173.5175 -10.075 173.8475 -8.375 174.1875 C-4.52595073 176.69385766 -2.5203109 178.71037556 -1.375 183.1875 C-0.90774484 187.47067228 -1.06750442 189.61643678 -3.125 193.4375 C-6.46839127 197.52386711 -8.51770953 199.22989096 -13.75 200.0625 C-18.10327634 200.40561538 -20.72279651 199.73554895 -24.375 197.1875 C-28.27241887 192.86873854 -29.74201401 190.19215277 -29.65625 184.28515625 C-29.19188678 180.82178056 -27.61672526 178.79274827 -25.375 176.1875 C-22.38606771 174.00047638 -21.09555546 173.1875 -17.375 173.1875 C-17.705 172.5275 -18.035 171.8675 -18.375 171.1875 C-18.52878852 169.22975931 -18.62471463 167.26732648 -18.69140625 165.3046875 C-18.73330078 164.13808594 -18.77519531 162.97148437 -18.81835938 161.76953125 C-18.85767578 160.54621094 -18.89699219 159.32289063 -18.9375 158.0625 C-18.98068359 156.83144531 -19.02386719 155.60039062 -19.06835938 154.33203125 C-19.17468704 151.28397147 -19.27671781 148.2358281 -19.375 145.1875 C-19.91987061 144.99849121 -20.46474121 144.80948242 -21.02612305 144.61474609 C-21.74324463 144.35773926 -22.46036621 144.10073242 -23.19921875 143.8359375 C-23.90908936 143.58505371 -24.61895996 143.33416992 -25.3503418 143.07568359 C-30.07322834 141.00383249 -33.24776212 136.76106145 -35.375 132.1875 C-36.73171419 126.3730106 -36.27973752 122.78406529 -34.06640625 117.265625 C-33.16453824 114.91994644 -33.16453824 114.91994644 -33.375 111.1875 C-35.77268694 109.98865653 -37.03565268 110.21009521 -39.6875 110.375 C-43.25243487 110.42666572 -44.22165389 110.28334132 -47.375 108.3125 C-50.45584718 105.03909987 -50.70887487 102.72623525 -50.66796875 98.2265625 C-50.21245033 95.05615433 -48.62184343 93.3682598 -46.375 91.1875 C-42.91760443 89.45880221 -39.15524432 89.69783105 -35.375 90.1875 C-32.50470131 91.98143668 -30.88368362 93.17013276 -29.375 96.1875 C-29.2328012 100.02686768 -29.19745324 103.50766639 -30.375 107.1875 C-28.89 108.1775 -28.89 108.1775 -27.375 109.1875 C-25.27412635 108.77791369 -25.27412635 108.77791369 -23.1875 107.8125 C-22.47207031 107.51601562 -21.75664063 107.21953125 -21.01953125 106.9140625 C-20.47683594 106.67429687 -19.93414062 106.43453125 -19.375 106.1875 C-19.31965088 105.04684082 -19.26430176 103.90618164 -19.20727539 102.73095703 C-19.00116945 98.50774445 -18.78920084 94.28484317 -18.57543945 90.06201172 C-18.48366347 88.23266453 -18.39348768 86.40323635 -18.30493164 84.57373047 C-18.17752789 81.94736264 -18.04441321 79.32133779 -17.91015625 76.6953125 C-17.85227684 75.46399094 -17.85227684 75.46399094 -17.79322815 74.20779419 C-17.48887171 68.41524341 -17.48887171 68.41524341 -16.375 66.1875 C-16.97143311 66.13634033 -17.56786621 66.08518066 -18.18237305 66.0324707 C-22.74768482 65.61220871 -27.2517668 65.07870269 -31.76953125 64.29296875 C-32.66220703 64.14279297 -33.55488281 63.99261719 -34.47460938 63.83789062 C-36.30548777 63.52549453 -38.13367663 63.19696676 -39.95898438 62.85351562 C-45.31973287 61.83816053 -45.31973287 61.83816053 -50.07421875 64.05078125 C-51.21310547 65.10845703 -51.21310547 65.10845703 -52.375 66.1875 C-53.49777344 66.23390625 -54.62054688 66.2803125 -55.77734375 66.328125 C-59.98218495 67.33253875 -60.39846699 68.03590683 -62.75390625 71.484375 C-63.83974271 73.28747339 -64.90025642 75.10601689 -65.9375 76.9375 C-66.7737793 78.29875 -66.7737793 78.29875 -67.62695312 79.6875 C-69.79348676 83.30583195 -69.79348676 83.30583195 -71.375 87.1875 C-70.49584707 90.20125323 -69.13757938 92.64475453 -67.6875 95.4375 C-66.06378733 100.07667905 -66.07992522 103.47034019 -67.375 108.1875 C-69.375 111.625 -69.375 111.625 -71.375 114.1875 C-71.705 114.8475 -72.035 115.5075 -72.375 116.1875 C-71.21265064 118.51708977 -71.21265064 118.51708977 -69.48046875 121.08984375 C-68.54170898 122.54874023 -68.54170898 122.54874023 -67.58398438 124.03710938 C-66.58334961 125.56561523 -66.58334961 125.56561523 -65.5625 127.125 C-64.90701172 128.14013672 -64.25152344 129.15527344 -63.57617188 130.20117188 C-61.19833263 133.87866942 -58.80419135 137.54371298 -56.375 141.1875 C-54.4106526 141.38393474 -52.44615006 141.57911448 -50.48046875 141.76171875 C-46.67036895 142.53222131 -44.98133553 144.32688784 -42.375 147.1875 C-41.01790812 150.93945992 -41.17219776 152.61289366 -42.5 156.375 C-44.60049043 159.52573564 -45.8810464 160.75815535 -49.375 162.1875 C-53.54574177 162.70884272 -55.5937526 162.67360949 -59.1875 160.4375 C-62.58887283 156.93894509 -62.58887283 156.93894509 -63.375 154.1875 C-63.09737229 151.07806963 -62.77320573 148.23684433 -61.66162109 145.30761719 C-60.99427678 140.37131564 -65.49056699 135.44967487 -68 131.4375 C-68.61101562 130.35855469 -69.22203125 129.27960938 -69.8515625 128.16796875 C-71.82957461 125.01351798 -73.51896133 122.5849129 -76.375 120.1875 C-80.86822294 119.29539577 -84.85746387 119.69724968 -89.375 120.1875 C-90.365 119.6925 -90.365 119.6925 -91.375 119.1875 C-91.6225 119.703125 -91.87 120.21875 -92.125 120.75 C-93.77081616 123.95934151 -95.5726096 127.06335664 -97.375 130.1875 C-96.715 131.1775 -96.055 132.1675 -95.375 133.1875 C-93.96952065 137.83639324 -94.5336353 140.9941113 -96.3515625 145.35546875 C-98.47148842 149.15029798 -101.35959678 150.84903226 -105.375 152.1875 C-111.81081151 152.72381763 -115.12033474 151.99970813 -120.375 148.1875 C-123.58916763 144.55860107 -123.8942447 141.08945546 -123.73046875 136.40234375 C-123.04005693 132.10054704 -120.56109926 129.46145847 -117.6875 126.375 C-114.12173703 124.54393253 -110.35898019 124.21684792 -106.375 124.1875 C-104.89 124.6825 -104.89 124.6825 -103.375 125.1875 C-103.106875 124.61 -102.83875 124.0325 -102.5625 123.4375 C-101.35780141 121.1549132 -99.96701885 119.2137058 -98.375 117.1875 C-98.643125 116.65125 -98.91125 116.115 -99.1875 115.5625 C-99.7753125 114.386875 -99.7753125 114.386875 -100.375 113.1875 C-100.91125 112.32125 -101.4475 111.455 -102 110.5625 C-103.82367694 106.08620206 -103.98258409 101.96926571 -103.375 97.1875 C-102.35546875 94.8828125 -102.35546875 94.8828125 -101.375 93.1875 C-104.02728812 92.11224806 -106.65868454 91.09293849 -109.375 90.1875 C-109.973125 90.496875 -110.57125 90.80625 -111.1875 91.125 C-114.16826841 92.5728018 -116.08749846 92.58200018 -119.375 92.1875 C-122.75 91 -122.75 91 -125.375 88.1875 C-126.11918205 83.77878514 -126.25661203 79.5783859 -125.375 75.1875 C-122.10562852 71.88319934 -118.97103087 71.34598382 -114.375 71.1875 C-110.41868313 72.48091128 -108.81472931 73.52790603 -106.5 77 C-105.375 80.1875 -105.375 80.1875 -105.5 83.375 C-105.45875 84.303125 -105.4175 85.23125 -105.375 86.1875 C-103.23201707 88.34004366 -103.23201707 88.34004366 -100.375 89.1875 C-98.37636244 88.60805068 -98.37636244 88.60805068 -96.375 87.1875 C-91.72374126 84.71948516 -89.32315373 84.11692448 -84.0859375 84.73828125 C-80.4884118 84.78134748 -78.96550025 84.70623083 -76.23168945 82.3046875 C-74.28124915 79.62460651 -72.65608448 76.90594817 -71.0625 74 C-70.47533203 73.04029297 -69.88816406 72.08058594 -69.28320312 71.09179688 C-67.02052897 67.27768011 -67.02052897 67.27768011 -65.375 63.1875 C-66.18842472 60.54270188 -66.18842472 60.54270188 -67.375 58.1875 C-67.03349104 55.31882471 -66.28977075 52.93181224 -65.375 50.1875 C-65.88289063 49.69121094 -66.39078125 49.19492187 -66.9140625 48.68359375 C-67.60242188 48.00425781 -68.29078125 47.32492188 -69 46.625 C-69.7321875 45.903125 -70.464375 45.18125 -71.21875 44.4375 C-73.15387753 42.41823649 -74.8134265 40.34984164 -76.5 38.125 C-77.85939281 36.39101513 -77.85939281 36.39101513 -79.375 35.1875 C-82.35885705 35.36518475 -82.35885705 35.36518475 -85.375 36.1875 C-88.89558961 35.0537508 -91.51836154 33.93360447 -94.3125 31.5 C-95.89087845 28.06470572 -96.172723 24.84252177 -95.375 21.1875 C-93.19925584 18.49644802 -91.46434144 16.73217072 -88.375 15.1875 C-83.40432218 14.8123545 -80.32348498 15.02871201 -76.375 18.1875 C-74.03863348 21.41391091 -74.13128977 24.28813626 -74.375 28.1875 C-74.60703125 28.84105469 -74.8390625 29.49460938 -75.078125 30.16796875 C-75.62580129 32.25472535 -75.62580129 32.25472535 -74.15234375 33.86328125 C-73.24162109 34.67345703 -73.24162109 34.67345703 -72.3125 35.5 C-69.67993501 37.89890537 -67.57557368 40.23673691 -65.5 43.125 C-63.71923832 45.27814616 -62.96794855 46.09797846 -60.17578125 46.51953125 C-58.6128662 46.46528131 -57.05074988 46.37466203 -55.4921875 46.24609375 C-52.40361977 46.16061678 -50.72166002 47.26750544 -48.375 49.1875 C-46.375 52.1875 -46.375 52.1875 -46.375 55.1875 C-45.78219238 55.23575928 -45.18938477 55.28401855 -44.57861328 55.33374023 C-38.04226256 55.9196833 -31.68345056 56.97144206 -25.25 58.25 C-24.29351562 58.43626953 -23.33703125 58.62253906 -22.3515625 58.81445312 C-20.02521669 59.26809056 -17.69976064 59.72582038 -15.375 60.1875 C-15.38515137 59.54353271 -15.39530273 58.89956543 -15.40576172 58.23608398 C-15.45095886 53.06008836 -15.32949473 47.94809501 -14.9453125 42.78515625 C-14.873125 41.71072266 -14.8009375 40.63628906 -14.7265625 39.52929688 C-14.57352215 37.31416971 -14.39847262 35.10046956 -14.203125 32.88867188 C-14.02114161 29.8804864 -13.90246716 27.16486727 -14.375 24.1875 C-17.11136094 21.59865916 -17.11136094 21.59865916 -20.375 20.1875 C-22.93394308 16.06729701 -23.50999519 12.19996393 -22.875 7.4375 C-20.80065964 2.94309588 -18.30431345 0.33465935 -14.0625 -2.1875 C-8.71171766 -3.43186799 -4.70925692 -2.52904538 0 0 Z M-16.375 8.1875 C-16.44182582 12.06339756 -16.21069448 14.19704729 -13.6875 17.1875 C-10.47529355 18.57656225 -8.6813364 18.24271374 -5.375 17.1875 C-3.27735835 15.66855194 -3.27735835 15.66855194 -2.375 13.1875 C-2.49711223 9.70730141 -2.71906754 7.20419531 -4.625 4.25 C-9.77555464 1.12287754 -13.16932322 3.75612327 -16.375 8.1875 Z M-88.375 22.1875 C-88.6250773 24.64559998 -88.6250773 24.64559998 -88.375 27.1875 C-87.715 27.8475 -87.055 28.5075 -86.375 29.1875 C-83.59262345 28.78221099 -83.59262345 28.78221099 -81.375 27.1875 C-81.20833333 24.6875 -81.20833333 24.6875 -81.375 22.1875 C-82.4345877 20.90427453 -82.4345877 20.90427453 -84.875 21.0625 C-87.3154123 20.90427453 -87.3154123 20.90427453 -88.375 22.1875 Z M62.625 50.1875 C61.965 50.8475 61.305 51.5075 60.625 52.1875 C60.94541397 54.79030568 60.94541397 54.79030568 61.625 57.1875 C63.51679203 57.8689823 63.51679203 57.8689823 65.625 58.1875 C67.91228734 56.34866119 67.91228734 56.34866119 67.75 53.5625 C67.70875 52.77875 67.6675 51.995 67.625 51.1875 C65.22780568 50.50791397 65.22780568 50.50791397 62.625 50.1875 Z M-57.375 52.1875 C-59.66228734 54.02633881 -59.66228734 54.02633881 -59.5 56.8125 C-59.45875 57.59625 -59.4175 58.38 -59.375 59.1875 C-56.97780568 59.86708603 -56.97780568 59.86708603 -54.375 60.1875 C-53.715 59.5275 -53.055 58.8675 -52.375 58.1875 C-52.69541397 55.58469432 -52.69541397 55.58469432 -53.375 53.1875 C-55.26679203 52.5060177 -55.26679203 52.5060177 -57.375 52.1875 Z M16.625 64.1875 C14.71798225 66.73019034 14.61912241 68.04349893 14.75 71.25 C15.40328665 74.21072441 15.40328665 74.21072441 17.3125 76.0625 C20.39160389 77.56044243 22.24200591 77.75133235 25.625 77.1875 C28.235911 75.23663936 28.235911 75.23663936 29.625 72.1875 C29.625 68.30128952 29.50607087 66.12933438 26.8125 63.25 C23.0096744 61.40291328 20.01319452 61.92870365 16.625 64.1875 Z M-9.375 67.1875 C-10.15391815 71.08209073 -10.62964004 74.61825393 -10.91015625 78.5546875 C-10.99716797 79.77027344 -11.08417969 80.98585938 -11.17382812 82.23828125 C-11.26083984 83.50027344 -11.34785156 84.76226562 -11.4375 86.0625 C-11.52837891 87.31675781 -11.61925781 88.57101563 -11.71289062 89.86328125 C-12.3633865 98.51710899 -12.3633865 98.51710899 -12.375 107.1875 C-10.79745356 108.97302592 -10.79745356 108.97302592 -8.5625 109.9375 C-5.68766909 111.42466207 -3.56504624 112.7832852 -1.375 115.1875 C2.74200839 113.87007264 6.68830595 112.36099939 10.64453125 110.62109375 C11.74861328 110.13576172 12.85269531 109.65042969 13.99023438 109.15039062 C15.12783203 108.64701172 16.26542969 108.14363281 17.4375 107.625 C19.17290039 106.86413086 19.17290039 106.86413086 20.94335938 106.08789062 C26.12192089 104.17393716 26.12192089 104.17393716 30.625 101.1875 C31.16580028 97.92906471 31.59106118 94.66067118 32.02734375 91.38671875 C32.55346686 88.57041267 33.18355667 86.63011318 34.625 84.1875 C33.4604799 82.52128575 33.4604799 82.52128575 31.625 81.1875 C29.36072585 81.48842586 29.36072585 81.48842586 26.625 82.1875 C21.8004875 82.68689501 18.54595565 82.6730948 14.1875 80.375 C10.29565962 77.05269724 9.65141174 75.31955868 8.625 70.1875 C2.685 69.1975 -3.255 68.2075 -9.375 67.1875 Z M-118.375 78.1875 C-119.035 79.5075 -119.695 80.8275 -120.375 82.1875 C-119.385 83.6725 -119.385 83.6725 -118.375 85.1875 C-115.79119823 85.43780977 -115.79119823 85.43780977 -113.375 85.1875 C-112.37282936 81.60422247 -112.37282936 81.60422247 -113.375 78.1875 C-115.025 78.1875 -116.675 78.1875 -118.375 78.1875 Z M39.625 87.1875 C36.88102071 91.63463884 36.98376295 96.11371186 37.625 101.1875 C39.40371397 104.95016417 40.95637031 106.70546464 44.3125 109.125 C48.69720188 110.53141381 52.21338957 110.53051793 56.625 109.1875 C59.82472296 106.66856916 62.39180802 104.11129266 63.625 100.1875 C64.05037199 94.82781296 64.11354141 91.51810313 60.625 87.1875 C58.34532573 84.63150157 56.69803656 83.36514318 53.2890625 82.80078125 C47.6018099 82.55313812 43.9970125 83.25268875 39.625 87.1875 Z M-95.375 96.1875 C-96.6083744 100.35599321 -96.85173336 104.03330345 -95.1875 108.0625 C-91.96598231 111.93750833 -91.96598231 111.93750833 -87.29296875 113.5078125 C-83.25618361 113.70864758 -80.9657388 113.5394295 -77.4375 111.4375 C-74.59293535 108.33433856 -73.54590358 106.49776074 -73 102.3125 C-73.48292086 98.28815951 -74.81350596 96.30283058 -77.375 93.1875 C-79.95699433 91.20135051 -81.66076643 90.29463504 -84.875 89.8125 C-89.24567807 90.46810171 -92.56114745 92.84995822 -95.375 96.1875 Z M-41.375 96.1875 C-43.66228734 98.02633881 -43.66228734 98.02633881 -43.5 100.8125 C-43.45875 101.59625 -43.4175 102.38 -43.375 103.1875 C-40.97780568 103.86708603 -40.97780568 103.86708603 -38.375 104.1875 C-37.715 103.5275 -37.055 102.8675 -36.375 102.1875 C-36.69541397 99.58469432 -36.69541397 99.58469432 -37.375 97.1875 C-39.26679203 96.5060177 -39.26679203 96.5060177 -41.375 96.1875 Z M-28.75 120.0625 C-30.13285693 124.76421357 -29.95076982 128.11821319 -27.625 132.4375 C-24.9185862 135.85335768 -24.9185862 135.85335768 -21.375 138.1875 C-16.0190401 138.69759142 -12.71356137 138.6583491 -8.375 135.1875 C-5.08496919 131.89746919 -4.53073109 128.78156717 -4.375 124.1875 C-5.92873153 119.09471332 -7.63179531 115.76532864 -12.375 113.1875 C-19.95424548 111.70247223 -24.22217927 113.88819901 -28.75 120.0625 Z M-116.375 135.1875 C-116.375 138.73111243 -116.03350044 141.05341591 -114.25 144.125 C-111.15210642 145.88047303 -108.84655466 145.67473574 -105.375 145.1875 C-102.69661427 143.25623898 -102.69661427 143.25623898 -101.375 140.1875 C-101.375 136.33800705 -101.50910619 134.14616815 -104.125 131.25 C-109.75004109 128.5937306 -112.80510499 130.25264514 -116.375 135.1875 Z M70.625 138.1875 C68.28331236 141.70003146 68.12876323 143.05219356 68.625 147.1875 C70.03378096 150.1776643 70.03378096 150.1776643 72.625 152.1875 C76.125 153.02083333 76.125 153.02083333 79.625 152.1875 C82.59618368 149.59723731 83.50508526 148.02690315 84.0625 144.125 C83.56739068 140.80069458 83.12164238 139.43447814 80.625 137.1875 C76.64098397 136.00077182 74.07247589 135.72501722 70.625 138.1875 Z M-54.375 148.1875 C-55.035 148.8475 -55.695 149.5075 -56.375 150.1875 C-56.05458603 152.79030568 -56.05458603 152.79030568 -55.375 155.1875 C-53.71885343 155.56968767 -52.05042976 155.90145102 -50.375 156.1875 C-49.01881501 155.06215895 -49.01881501 155.06215895 -49.3125 152.125 C-49.333125 151.155625 -49.35375 150.18625 -49.375 149.1875 C-51.77219432 148.50791397 -51.77219432 148.50791397 -54.375 148.1875 Z M-20.75 180.8125 C-22.8503727 183.88227548 -22.90793835 185.53306561 -22.375 189.1875 C-20.91437111 192.03188258 -19.97649532 192.95006764 -17 194.125 C-13.60714991 194.20578215 -12.05799954 193.19974965 -9.375 191.1875 C-7.95458179 188.34666359 -8.06047728 186.33272722 -8.375 183.1875 C-9.875 180.6875 -9.875 180.6875 -12.375 179.1875 C-16.0467087 178.57554855 -17.66313568 178.70043494 -20.75 180.8125 Z " fill="#010101" transform="translate(125.375,5.8125)"/>
<path d="M0 0 C1.39456867 0.00574201 2.78910972 0.01875397 4.18359375 0.03515625 C6.63796875 0.05578125 9.09234375 0.07640625 11.62109375 0.09765625 C11.62109375 6.69765625 11.62109375 13.29765625 11.62109375 20.09765625 C17.56109375 20.09765625 23.50109375 20.09765625 29.62109375 20.09765625 C29.62109375 24.38765625 29.62109375 28.67765625 29.62109375 33.09765625 C23.68109375 33.09765625 17.74109375 33.09765625 11.62109375 33.09765625 C11.69522905 38.54276629 11.77817895 43.98627424 11.88354492 49.43066406 C11.91671671 51.28116444 11.94477262 53.13176411 11.9675293 54.98242188 C12.00121825 57.64886628 12.05354035 60.31440715 12.109375 62.98046875 C12.11576492 63.80257843 12.12215485 64.62468811 12.1287384 65.47171021 C12.25401779 70.41066935 13.00204538 73.76204881 15.62109375 78.09765625 C17.20433063 78.12484925 18.78770437 78.14413931 20.37109375 78.16015625 C21.2528125 78.17175781 22.13453125 78.18335938 23.04296875 78.1953125 C25.89062851 78.17593446 25.89062851 78.17593446 29.62109375 77.09765625 C29.62109375 81.71765625 29.62109375 86.33765625 29.62109375 91.09765625 C22.46862839 93.69855275 13.93863472 94.70422017 6.68359375 91.91015625 C1.6346761 88.92202131 -1.71058513 85.79775342 -3.37890625 80.09765625 C-4.45961456 74.94831292 -4.5085645 69.99474868 -4.4765625 64.76171875 C-4.47514755 63.88236664 -4.4737326 63.00301453 -4.47227478 62.09701538 C-4.46670502 59.30552683 -4.45415815 56.51412031 -4.44140625 53.72265625 C-4.43638734 51.82291783 -4.43182512 49.92317815 -4.42773438 48.0234375 C-4.4167455 43.38147911 -4.39950182 38.73958156 -4.37890625 34.09765625 C-6.94093891 33.83592098 -9.50066205 33.60178838 -12.06640625 33.3828125 C-12.78763672 33.3063147 -13.50886719 33.22981689 -14.25195312 33.15100098 C-17.88005658 32.86211945 -20.05462104 32.92178383 -23.28515625 34.67382812 C-25.19762234 36.3739962 -26.83424921 38.06013167 -28.37890625 40.09765625 C-30.90207428 38.88501299 -33.05356981 37.63382506 -35.37890625 36.03515625 C-40.23334872 32.89999549 -44.63741715 32.53496948 -50.37890625 33.09765625 C-56.46854267 34.42100265 -59.88141759 36.80145914 -63.37890625 42.09765625 C-66.98690281 48.73171445 -67.50419528 56.02949405 -65.875 63.3671875 C-63.86829941 69.36435556 -60.77945939 73.62792984 -55.31640625 76.97265625 C-49.5998941 79.04457987 -42.56078926 79.53646558 -36.96875 77.0078125 C-34.89247665 75.70991953 -34.89247665 75.70991953 -33.09765625 74.2890625 C-31.04790272 72.86821062 -29.89464642 72.17331761 -27.37890625 72.09765625 C-25.01953125 73.96875 -25.01953125 73.96875 -22.62890625 76.53515625 C-21.8296875 77.37949219 -21.03046875 78.22382813 -20.20703125 79.09375 C-19.30210938 80.08568359 -19.30210938 80.08568359 -18.37890625 81.09765625 C-22.82611391 87.47198723 -28.65524306 91.08589439 -36.296875 92.72265625 C-49.82000815 94.36805648 -61.63196129 92.59265507 -72.50390625 84.09765625 C-79.1100175 78.09091604 -83.05172021 69.20926765 -83.6171875 60.375 C-83.90939634 48.96964141 -82.7633825 39.10624632 -75.2578125 29.9453125 C-67.20886685 22.03023705 -57.0641805 18.22740689 -45.87890625 17.72265625 C-36.08837798 18.14833139 -28.07317284 21.09379671 -20.37890625 27.09765625 C-20.04890625 24.78765625 -19.71890625 22.47765625 -19.37890625 20.09765625 C-14.42890625 19.76765625 -9.47890625 19.43765625 -4.37890625 19.09765625 C-4.39050781 17.80988281 -4.40210938 16.52210937 -4.4140625 15.1953125 C-4.42343895 13.51692853 -4.4325393 11.83854299 -4.44140625 10.16015625 C-4.44978516 9.31001953 -4.45816406 8.45988281 -4.46679688 7.58398438 C-4.47001953 6.77509766 -4.47324219 5.96621094 -4.4765625 5.1328125 C-4.48179932 4.38394775 -4.48703613 3.63508301 -4.49243164 2.86352539 C-4.28203621 -0.40914158 -3.35149431 0.096864 0 0 Z " fill="#000000" transform="translate(1181.37890625,76.90234375)"/>
<path d="M0 0 C1.39456452 0.00667256 2.78911118 0.01863093 4.18359375 0.03515625 C4.89451172 0.03966797 5.60542969 0.04417969 6.33789062 0.04882812 C8.09899388 0.06064761 9.86005411 0.07858362 11.62109375 0.09765625 C12.49376971 5.33673167 12.75535624 10.35065179 12.71875 15.65625 C12.71774292 16.35689575 12.71673584 17.0575415 12.71569824 17.77941895 C12.71051679 20.36468167 12.69655606 22.94992083 12.68359375 25.53515625 C12.66296875 31.33078125 12.64234375 37.12640625 12.62109375 43.09765625 C29.78109375 43.42765625 46.94109375 43.75765625 64.62109375 44.09765625 C64.62109375 29.57765625 64.62109375 15.05765625 64.62109375 0.09765625 C69.57109375 0.09765625 74.52109375 0.09765625 79.62109375 0.09765625 C80.62109375 1.09765625 80.62109375 1.09765625 80.74414158 2.86052799 C80.74321979 3.63391231 80.74229799 4.40729662 80.74134827 5.20411682 C80.74341026 6.53140808 80.74341026 6.53140808 80.74551392 7.88551331 C80.740121 9.35286171 80.740121 9.35286171 80.73461914 10.84985352 C80.73476517 11.87412445 80.73491119 12.89839539 80.73506165 13.95370483 C80.73436203 17.35717854 80.72656738 20.76059829 80.71875 24.1640625 C80.71688599 26.51675893 80.71546201 28.86945575 80.71446228 31.22215271 C80.71063574 37.4282233 80.7008043 43.63427065 80.6897583 49.84033203 C80.67954709 56.16764003 80.67496529 62.49495177 80.66992188 68.82226562 C80.65918215 81.24740607 80.64210411 93.67252923 80.62109375 106.09765625 C75.34109375 106.09765625 70.06109375 106.09765625 64.62109375 106.09765625 C64.62109375 90.25765625 64.62109375 74.41765625 64.62109375 58.09765625 C47.13109375 58.09765625 29.64109375 58.09765625 11.62109375 58.09765625 C11.95109375 60.40765625 12.28109375 62.71765625 12.62109375 65.09765625 C12.70105352 66.57968884 12.748782 68.06415278 12.75048828 69.54833984 C12.75364044 70.34541351 12.7567926 71.14248718 12.76004028 71.9637146 C12.75801605 72.79939972 12.75599182 73.63508484 12.75390625 74.49609375 C12.75534134 75.80944199 12.75534134 75.80944199 12.75680542 77.14932251 C12.75748225 78.98643059 12.75566283 80.82354112 12.75146484 82.66064453 C12.74607064 85.48475415 12.75144639 88.30870753 12.7578125 91.1328125 C12.75715239 92.92057327 12.75587262 94.70833394 12.75390625 96.49609375 C12.75593048 97.34392426 12.75795471 98.19175476 12.76004028 99.0652771 C12.73607017 104.98267983 12.73607017 104.98267983 11.62109375 106.09765625 C8.92454521 106.17085246 6.25417917 106.19008162 3.55859375 106.16015625 C2.79998047 106.15564453 2.04136719 106.15113281 1.25976562 106.14648438 C-0.61982496 106.13466305 -2.49937524 106.11672703 -4.37890625 106.09765625 C-4.40202675 92.42463063 -4.41981984 78.75160961 -4.43071842 65.07856846 C-4.43594789 58.73035049 -4.44304669 52.38214585 -4.4543457 46.03393555 C-4.46517231 39.91317043 -4.4711826 33.79241816 -4.47378349 27.67164421 C-4.47563815 25.33074682 -4.47925954 22.98985016 -4.48463631 20.64895821 C-4.49184373 17.38257423 -4.49289732 14.1162441 -4.49243164 10.84985352 C-4.49602692 9.87162125 -4.49962219 8.89338898 -4.50332642 7.88551331 C-4.50195175 7.00065247 -4.50057709 6.11579163 -4.49916077 5.20411682 C-4.50008256 4.43073251 -4.50100435 3.65734819 -4.50195408 2.86052799 C-4.27379443 -0.40825135 -3.35309197 0.09691017 0 0 Z " fill="#000000" transform="translate(265.37890625,61.90234375)"/>
<path d="M0 0 C2.15438487 1.73790474 3.88845277 3.26128054 5.13671875 5.7578125 C8.08483284 4.39815012 10.43693405 2.80448028 12.94921875 0.7578125 C19.15459334 -3.93629005 25.51920009 -5.01389691 33.13671875 -4.2421875 C40.62824137 -2.9625796 46.22955939 -0.12397897 51.13671875 5.7578125 C56.11445069 14.0540324 56.28214569 22.41255754 56.234375 31.84375 C56.23296005 32.90067047 56.2315451 33.95759094 56.23008728 35.04653931 C56.22450815 38.40865966 56.21195944 41.77071241 56.19921875 45.1328125 C56.19420106 47.41796779 56.18963862 49.70312412 56.18554688 51.98828125 C56.17454554 57.57815088 56.15729524 63.16797025 56.13671875 68.7578125 C50.85671875 68.7578125 45.57671875 68.7578125 40.13671875 68.7578125 C40.12213623 67.30487793 40.10755371 65.85194336 40.0925293 64.35498047 C40.03446757 58.95385379 39.95723436 53.55314055 39.87426758 48.15234375 C39.84105542 45.81680013 39.81301199 43.48117697 39.7902832 41.14550781 C39.75666974 37.78416105 39.70434872 34.42354081 39.6484375 31.0625 C39.64204758 30.02165253 39.63565765 28.98080505 39.6290741 27.90841675 C39.5192253 22.46672358 39.241918 18.43384383 36.13671875 13.7578125 C32.49784315 10.54703991 29.08885128 10.28213788 24.4140625 10.484375 C20.73921717 10.92560857 18.27999703 11.78555946 15.13671875 13.7578125 C10.76136207 19.60384841 10.53612684 25.76619472 10.52734375 32.8203125 C10.5108075 33.85220703 10.49427124 34.88410156 10.47723389 35.94726562 C10.42895614 39.21750969 10.40742741 42.4872894 10.38671875 45.7578125 C10.35854224 47.98570019 10.32861247 50.21356644 10.296875 52.44140625 C10.22320225 57.88017008 10.17350393 63.31867917 10.13671875 68.7578125 C4.85671875 68.7578125 -0.42328125 68.7578125 -5.86328125 68.7578125 C-5.87786377 67.34040771 -5.89244629 65.92300293 -5.9074707 64.46264648 C-5.96559569 59.18635269 -6.0428283 53.91047931 -6.12573242 48.63452148 C-6.15891492 46.35431764 -6.18696749 44.07403297 -6.2097168 41.79370117 C-6.24338507 38.50925368 -6.29570851 35.22554236 -6.3515625 31.94140625 C-6.35795242 30.92759384 -6.36434235 29.91378143 -6.3709259 28.86924744 C-6.49014202 23.08455137 -7.06171778 18.85927503 -9.86328125 13.7578125 C-13.34997514 10.66959791 -16.45367955 10.35455537 -20.9375 10.5234375 C-23.48354118 10.83330052 -25.56438834 11.64120737 -27.86328125 12.7578125 C-28.85328125 13.0878125 -29.84328125 13.4178125 -30.86328125 13.7578125 C-31.99674711 15.82700576 -31.99674711 15.82700576 -32.86328125 18.7578125 C-33.10409424 19.33909912 -33.34490723 19.92038574 -33.59301758 20.51928711 C-37.00440824 29.76642303 -36.43217451 39.66388583 -36.55078125 49.3828125 C-36.58400385 51.264346 -36.61849796 53.1458575 -36.65429688 55.02734375 C-36.738635 59.60404438 -36.80570951 64.18070012 -36.86328125 68.7578125 C-41.81328125 68.7578125 -46.76328125 68.7578125 -51.86328125 68.7578125 C-51.86328125 45.3278125 -51.86328125 21.8978125 -51.86328125 -2.2421875 C-47.24328125 -2.2421875 -42.62328125 -2.2421875 -37.86328125 -2.2421875 C-37.20328125 -0.2621875 -36.54328125 1.7178125 -35.86328125 3.7578125 C-35.29480469 3.34789063 -34.72632813 2.93796875 -34.140625 2.515625 C-23.68085666 -4.78351217 -11.28732147 -7.52488098 0 0 Z " fill="#000000" transform="translate(506.86328125,99.2421875)"/>
<path d="M0 0 C3.34779372 2.57149373 4.71254492 4.84040256 6.1171875 8.7421875 C4.37913409 10.11165372 2.62627517 11.46234704 0.8671875 12.8046875 C-0.10734375 13.55878906 -1.081875 14.31289062 -2.0859375 15.08984375 C-4.8828125 16.7421875 -4.8828125 16.7421875 -7.0390625 16.66796875 C-9.10203438 15.63211211 -10.48172568 14.47819939 -12.1328125 12.8671875 C-18.3785454 7.33752588 -25.64767272 5.75436966 -33.8828125 5.7421875 C-44.01265403 6.52911022 -52.28066244 10.20849209 -59.25 17.6640625 C-67.83885074 28.59532708 -70.08411386 40.0883721 -68.8828125 53.7421875 C-67.39754612 60.75509474 -65.3844943 67.11508525 -60.8828125 72.7421875 C-60.3465625 73.5671875 -59.8103125 74.3921875 -59.2578125 75.2421875 C-53.13202841 81.69038128 -45.07582492 85.2593777 -36.26953125 86.078125 C-23.14070552 86.21676096 -16.21720423 83.63037654 -6.71875 74.5703125 C-6.11289062 73.96703125 -5.50703125 73.36375 -4.8828125 72.7421875 C-0.04741154 75.35330402 3.98822651 78.11675833 8.1171875 81.7421875 C6.05127634 88.13984788 1.57804732 91.13568382 -3.8828125 94.7421875 C-7.78790194 96.73478442 -11.74179606 98.31165455 -15.8828125 99.7421875 C-16.54667969 99.98839844 -17.21054687 100.23460937 -17.89453125 100.48828125 C-31.17872848 104.66660793 -46.61711642 101.67722462 -58.6953125 95.4921875 C-72.66456504 87.44011534 -81.85812052 75.24915025 -86.1953125 59.6171875 C-89.30857015 42.91336277 -86.48618824 25.82364009 -76.8828125 11.7421875 C-57.74324385 -11.14908833 -25.27376452 -16.88413314 0 0 Z " fill="#000000" transform="translate(746.8828125,69.2578125)"/>
<path d="M0 0 C8.44430343 6.10611006 12.47766896 14.08510734 14.25 24.3125 C14.25 28.6025 14.25 32.8925 14.25 37.3125 C-4.23 37.3125 -22.71 37.3125 -41.75 37.3125 C-38.08461941 47.1623772 -38.08461941 47.1623772 -30.75 53.3125 C-23.45510118 56.23045953 -16.74194146 56.21380344 -9.578125 53.23828125 C-6.25192976 51.55386186 -3.43518579 49.68287158 -1.75 46.3125 C3.69208234 46.65263015 7.18668198 50.01546528 11.25 53.3125 C8.09716233 60.41403728 1.29911601 64.56677691 -5.75 67.3125 C-16.06707274 70.71288352 -28.37081706 70.77433891 -38.28125 66.125 C-47.42832218 61.05553831 -53.42496204 54.26973734 -56.75 44.3125 C-59.36367186 34.03322678 -58.895332 22.63505275 -53.75 13.3125 C-53.193125 12.28125 -52.63625 11.25 -52.0625 10.1875 C-39.12387829 -5.89835402 -18.08885086 -11.10135162 0 0 Z M-37.75 14.3125 C-40.03702725 17.94191282 -41.75 20.97634132 -41.75 25.3125 C-28.55 25.3125 -15.35 25.3125 -1.75 25.3125 C-2.69907548 18.66897161 -3.2872633 14.7752367 -8 10.0625 C-18.33586678 3.48513023 -29.48235625 5.85695526 -37.75 14.3125 Z " fill="#000000" transform="translate(1072.75,100.6875)"/>
<path d="M0 0 C7.74064119 5.57600171 11.67895556 12.85898811 13.90234375 21.9921875 C14.51116998 27.10632783 14.3125 32.28724751 14.3125 37.4375 C-4.1675 37.4375 -22.6475 37.4375 -41.6875 37.4375 C-38.80541594 46.08375217 -37.76924635 48.82125052 -30.6875 53.4375 C-23.44517796 56.41202512 -16.64832136 56.32587757 -9.515625 53.36328125 C-6.18942976 51.67886186 -3.37268579 49.80787158 -1.6875 46.4375 C3.75458234 46.77763015 7.24918198 50.14046528 11.3125 53.4375 C8.15966233 60.53903728 1.36161601 64.69177691 -5.6875 67.4375 C-16.00457274 70.83788352 -28.30831706 70.89933891 -38.21875 66.25 C-48.18222898 60.72807189 -53.70048736 53.3786245 -57.2734375 42.68359375 C-59.11826191 32.67629154 -58.77371971 21.17148825 -53.43359375 12.37109375 C-47.02028808 3.16179651 -39.16290125 -2.55727888 -28.2109375 -5.1484375 C-18.0837138 -6.81018009 -8.81498721 -5.26512772 0 0 Z M-34.73046875 11.24609375 C-38.67670954 15.55034401 -41.6875 19.41479187 -41.6875 25.4375 C-28.4875 25.4375 -15.2875 25.4375 -1.6875 25.4375 C-3.47582473 15.21549933 -3.47582473 15.21549933 -9.75 8.6875 C-17.92982616 5.20672291 -27.84583128 5.15128085 -34.73046875 11.24609375 Z " fill="#000000" transform="translate(634.6875,100.5625)"/>
<path d="M0 0 C8.85452726 6.28053678 15.53689225 14.88576898 17.640625 25.6796875 C18.60579909 38.10037043 16.71947699 47.99135075 8.62890625 57.67578125 C0.4959586 65.87264204 -9.33372783 69.61593357 -20.734375 69.8671875 C-31.56295654 69.73531032 -40.50446751 66.09990623 -48.47265625 58.7109375 C-55.84318492 50.77579277 -59.5457266 40.88528254 -59.265625 30.0546875 C-58.43577825 22.64990108 -56.71161992 16.74130996 -52.359375 10.6796875 C-51.71162109 9.74382812 -51.71162109 9.74382812 -51.05078125 8.7890625 C-39.05028816 -6.84897382 -16.58893346 -9.28321111 0 0 Z M-38.9140625 17.44921875 C-43.14895141 23.98468244 -43.07189489 31.15764211 -42.359375 38.6796875 C-40.70716536 45.3478869 -37.14872995 50.0086828 -31.359375 53.6796875 C-25.32549491 56.586739 -18.40939244 56.84821712 -11.9765625 54.9921875 C-6.48902139 52.48836646 -2.68437208 48.91203926 -0.390625 43.31640625 C2.48818304 34.53337616 2.1305515 27.22788804 -1.359375 18.6796875 C-4.87374527 13.0980406 -9.11479392 10.43411742 -15.359375 8.6796875 C-25.43237883 7.29192072 -32.35147268 9.80303852 -38.9140625 17.44921875 Z " fill="#000000" transform="translate(822.359375,100.3203125)"/>
<path d="M0 0 C6.7240446 5.3111702 11.69627483 12.60189076 13.546875 21.01171875 C14.89049087 32.70147087 13.58086444 42.35101973 6.859375 52.19921875 C-0.64243123 61.43651746 -9.75852197 66.06243207 -21.6015625 67.35546875 C-33.07096449 67.70928064 -42.50018151 64.25597849 -51.078125 56.69921875 C-59.75311988 46.88277718 -63.16510111 38.81812066 -62.7890625 25.46875 C-61.6703462 13.95637882 -55.94102544 6.47400083 -47.25390625 -0.83984375 C-32.46769644 -11.61758375 -14.61174715 -9.84435507 0 0 Z M-41.453125 13.01171875 C-45.99867531 20.43458711 -47.69094733 27.72819691 -45.9921875 36.3515625 C-43.97126824 43.30590231 -40.51586517 48.0740668 -34.390625 51.94921875 C-28.4009254 54.06557928 -20.96357491 54.32603119 -15.01171875 52.09765625 C-9.53454163 48.87578736 -5.57668564 44.74036602 -3.140625 38.82421875 C-1.52189517 29.84762608 -1.67572041 21.86022368 -6.70703125 14.0703125 C-10.2095753 9.49887217 -13.79258706 7.12378904 -19.453125 6.01171875 C-28.11230012 5.04656736 -35.12059678 6.67919053 -41.453125 13.01171875 Z " fill="#000000" transform="translate(426.453125,102.98828125)"/>
<path d="M0 0 C5.49595432 4.30986161 8.53244565 9.95752181 9.953125 16.74609375 C10.03839247 18.48693064 10.07088078 20.23071407 10.06665039 21.97363281 C10.06653709 23.53479828 10.06653709 23.53479828 10.06642151 25.12750244 C10.06126022 26.24429382 10.05609894 27.36108521 10.05078125 28.51171875 C10.0493663 29.6602533 10.04795135 30.80878784 10.04649353 31.99212646 C10.04089643 35.66014206 10.02834444 39.3280966 10.015625 42.99609375 C10.01060963 45.48307204 10.00604678 47.97005128 10.00195312 50.45703125 C9.99092795 56.55340894 9.97366527 62.64974099 9.953125 68.74609375 C4.673125 68.74609375 -0.606875 68.74609375 -6.046875 68.74609375 C-6.0562207 67.298396 -6.06556641 65.85069824 -6.07519531 64.35913086 C-6.11516701 58.97096361 -6.18094682 53.58336299 -6.25439453 48.19555664 C-6.28256235 45.86685483 -6.30379764 43.53805815 -6.31787109 41.20922852 C-6.33935789 37.85513896 -6.38604009 34.50218498 -6.4375 31.1484375 C-6.43872864 30.11275131 -6.43995728 29.07706512 -6.44122314 28.00999451 C-6.56737214 21.73736793 -7.32037258 17.85507828 -11.046875 12.74609375 C-15.20586192 10.0130452 -20.22734192 10.22528657 -25.046875 10.74609375 C-29.32390746 12.0081689 -31.44860689 13.05080919 -34.359375 16.43359375 C-37.85260521 23.29067528 -38.35895734 29.94298263 -38.4609375 37.49609375 C-38.48030365 38.39481201 -38.4996698 39.29353027 -38.5196228 40.21948242 C-38.57892108 43.06159271 -38.62560308 45.9037446 -38.671875 48.74609375 C-38.71010067 50.68491251 -38.749155 52.62371513 -38.7890625 54.5625 C-38.8845811 59.29023185 -38.9687936 64.01804307 -39.046875 68.74609375 C-43.996875 68.74609375 -48.946875 68.74609375 -54.046875 68.74609375 C-54.046875 45.31609375 -54.046875 21.88609375 -54.046875 -2.25390625 C-48.766875 -2.25390625 -43.486875 -2.25390625 -38.046875 -2.25390625 C-38.046875 0.05609375 -38.046875 2.36609375 -38.046875 4.74609375 C-37.46292969 4.14861328 -37.46292969 4.14861328 -36.8671875 3.5390625 C-26.93491615 -5.86684424 -11.72862595 -7.18490254 0 0 Z " fill="#000000" transform="translate(991.046875,99.25390625)"/>
<path d="M0 0 C4.86627247 4.21743614 8.54673498 10.06867421 9.8125 16.4375 C9.89776747 18.17833689 9.93025578 19.92212032 9.92602539 21.66503906 C9.92591209 23.22620453 9.92591209 23.22620453 9.92579651 24.81890869 C9.92063522 25.93570007 9.91547394 27.05249146 9.91015625 28.203125 C9.9087413 29.35165955 9.90732635 30.50019409 9.90586853 31.68353271 C9.90027143 35.35154831 9.88771944 39.01950285 9.875 42.6875 C9.86998463 45.17447829 9.86542178 47.66145753 9.86132812 50.1484375 C9.85030295 56.24481519 9.83304027 62.34114724 9.8125 68.4375 C4.5325 68.4375 -0.7475 68.4375 -6.1875 68.4375 C-6.20208252 66.98456543 -6.21666504 65.53163086 -6.23168945 64.03466797 C-6.28975118 58.63354129 -6.36698439 53.23282805 -6.44995117 47.83203125 C-6.48316333 45.49648763 -6.51120676 43.16086447 -6.53393555 40.82519531 C-6.56754901 37.46384855 -6.61987003 34.10322831 -6.67578125 30.7421875 C-6.68217117 29.70134003 -6.6885611 28.66049255 -6.69514465 27.58810425 C-6.80463933 22.16395375 -7.04714936 18.07591769 -10.1875 13.4375 C-14.9117888 10.063008 -19.57258702 9.60143851 -25.1875 10.4375 C-29.82097093 11.81038028 -33.087868 13.69512067 -35.625 17.875 C-38.29001809 23.95124126 -38.38149415 29.57321449 -38.50390625 36.11328125 C-38.52468735 37.0384404 -38.54546844 37.96359955 -38.56687927 38.91679382 C-38.6320656 41.86112307 -38.69111558 44.80553865 -38.75 47.75 C-38.79321464 49.75065983 -38.83682986 51.75131106 -38.88085938 53.75195312 C-38.9877152 58.64704779 -39.08906919 63.54222897 -39.1875 68.4375 C-44.1375 68.4375 -49.0875 68.4375 -54.1875 68.4375 C-54.21255615 66.35775879 -54.2376123 64.27801758 -54.26342773 62.13525391 C-54.34679728 55.27400181 -54.43549653 48.41282615 -54.52683926 41.5516758 C-54.58207122 37.39059752 -54.63549165 33.22951222 -54.68481445 29.06835938 C-54.73245399 25.05478058 -54.78479664 21.04128848 -54.84044075 17.02781296 C-54.86086617 15.49439011 -54.87957895 13.96094349 -54.89657402 12.42747879 C-54.92061395 10.28440991 -54.95066889 8.14150538 -54.98217773 5.99853516 C-54.99772202 4.77719879 -55.0132663 3.55586243 -55.02928162 2.29751587 C-54.99458643 -0.50761114 -54.99458643 -0.50761114 -56.1875 -2.5625 C-50.5775 -2.5625 -44.9675 -2.5625 -39.1875 -2.5625 C-38.8575 -0.2525 -38.5275 2.0575 -38.1875 4.4375 C-37.445 3.57125 -37.445 3.57125 -36.6875 2.6875 C-25.82834025 -7.08574378 -12.40171442 -6.07927178 0 0 Z " fill="#000000" transform="translate(909.1875,99.5625)"/>
<path d="M0 0 C3 1 3 1 3 1 Z " fill="#000000" transform="translate(279,122)"/>
<path d="" fill="#000000" transform="translate(0,0)"/>
<path d="" fill="#000000" transform="translate(0,0)"/>
<path d="" fill="#000000" transform="translate(0,0)"/>
<path d="" fill="#000000" transform="translate(0,0)"/>
<path d="" fill="#000000" transform="translate(0,0)"/>
<path d="" fill="#000000" transform="translate(0,0)"/>
<path d="" fill="#000000" transform="translate(0,0)"/>
<path d="" fill="#000000" transform="translate(0,0)"/>
<path d="" fill="#000000" transform="translate(0,0)"/>
<path d="" fill="#000000" transform="translate(0,0)"/>
<path d="" fill="#000000" transform="translate(0,0)"/>
<path d="" fill="#000000" transform="translate(0,0)"/>
<path d="" fill="#000000" transform="translate(0,0)"/>
<path d="" fill="#000000" transform="translate(0,0)"/>
<path d="" fill="#000000" transform="translate(0,0)"/>
<path d="" fill="#000000" transform="translate(0,0)"/>
<path d="" fill="#000000" transform="translate(0,0)"/>
<path d="" fill="#000000" transform="translate(0,0)"/>
<path d="" fill="#000000" transform="translate(0,0)"/>
<path d="" fill="#000000" transform="translate(0,0)"/>
<path d="" fill="#000000" transform="translate(0,0)"/>
<path d="" fill="#000000" transform="translate(0,0)"/>
<path d="" fill="#000000" transform="translate(0,0)"/>
<path d="" fill="#000000" transform="translate(0,0)"/>
<path d="" fill="#000000" transform="translate(0,0)"/>
<path d="" fill="#000000" transform="translate(0,0)"/>
<path d="" fill="#000000" transform="translate(0,0)"/>
<path d="" fill="#000000" transform="translate(0,0)"/>
<path d="" fill="#000000" transform="translate(0,0)"/>
<path d="" fill="#000000" transform="translate(0,0)"/>
<path d="" fill="#000000" transform="translate(0,0)"/>
<path d="" fill="#000000" transform="translate(0,0)"/>
</svg>
