<?xml version="1.0" standalone="no"?>
<!DOCTYPE svg PUBLIC "-//W3C//DTD SVG 20010904//EN"
 "http://www.w3.org/TR/2001/REC-SVG-20010904/DTD/svg10.dtd">
<svg version="1.0" xmlns="http://www.w3.org/2000/svg"
 width="1820.000000pt" height="396.000000pt" viewBox="0 0 1820.000000 396.000000"
 preserveAspectRatio="xMidYMid meet">

<g transform="translate(0.000000,396.000000) scale(0.100000,-0.100000)"
fill="#000000" stroke="none">
<path d="M8470 2784 c-114 -24 -196 -53 -298 -104 -219 -109 -396 -335 -478
-607 -23 -76 -27 -111 -32 -258 -6 -231 19 -349 114 -538 128 -253 392 -460
663 -517 93 -20 124 -22 275 -17 224 7 304 30 484 139 96 58 224 172 216 193
-3 7 -33 33 -66 57 -34 23 -76 55 -93 70 -18 16 -38 28 -44 28 -7 0 -42 -30
-79 -68 -78 -79 -192 -143 -298 -168 -84 -20 -277 -14 -369 11 -250 69 -435
270 -505 550 -20 78 -22 106 -17 225 6 158 29 255 88 375 85 175 240 311 429
376 55 19 86 22 210 22 124 1 153 -2 204 -21 80 -29 156 -76 226 -139 32 -29
62 -53 68 -53 5 0 18 8 30 18 11 10 55 45 96 78 42 32 76 64 76 70 0 7 -33 43
-74 81 -95 89 -201 145 -347 183 -103 27 -128 30 -264 29 -88 0 -177 -6 -215
-15z"/>
<path d="M1376 2730 c-3 -19 -6 -207 -6 -417 l0 -383 -32 4 c-18 3 -250 5
-515 5 l-483 1 0 410 0 410 -135 0 -135 0 0 -990 0 -990 135 0 135 0 0 455 0
455 515 0 515 0 0 -439 c0 -242 3 -446 6 -455 5 -13 27 -16 135 -16 l129 0 0
989 0 990 -129 3 -129 3 -6 -35z"/>
<path d="M17498 2289 l-3 -192 -145 -1 -145 -1 -1 -100 c-1 -65 2 -103 10
-107 6 -4 73 -8 149 -8 l137 0 0 -408 c0 -372 2 -416 19 -485 27 -105 58 -148
134 -185 107 -54 262 -65 402 -30 l50 13 3 113 3 114 -23 -8 c-82 -26 -192
-32 -246 -13 -41 14 -68 59 -81 134 -6 33 -11 215 -12 405 l-2 345 182 3 182
2 -3 108 c-2 77 -7 107 -15 108 -7 1 -87 2 -178 3 l-165 1 0 190 0 190 -125 0
-125 0 -2 -191z"/>
<path d="M2610 2123 c-161 -28 -335 -133 -434 -262 -91 -118 -135 -235 -143
-376 -16 -290 126 -533 388 -666 159 -80 405 -88 582 -18 127 50 291 196 354
314 17 33 42 98 54 145 28 110 23 288 -11 390 -49 146 -137 269 -247 343 -76
53 -214 112 -293 127 -52 10 -200 12 -250 3z m265 -240 c159 -50 263 -183 286
-366 21 -160 -16 -298 -106 -396 -138 -148 -357 -184 -538 -88 -76 40 -160
132 -188 206 -44 115 -45 274 -4 391 77 219 312 327 550 253z"/>
<path d="M4265 2102 c-132 -47 -186 -83 -231 -154 -14 -21 -29 -36 -34 -33 -6
3 -10 46 -10 96 l0 89 -115 0 -115 0 0 -660 0 -660 125 0 125 0 0 393 c0 432
3 463 61 564 83 145 258 207 407 143 68 -29 106 -74 133 -157 22 -65 23 -85
27 -506 l4 -437 121 0 122 0 2 388 c1 213 5 412 9 442 14 126 108 256 200 279
27 7 85 12 130 13 171 0 257 -84 283 -275 6 -44 11 -246 11 -463 l0 -384 123
0 122 0 -6 467 c-3 273 -10 483 -16 503 -33 112 -50 153 -83 201 -78 114 -190
167 -370 176 -115 6 -181 -7 -270 -52 -53 -27 -133 -105 -150 -146 -7 -16 -15
-29 -19 -29 -3 0 -39 33 -79 74 -48 49 -97 87 -145 112 -68 36 -78 38 -177 41
-94 3 -113 0 -185 -25z"/>
<path d="M6625 2121 c-211 -46 -392 -183 -479 -363 -58 -121 -70 -185 -63
-351 8 -213 58 -338 187 -467 152 -152 346 -215 574 -185 133 18 188 32 261
67 100 49 225 159 225 200 0 3 -24 23 -52 44 -29 21 -67 51 -85 67 l-32 30
-76 -71 c-81 -76 -137 -104 -248 -125 -127 -24 -289 35 -399 144 -57 56 -79
102 -95 202 l-6 37 531 0 c292 0 533 3 535 8 8 15 -12 230 -28 301 -49 212
-200 379 -400 443 -68 22 -283 33 -350 19z m215 -192 c36 -5 84 -19 106 -30
50 -24 119 -91 144 -140 23 -44 50 -146 50 -188 l0 -31 -401 0 -401 0 6 48
c11 73 68 185 121 235 105 101 215 132 375 106z"/>
<path d="M10210 2124 c-122 -24 -274 -103 -366 -190 -147 -141 -221 -325 -211
-524 9 -178 68 -321 177 -431 109 -109 221 -177 336 -204 275 -64 525 8 714
205 116 122 171 263 171 446 1 132 -18 219 -68 319 -87 174 -213 281 -414 351
-60 21 -96 27 -194 29 -66 2 -131 1 -145 -1z m200 -224 c124 -20 247 -105 303
-209 75 -137 75 -355 0 -494 -33 -60 -125 -146 -187 -175 -73 -35 -172 -48
-261 -35 -166 24 -292 127 -344 281 -31 90 -29 262 2 352 32 89 68 142 129
191 106 84 216 111 358 89z"/>
<path d="M11872 2106 c-41 -13 -90 -36 -110 -49 -54 -37 -132 -115 -132 -132
0 -8 -4 -15 -10 -15 -5 0 -11 42 -12 93 l-3 92 -120 0 -120 0 -3 -657 -2 -658
124 0 125 0 3 418 c4 417 4 417 28 472 63 143 155 216 295 234 144 19 285 -60
330 -185 17 -50 19 -90 23 -496 l3 -443 125 0 124 0 0 373 c-1 591 -12 683
-101 803 -80 109 -203 164 -379 170 -102 4 -123 2 -188 -20z"/>
<path d="M13433 2106 c-40 -13 -96 -38 -123 -56 -49 -32 -100 -86 -100 -107 0
-6 -6 -16 -14 -22 -17 -14 -26 24 -26 116 l0 64 -122 -3 -123 -3 -3 -657 -2
-658 125 0 125 0 0 358 c1 196 5 388 9 425 11 84 65 200 115 249 132 128 374
124 483 -8 69 -85 73 -120 73 -601 l0 -423 126 0 126 0 -5 488 c-3 418 -6 494
-20 537 -37 109 -92 187 -175 241 -85 57 -149 75 -282 80 -102 4 -123 2 -187
-20z"/>
<path d="M14970 2124 c-154 -30 -337 -140 -424 -255 -107 -141 -142 -263 -133
-458 11 -218 62 -346 189 -473 84 -84 182 -139 308 -173 123 -33 359 -14 493
41 107 43 257 168 257 214 0 9 -10 22 -22 27 -13 6 -47 32 -76 57 -42 36 -59
45 -80 41 -15 -2 -29 -10 -31 -16 -8 -26 -89 -91 -147 -119 -87 -42 -184 -57
-270 -41 -90 16 -195 72 -264 141 -49 48 -59 65 -78 130 -12 41 -22 83 -22 93
0 16 32 17 536 17 l537 0 -7 104 c-12 173 -43 286 -109 401 -40 70 -90 120
-176 176 -105 70 -178 91 -331 94 -69 2 -136 1 -150 -1z m241 -200 c60 -10
157 -79 197 -139 18 -27 38 -76 44 -107 6 -31 15 -55 20 -52 4 3 8 -13 8 -35
0 -34 -4 -42 -22 -46 -13 -3 -194 -4 -403 -3 l-380 3 3 46 c5 94 91 224 191
288 88 57 186 70 342 45z"/>
<path d="M16555 2124 c-162 -39 -273 -96 -368 -186 -120 -115 -185 -257 -188
-408 -1 -57 -3 -61 -10 -30 -5 23 -7 1 -4 -65 7 -206 66 -361 182 -480 124
-126 204 -163 434 -201 182 -29 354 17 516 139 49 37 51 40 40 65 -7 15 -45
59 -86 99 l-74 72 -26 -28 c-37 -39 -96 -74 -169 -101 -112 -41 -272 -15 -374
60 -68 51 -119 118 -147 193 -17 46 -21 83 -22 180 -2 175 29 268 122 358 146
142 383 156 537 32 31 -26 60 -51 63 -56 10 -14 20 -7 97 64 90 83 96 104 45
145 -54 44 -137 89 -218 120 -59 21 -91 26 -200 29 -71 2 -139 2 -150 -1z
m-308 -746 c-2 -13 -4 -5 -4 17 -1 22 1 32 4 23 2 -10 2 -28 0 -40z"/>
</g>
</svg>
