<?xml version="1.0" standalone="no"?>
<!DOCTYPE svg PUBLIC "-//W3C//DTD SVG 20010904//EN"
 "http://www.w3.org/TR/2001/REC-SVG-20010904/DTD/svg10.dtd">
<svg version="1.0" xmlns="http://www.w3.org/2000/svg"
 width="417.000000pt" height="396.000000pt" viewBox="0 0 417.000000 396.000000"
 preserveAspectRatio="xMidYMid meet">

<g transform="translate(0.000000,396.000000) scale(0.100000,-0.100000)"
fill="#000000" stroke="none">
<path d="M2210 3881 c-78 -25 -139 -73 -173 -136 -29 -54 -28 -154 1 -211 23
-44 83 -104 132 -129 30 -16 31 -18 26 -68 -4 -29 -16 -185 -27 -347 -11 -162
-22 -297 -24 -298 -2 -2 -84 10 -182 28 -191 34 -404 69 -415 70 -4 0 -16 21
-28 47 -48 109 -119 144 -220 108 -23 -8 -48 -12 -54 -7 -7 4 -49 48 -93 97
-44 50 -106 117 -138 149 l-57 59 17 58 c28 91 3 169 -69 216 -128 84 -294
-32 -270 -189 5 -33 17 -53 49 -84 56 -54 127 -69 185 -39 16 8 35 12 43 10 7
-3 62 -60 123 -127 60 -67 125 -139 145 -161 36 -38 37 -39 21 -69 -26 -53
-28 -122 -3 -161 25 -41 26 -55 6 -76 -19 -20 -97 -141 -181 -281 -35 -58 -67
-110 -71 -117 -6 -10 -21 -9 -68 3 -37 9 -80 12 -111 9 -61 -7 -160 -52 -193
-89 -29 -31 -41 -29 -128 26 l-63 40 0 61 c-1 116 -60 192 -158 204 -40 4 -59
1 -95 -17 -67 -34 -91 -71 -95 -153 -4 -60 -1 -72 22 -106 56 -80 146 -102
236 -56 27 14 54 25 60 25 5 0 32 -16 58 -34 26 -19 61 -40 76 -46 21 -8 26
-15 21 -28 -15 -39 -35 -128 -35 -158 0 -49 37 -144 80 -206 37 -52 51 -86 32
-74 -5 3 -27 -23 -50 -57 -23 -34 -52 -75 -64 -90 l-23 -28 -72 13 c-69 11
-74 11 -123 -12 -171 -80 -213 -273 -87 -400 104 -105 238 -107 345 -6 87 81
105 218 41 307 -10 15 -19 34 -19 43 0 23 129 189 154 199 12 5 29 3 43 -4 24
-13 142 -5 174 11 10 6 30 10 46 10 23 0 33 -9 54 -48 38 -68 264 -413 285
-434 17 -17 16 -19 -4 -40 -30 -33 -46 -104 -37 -163 5 -40 15 -57 46 -87 43
-41 84 -53 158 -46 91 9 144 71 144 168 0 67 -19 107 -70 146 -34 26 -46 29
-109 29 -77 0 -95 9 -120 58 -22 41 -266 419 -281 435 -17 18 -18 17 21 59 55
62 79 117 84 198 5 86 -15 160 -61 220 -17 22 -34 45 -38 51 -9 11 28 79 144
267 37 59 76 125 87 147 15 28 24 37 38 33 41 -10 134 16 176 50 22 18 46 36
52 40 6 4 117 -11 245 -32 129 -22 263 -43 298 -47 l64 -7 -6 -86 c-4 -47 -14
-219 -22 -381 -9 -162 -18 -305 -20 -317 -4 -16 -15 -23 -47 -28 -24 -4 -67
-18 -96 -32 l-52 -26 -36 34 c-33 32 -35 37 -28 74 4 22 8 72 8 110 1 59 -3
75 -23 103 -32 41 -95 72 -150 72 -140 0 -222 -173 -136 -286 49 -64 132 -88
218 -62 36 11 41 10 51 -6 6 -11 19 -26 29 -35 24 -22 21 -65 -7 -109 -14 -20
-32 -64 -42 -97 -29 -104 6 -224 95 -319 40 -42 141 -96 182 -96 15 0 32 -6
38 -14 8 -9 11 -92 9 -282 l-3 -268 -40 -16 c-63 -23 -103 -57 -135 -113 -54
-94 -36 -211 44 -295 50 -52 91 -65 188 -61 61 4 82 9 116 32 84 55 123 156
101 259 -11 53 -20 70 -63 114 -40 41 -63 55 -108 68 l-58 17 0 279 0 279 43
12 c96 25 176 89 221 177 15 29 21 32 59 32 23 -1 71 -7 107 -15 36 -8 112
-25 170 -36 58 -12 146 -29 195 -39 50 -10 137 -27 195 -39 58 -11 190 -38
294 -59 l190 -38 11 -50 c16 -73 58 -138 113 -176 40 -28 57 -33 120 -36 63
-4 79 -1 128 23 134 66 183 244 101 366 -29 44 -99 96 -146 110 -92 27 -216
-20 -270 -103 -21 -32 -30 -38 -61 -38 -19 0 -238 41 -485 90 -248 50 -500
100 -562 112 -124 24 -123 22 -123 111 0 26 5 47 10 47 6 0 143 56 304 125
162 69 302 125 311 125 9 0 37 -22 61 -49 68 -76 136 -105 257 -109 93 -4 101
-3 162 27 144 71 222 223 197 384 -17 108 -59 175 -157 247 -46 34 -51 41 -47
69 2 17 8 28 13 26 7 -5 29 54 29 79 0 26 57 155 66 152 25 -10 95 18 128 50
77 75 69 186 -19 263 -30 26 -43 31 -88 31 -59 0 -121 -25 -155 -63 -18 -18
-25 -41 -29 -86 -7 -74 13 -126 63 -166 36 -29 45 -66 21 -90 -7 -7 -19 -39
-26 -71 -7 -33 -16 -68 -21 -79 -5 -11 -14 -33 -20 -49 -9 -23 -14 -27 -33
-21 -82 27 -174 11 -272 -46 l-68 -40 -39 38 c-21 20 -38 42 -38 48 1 5 9 28
20 50 24 49 26 150 6 200 -59 139 -198 196 -324 131 -36 -18 -67 -46 -99 -87
-27 -34 -52 -58 -60 -55 -7 3 -90 17 -185 32 -95 14 -174 27 -174 28 -1 0 4
82 11 181 7 99 19 261 26 361 l12 180 49 18 c94 33 167 134 168 231 0 59 -34
137 -76 177 -60 55 -158 86 -214 69z m122 -109 c37 -22 68 -82 68 -132 0 -59
-32 -108 -88 -132 -64 -29 -120 -18 -172 31 -39 37 -40 40 -40 104 0 60 3 70
30 101 48 55 136 67 202 28z m-1483 -321 c50 -26 67 -65 46 -107 -19 -40 -43
-61 -77 -69 -39 -10 -98 48 -98 97 0 40 8 54 46 78 37 24 38 24 83 1z m2857
-552 c7 -5 19 -25 28 -44 16 -33 16 -37 -3 -74 -31 -59 -110 -66 -151 -13 -31
38 -26 78 15 119 30 30 40 34 67 29 17 -3 37 -11 44 -17z m-2291 -55 c21 -14
25 -24 25 -65 0 -69 -25 -93 -88 -86 -57 6 -82 33 -82 87 0 30 6 43 26 59 32
25 85 27 119 5z m1508 -180 c40 -19 76 -69 84 -117 4 -25 -2 -50 -20 -90 -20
-45 -32 -58 -71 -76 -51 -25 -83 -23 -148 10 -45 23 -70 66 -72 128 -3 114
122 195 227 145z m-528 -101 c161 -29 205 -41 209 -56 2 -7 9 -31 15 -54 26
-95 120 -172 212 -173 58 0 136 26 150 51 12 23 29 25 29 4 0 -8 4 -15 10 -15
5 0 25 -16 44 -35 l35 -35 -32 -67 c-29 -62 -32 -77 -32 -168 -1 -96 -2 -100
-25 -112 -76 -39 -579 -245 -598 -245 -12 0 -41 17 -66 40 -49 45 -114 82
-146 82 -11 0 -23 7 -26 15 -3 8 1 117 10 242 9 126 21 296 27 378 12 176 15
189 37 179 10 -4 76 -18 147 -31z m-2114 -201 c18 -15 22 -28 21 -68 0 -60
-25 -84 -86 -84 -60 1 -78 19 -84 84 -4 51 -3 55 24 70 40 21 97 20 125 -2z
m3219 -93 c55 -25 105 -71 133 -124 31 -57 31 -193 0 -251 -69 -130 -232 -189
-358 -130 -60 28 -127 98 -146 152 -21 61 -17 181 8 229 49 94 137 145 248
145 49 0 84 -7 115 -21z m-2614 -138 c22 -10 57 -33 78 -51 133 -117 90 -335
-76 -385 -65 -19 -103 -19 -160 0 -129 45 -188 203 -121 326 30 57 71 90 133
112 59 21 96 20 146 -2z m846 -118 c40 -35 29 -116 -21 -146 -42 -24 -68 -21
-102 12 -23 24 -29 38 -29 74 0 48 11 63 57 77 34 9 72 3 95 -17z m484 -321
c47 -24 85 -65 116 -126 30 -57 30 -156 1 -211 -47 -89 -137 -144 -236 -145
-69 0 -120 19 -165 63 -56 53 -75 101 -76 192 -1 71 2 86 27 127 36 62 119
118 192 130 34 6 98 -8 141 -30z m-1778 -322 c103 -63 96 -220 -13 -275 -22
-11 -41 -23 -43 -27 -11 -24 -116 25 -157 73 -25 30 -27 39 -23 100 4 73 17
96 73 130 41 26 120 25 163 -1z m3535 -125 c29 -19 70 -94 70 -130 0 -35 -44
-116 -75 -139 -37 -27 -125 -33 -169 -12 -107 51 -111 237 -6 290 40 21 142
16 180 -9z m-2474 -231 c23 -30 27 -78 9 -99 -7 -8 -19 -21 -26 -30 -19 -23
-97 -20 -122 5 -25 25 -27 95 -4 128 12 18 25 22 69 22 46 0 56 -4 74 -26z
m729 -581 c85 -69 77 -210 -16 -257 -116 -58 -232 9 -232 134 0 136 144 207
248 123z"/>
</g>
</svg>
