<svg width="200" height="200" viewBox="0 0 200 200" fill="none" xmlns="http://www.w3.org/2000/svg">
<path d="M6.0031 104.314C5.3851 104.329 5.2041 103.61 5.5631 103.487C6.0121 103.333 40.1821 97.8228 51.7261 95.9938C111.727 86.4868 193.87 77.3368 194.466 77.5008C194.759 77.5818 194.616 77.9678 194.203 78.0338C188.917 78.8848 168.039 81.5328 167.697 81.5708C105.211 88.5388 6.0261 104.309 6.0031 104.314Z" fill="black"/>
<path d="M24.3259 137.385C24.4139 136.462 24.5039 136.176 24.4669 134.199C24.3329 126.949 29.1499 126.576 39.7549 122.919C65.9619 113.881 56.0189 117.875 82.8289 109.931C82.8499 109.925 101.308 104.874 101.331 104.868C138.391 94.9508 137.141 93.8118 148.669 103.18C151.723 105.661 169.078 122.545 173.639 127.963C177.93 133.061 180.169 135.576 179.978 138.5C179.82 140.917 179.64 144.082 178.563 146.468C177.738 148.295 177.091 149.031 161.632 156.188C158.405 157.682 148.631 162.21 144.335 163.762C124.65 170.875 81.1849 186.032 60.7569 190.595C53.4859 192.219 51.3469 191.17 45.9309 183.64C37.7499 172.265 28.5349 152.551 25.1699 142.429C24.8049 141.33 24.3339 138.851 24.3259 137.385ZM135.47 97.5918C135.47 97.6688 134.57 97.5248 133.871 97.6278C127.813 98.5228 70.6799 113.965 48.3549 121.099C28.2649 127.519 23.8509 128.603 26.1489 134.807C28.6859 141.659 36.3029 159.212 40.4109 166.334C50.2699 183.426 53.7499 185.219 62.7819 183.362C86.0199 178.584 169.145 150.561 177.209 141.303C181.011 136.938 178.641 134.801 167.647 123.235C158.897 114.03 149.816 105.312 147.51 103.437C143.699 100.338 139.999 97.5918 135.47 97.5918ZM146.244 159.156C146.229 160.423 147.029 160.152 148.129 159.757C154.136 157.597 155.067 156.966 155.079 156.245C155.11 154.488 154.581 154.815 149.4 156.957C146.602 158.113 146.256 158.094 146.243 159.156H146.244ZM157.877 154.377C157.877 155.317 158.33 155.527 158.95 155.277C160.215 154.766 160.972 154.489 165.336 152.4C166.439 151.872 166.643 151.323 166.501 150.632C166.372 150.006 166.18 149.899 165.567 150.106C164.968 150.309 164.368 150.522 163.793 150.784C158.035 153.4 157.813 153.325 157.877 154.377Z" fill="black"/>
<path d="M162.838 125.11C164.551 125.267 165.33 125.84 169.109 130.149C170.192 131.384 171.943 133.06 172.787 135.475C173.306 136.96 172.355 138.567 171.235 139.318C156.992 148.865 99.9758 168.062 86.3728 171.986C59.3838 179.77 55.7158 184.886 43.4798 163.121C37.9448 153.275 31.2888 137.871 31.0198 137.2C29.5898 133.632 30.3368 131.243 34.2318 129.611C35.0418 129.272 39.3358 126.894 53.4628 122.904C94.9208 111.196 129.93 99.0197 137.973 101.247C139.456 101.658 143.337 103.782 146.236 106.716C146.43 106.913 146.433 107.164 146.531 107.383C146.554 107.434 146.471 107.537 146.428 107.612C144.896 110.277 144.519 109.949 147.813 113.329C147.834 113.351 154.859 120.632 158.82 124.644C159.558 125.391 159.986 124.848 162.838 125.11ZM159.872 126.212C157.425 126.192 156.768 124.086 148.32 115.564C143.263 110.463 143.642 110.055 145.289 107.372C145.347 107.278 145.407 107.212 145.283 107.107C137.383 100.441 135.813 101.228 126.554 103.435C121.399 104.664 116.458 105.536 93.6118 112.347C31.6438 130.822 28.8098 129.579 32.2058 137.738C32.2148 137.759 40.0578 154.92 44.1468 162.15C47.9058 168.797 54.3088 177.506 60.4078 177.419C71.4018 177.261 157.886 148.124 171.171 138.057C172.344 137.168 172.128 135.77 171.289 134.56C170.485 133.402 167.863 130.332 167.594 130.033C163.658 125.67 164.356 126.247 159.872 126.212Z" fill="black"/>
<path d="M157.146 118.043C156.832 118.383 156.539 118.699 155.821 118.336C155.28 118.062 149.743 112.685 149.242 111.941C148.843 111.349 149.597 110.689 149.977 110.958C151.398 111.964 156.503 116.744 157.146 118.043Z" fill="black"/>
<path d="M160.652 121.236C160.467 122.211 158.193 121.922 157.863 120.868C157.351 119.235 160.965 119.59 160.652 121.236Z" fill="black"/>
<path d="M167.853 138.206C166.93 138.255 166.646 137.635 165.282 135.596C165.082 135.296 164.925 134.975 165.124 134.611C165.19 134.491 165.261 134.346 165.37 134.28C165.978 133.909 167.045 133.323 167.608 133.763C168.242 134.259 170.09 136.443 169.634 137.101C169.2 137.727 168.612 138.112 167.854 138.206H167.853ZM168.892 136.716C168.828 136.492 168.956 136.675 168.259 135.697C168.095 135.466 167.976 135.664 166.861 136.342C166.724 136.425 166.747 136.398 167.346 137.336C167.544 137.646 167.67 137.625 168.707 136.979C168.797 136.923 168.841 136.791 168.892 136.716Z" fill="black"/>
<path d="M165.545 130.778C166.246 130.752 166.825 131.644 166.562 131.892C166.346 132.095 164.534 132.899 164.288 133.003C163.927 133.156 163.692 133.306 163.258 132.599C163.047 132.255 163.06 131.98 163.628 131.697C165.531 130.75 165.254 130.885 165.545 130.778Z" fill="black"/>
<path d="M141.514 106.485C141.747 107.045 140.779 107.523 140.135 107.643C138.226 107.999 138.353 106.054 140.274 106.027C140.89 106.018 141.298 105.968 141.514 106.485Z" fill="black"/>
<path d="M142.254 107.428C142.622 107.428 142.855 107.377 142.983 107.772C143.131 108.227 143.131 108.196 142.844 108.507C142.481 108.901 142.004 109.07 141.485 109.12C140.261 109.239 140.258 107.253 142.254 107.428Z" fill="black"/>
<path d="M161.935 130.881C161.52 130.362 161.723 130.318 163.474 129.539C163.647 129.462 164.015 129.768 164.124 129.896C164.614 130.474 164.083 130.658 162.927 131.251C162.557 131.441 162.207 131.221 161.935 130.881Z" fill="black"/>
<path d="M162.711 128.857C162.452 129.197 162.713 129.153 161.367 129.78C161.207 129.855 160.987 129.637 160.884 129.526C160.496 129.108 160.502 128.997 160.978 128.684C161.241 128.511 161.521 128.353 161.812 128.237C162.145 128.105 162.68 128.449 162.712 128.857H162.711Z" fill="black"/>
<path d="M136.917 103.155C137.729 103.822 136.321 104.074 135.312 104.392C134.731 104.576 134.154 103.95 136.917 103.155Z" fill="black"/>
<path d="M136.316 105.181C136.245 105.117 135.938 104.98 136.203 104.707C136.389 104.515 136.585 104.416 137.8 104.074C138.287 103.937 138.366 104.524 138.031 104.643C136.337 105.24 136.507 105.173 136.317 105.182L136.316 105.181Z" fill="black"/>
<path d="M139.469 105.628C139.236 105.686 139.093 105.47 138.909 105.348C138.87 105.322 138.868 105.173 138.903 105.115C139.112 104.767 140.007 104.536 139.933 105.277C139.908 105.529 139.792 105.623 139.469 105.628Z" fill="black"/>
<path d="M137.956 106.261C137.315 106.25 137.345 105.443 137.881 105.419C138.116 105.409 138.445 105.682 138.439 105.883C138.432 106.09 138.21 106.266 137.956 106.261Z" fill="black"/>
<path d="M100.235 56.6345C100.235 58.2435 100.117 58.1125 100.857 58.3205C102.233 58.7085 121.276 135.331 122.995 143.226C123.068 143.559 123.162 143.509 124.066 143.647C124.431 143.703 124.763 143.873 125.115 143.957C125.784 144.116 126.243 144.528 126.57 145.092C127.187 146.157 126.912 146.535 126.771 147.757C126.377 151.179 121.293 151.412 119.216 150.307C117.372 149.326 117.688 147.717 117.468 147.184C117.635 145.382 118.004 144.987 118.626 144.309C119.019 143.881 118.953 144.249 105.394 136.455C99.717 133.191 98.716 132.641 97.702 132.024C97.3 131.78 97.332 131.885 95.186 133.219C78.555 143.553 81.763 141.526 77.648 144.166C77.171 144.472 78.598 144.843 78.918 146.474C79.034 147.066 78.941 147.604 78.647 148.658C77.778 151.769 72.724 152.016 70.115 150.549C67.18 148.9 68.461 143.513 72.13 143.582C72.91 143.597 72.796 143.723 83.323 95.3736C83.33 95.3415 91.906 59.2215 92.573 58.5745C93.708 57.4715 92.22 54.7235 94.279 53.6185C94.625 53.4325 94.984 53.3005 95.388 53.2895C96.658 53.2535 100.044 52.6905 100.235 55.4585C100.244 55.5885 100.256 56.6345 100.235 56.6345ZM97.333 111.937C95.94 112.604 90.284 115.73 83.909 119.061C80.797 120.687 80.754 120.125 82.355 120.938C86.814 123.201 87.857 123.682 95.86 128.352C97.431 129.269 97.437 129.373 97.717 129.2C102.386 126.329 113.11 120.314 113.623 119.978C113.942 119.769 113.988 120.068 104.373 115.364C97.341 111.923 97.993 112.207 97.333 111.938V111.937ZM115.083 120.956C113.459 122.168 99.117 130.313 99.72 130.676C115.136 139.961 120.452 142.838 120.516 142.809C120.879 142.647 115.416 121.174 115.083 120.956ZM75.024 142.839C75.148 143.264 73.391 143.863 94.969 130.851C95.437 130.569 95.608 130.835 85.706 125.219C79.382 121.632 79.76 121.436 79.628 122.015C76.67 134.996 79.652 122.03 75.024 142.838V142.839ZM109.058 103.539C108.205 102.947 102.01 99.8596 98.184 97.6076C97.254 97.0606 97.469 97.0476 91.204 100.694C91.182 100.707 85.81 103.748 85.639 103.902C86.088 104.285 86.878 104.454 91.95 106.764C98.601 109.793 96.639 109.777 98.92 108.647C103.021 106.614 108.665 103.872 109.058 103.539ZM114.493 118.299C114.487 118.275 110.956 104.65 110.949 104.629C110.844 104.273 111.345 104.525 101.925 109.414C99.779 110.528 99.668 110.569 99.942 110.737C99.963 110.75 114.392 118.299 114.493 118.299ZM94.79 110.716C94.266 110.286 89.239 108.093 83.721 105.202C83.432 105.051 83.755 104.101 80.923 116.286C80.876 116.487 80.468 118.289 80.459 118.592C80.653 118.56 94.778 110.738 94.79 110.716ZM106.212 90.5505C106.148 90.4755 98.28 86.4235 96.834 85.6835C96.616 85.5725 96.426 85.4865 96.184 85.6455C95.942 85.8045 88.881 90.1016 88.857 90.1255C89.383 90.4265 92.486 91.8925 97.485 94.7275C97.915 94.9715 97.617 94.9816 104.091 91.6776C104.711 91.3615 106.044 90.6436 106.211 90.5516L106.212 90.5505ZM84.177 102.599C88.464 99.7345 90.057 98.9405 95.041 96.2955C95.582 96.0085 95.516 96.1855 92.169 94.3545C86.247 91.1155 86.711 91.1505 86.582 91.7295C84.166 102.594 84.058 102.111 84.178 102.598L84.177 102.599ZM96.84 83.0465C97.169 82.8945 103.69 79.3535 103.953 79.1245C103.701 78.9445 100.059 77.0475 100.038 77.0345C97.621 75.7735 97.589 75.6885 97.279 75.8915C96.942 76.1125 90.414 79.5415 90.331 79.6105C90.453 79.6955 96.713 82.9915 96.841 83.0475L96.84 83.0465ZM110.206 101.834C110.161 101.483 107.817 92.4445 107.723 92.1045C107.556 91.5015 108.258 91.3785 100.332 95.7955C99.531 96.2425 99.034 95.6045 105.936 99.5335C110.153 101.935 109.916 101.949 110.206 101.834ZM106.836 88.7295C104.603 79.8945 104.883 80.5755 104.481 80.7855C104.231 80.9155 104.355 80.8585 101.585 82.4635C98.815 84.0685 98.584 84.0725 98.918 84.2675C106.77 88.8465 106.638 88.8345 106.837 88.7305L106.836 88.7295ZM87.304 88.5845C87.422 88.9006 86.815 89.1225 92.752 85.4765C94.293 84.5305 94.579 84.5175 94.203 84.3095C93.476 83.9085 94.186 84.3326 89.236 81.5415C88.907 81.3555 89.059 80.6175 87.304 88.5845ZM101.51 71.9416C101.213 71.6746 100.811 71.4775 99.024 70.3085C97.218 69.1265 97.186 68.8515 96.679 69.1335C92.909 71.2295 92.964 70.8545 93.238 71.1555C93.257 71.1765 95.19 72.2215 97.468 73.4955C97.823 73.6945 97.763 73.7226 101.51 71.9416ZM89.772 77.6825C89.922 78.1095 89.446 77.7416 95.096 74.9556C95.816 74.6006 95.817 74.9095 91.356 72.2066C90.971 71.9736 91.07 71.6055 89.772 77.6825ZM76.72 145.562C76.145 145.064 75.931 145.374 74.525 146.297C73.852 146.739 72.482 146.784 72.366 145.85C72.251 144.916 72.315 144.773 72.107 144.801C70.523 145.014 69.859 146.299 70.331 146.859C72.323 149.221 78.896 147.445 76.72 145.562ZM100.055 65.4966C96.55 62.9806 96.5 62.6145 96.101 62.8715C93.891 64.2935 93.748 64.3076 93.962 64.4576C97.373 66.8505 97.181 66.8475 97.518 66.6825C98.499 66.2045 99.736 65.6976 100.055 65.4966ZM121.978 147.618C123.258 147.582 123.793 147.191 124.028 147.139C124.89 146.95 125.607 145.953 124.84 145.239C124.462 144.887 123.968 144.907 123.523 144.775C123.408 144.741 123.316 144.818 123.335 144.957C123.401 145.432 122.581 146.201 121.747 145.748C120.108 144.857 120.067 144.803 119.808 144.985C119.329 145.322 118.831 146.096 119.237 146.607C119.985 147.549 120.781 147.473 121.978 147.618ZM102.752 72.8565C102.534 72.9745 102.708 72.8715 100.016 74.4296C99.776 74.5686 99.501 74.6906 99.742 74.8296C103.855 77.1836 103.446 77.0805 103.865 77.1715C103.861 76.9725 102.943 73.1705 102.752 72.8565ZM92.277 69.2555C95.017 67.7445 94.906 67.8446 95.028 67.7635C95.291 67.5885 95.113 67.5665 92.769 65.7565C92.453 65.5125 92.509 65.7185 92.032 67.8125C91.464 70.3065 91.501 69.6825 92.277 69.2555ZM96.539 54.2515C96.539 54.3115 94.229 54.0395 94.169 55.0125C94.109 55.9855 98.204 55.9485 98.959 55.2495C99.778 54.4915 97.759 54.2515 96.539 54.2515ZM101.151 66.4406C100.901 66.5516 100.542 66.7635 100.386 66.8635C98.679 67.9625 98.734 67.8896 99.031 68.1245C102.168 70.6105 101.912 70.4545 102.216 70.5865C102.205 70.1565 101.396 66.8376 101.151 66.4406ZM100.561 63.8055C99.713 60.3705 99.815 60.3595 99.46 60.5975C97.8 61.7095 97.825 61.6235 98.06 61.8265C100.476 63.9075 100.373 63.8865 100.561 63.8055ZM93.217 62.4565C93.302 62.6505 93.163 62.7645 94.585 61.7085C94.812 61.5405 94.732 61.5105 93.831 60.8405C93.504 60.5975 93.531 60.9605 93.217 62.4565Z" fill="black"/>
<path d="M167.766 49.3002C164.96 45.1472 163.497 47.3122 166.984 44.6812C167.309 44.4362 167.2 43.8922 166.672 44.0082C166.484 44.0492 166.371 44.1172 164.616 44.9952C164.407 45.1002 164.077 45.3412 164.065 45.0402C163.884 40.7512 164.212 39.1802 163.353 39.2972C162.964 39.3502 162.975 39.7502 162.975 40.0152C162.971 44.3772 163.046 44.2572 162.951 44.7022C162.558 44.4902 162.047 44.0262 160.912 43.4922C160.502 43.2992 159.549 43.0432 159.459 43.4622C159.376 43.8492 159.515 43.8662 159.876 44.1012C162.986 46.1252 162.851 45.8982 162.366 46.1912C161.746 46.5652 161.06 46.8962 160.507 47.2212C159.697 47.6972 160.18 48.6722 161.058 48.3242C161.543 48.1322 162.451 47.6462 162.913 47.4072C163.334 47.1892 163.054 50.2032 163.597 50.8102C163.969 50.4592 163.995 47.6342 164.108 47.1362C164.647 47.3352 166.652 49.2932 167.613 49.5512C167.739 49.5852 167.842 49.4102 167.767 49.2992L167.766 49.3002Z" fill="black"/>
<path d="M132.568 71.2822C129.214 72.8892 129.377 72.9282 129.428 72.4702C129.69 70.1492 130.131 68.4542 129.87 67.9652C129.682 67.6102 129.218 67.5742 129.015 67.9122C128.723 68.3992 128.349 71.5632 128.175 72.3702C128.052 72.9432 127.123 71.4802 125.873 71.1692C125.428 71.0582 125.022 71.7402 125.721 72.2802C128.032 74.0682 127.919 73.3782 125.65 74.5432C125.088 74.8322 124.674 75.2592 124.987 75.8102C125.18 76.1502 125.682 75.8782 125.906 75.7862C127.808 75.0082 127.831 74.9272 127.832 75.1622C127.838 77.1692 127.7 77.7452 128.052 77.7632C128.385 77.7802 128.407 77.5562 128.888 75.6412C128.944 75.4192 128.978 75.1922 129.023 74.9682C130.284 75.7822 130.485 76.1802 130.808 75.9512C131.082 75.7572 130.843 75.4502 130.306 74.7502C129.866 74.1772 129.635 74.1222 129.93 74.0082C130.189 73.9082 131.84 73.0372 133.061 72.1102C133.303 71.9272 133.334 71.6362 133.153 71.3662C133.003 71.1422 132.89 71.1262 132.567 71.2812L132.568 71.2822Z" fill="black"/>
<path d="M33.1249 31.685C31.4819 32.425 31.3089 32.715 31.3359 32.363C31.4679 30.614 31.4899 30.615 31.4429 30.613C31.4429 29.794 31.5799 29.09 30.9829 29.042C30.3969 28.995 30.3109 29.578 30.2649 30.188C30.0919 32.455 30.2309 32.501 29.8309 32.297C29.5919 32.175 29.6729 32.137 28.3089 31.545C27.7869 31.319 27.4759 31.838 27.8049 32.261C28.0999 32.641 28.3499 32.755 29.3569 33.454C29.6009 33.623 29.4189 33.587 28.8079 33.984C27.8379 34.615 27.5269 34.764 27.4059 35.288C27.3089 35.705 27.6429 36.105 28.3209 35.75C29.9969 34.872 30.0079 34.666 30.0269 35.246C30.0399 35.654 30.0049 36.118 30.1659 36.56C30.2299 36.735 30.4949 36.821 30.6469 36.584C30.8029 36.34 31.0749 34.889 31.1109 34.69C31.1669 34.382 31.2239 34.662 32.6949 35.126C32.8719 35.182 33.1259 35.263 33.2569 35.006C33.5699 34.392 31.7749 33.853 32.3039 33.482C33.0039 32.99 32.7449 33.279 34.7579 31.531C34.9139 31.396 35.0789 30.809 33.1269 31.687L33.1249 31.685Z" fill="black"/>
<path d="M49.6822 80.2574C49.4402 80.3344 49.3392 80.4254 47.3952 81.5974C47.0192 81.8244 47.1892 81.7924 47.1282 78.8254C47.1082 77.8684 47.0722 77.2454 46.5572 77.2374C45.9652 77.2284 46.0632 77.6754 45.9142 79.4794C45.9742 79.4834 45.9572 79.4794 45.9572 80.4964C45.9572 80.7934 45.9982 81.0774 45.7542 80.9134C44.3202 79.9464 43.8772 80.7434 44.3222 81.2104C44.6512 81.5554 45.1402 81.8804 45.8462 82.3624C46.1192 82.5484 45.7672 82.5724 45.0662 83.1494C43.8462 84.1524 43.6842 84.2734 43.7132 84.6904C43.7482 85.1864 44.2192 85.1104 44.6062 84.8634C46.1242 83.8944 46.0822 83.6814 46.1732 84.1944C46.3622 85.2714 46.4232 85.5404 46.7522 85.6544C47.2052 85.8114 47.2552 84.9834 47.2332 84.9064C47.0862 84.3924 47.1952 83.8844 47.1562 83.3784C47.1282 83.0194 47.9642 84.0174 49.3942 84.2504C49.6592 84.2934 49.7442 84.0304 49.3582 83.6734C47.4282 81.8914 47.6432 82.9734 49.9522 80.6664C50.1792 80.4404 49.8922 80.1914 49.6832 80.2584L49.6822 80.2574Z" fill="black"/>
<path d="M133.258 25.6748C123.51 8.43384 99.9099 1.36384 81.1619 6.79384C65.2819 11.3938 55.6749 27.6868 57.3059 30.2208C57.5949 30.6698 57.6229 30.6648 63.2519 34.2598C66.8749 36.5738 64.2649 30.6308 74.2529 22.3788C91.5609 8.07884 117.937 16.4158 125.917 33.0098C126.915 35.0848 128.352 33.3888 130.598 31.7188C135.16 28.3278 135.133 28.9898 133.259 25.6748H133.258Z" fill="black"/>
<path d="M70.4861 37.3638C70.1311 38.0178 70.3621 38.8488 71.0051 39.2548C72.3801 40.1238 73.7431 41.0068 75.1111 41.8838C77.1291 43.1768 76.9641 39.5078 82.5421 35.0168C86.5921 31.7558 91.2131 30.1498 96.1501 30.2438C103.654 30.3868 109.086 34.6368 113.667 40.5838C115.74 43.2748 114.639 43.5918 120.709 39.0638C121.185 38.7088 121.919 37.9158 121.686 37.3708C113.338 17.8298 83.1041 14.0898 70.4861 37.3618V37.3638Z" fill="black"/>
<path d="M82.4512 44.539C81.9402 45.304 81.9302 46.284 82.7182 46.777C88.8282 50.593 86.7382 50.261 90.3102 47.431C93.9352 44.559 98.3762 44.963 101.625 47.303C105.025 49.752 104.444 51.103 106.338 49.718C110.529 46.653 111.254 46.433 110.446 45.272C102.946 34.498 89.7442 33.625 82.4522 44.539H82.4512Z" fill="black"/>
</svg>
