<svg width="245" height="231" viewBox="0 0 245 231" fill="none" xmlns="http://www.w3.org/2000/svg">
<path d="M177.172 56.5951C179.161 57.7766 180.737 59.4837 181.705 61.5038C183.002 64.3694 183.916 67.3763 184.424 70.4551C183.673 70.4738 182.927 70.5627 182.195 70.7207C182.109 70.7207 181.619 70.9633 181.533 71.2174C181.141 72.4979 180.842 73.8022 180.639 75.1213L156.139 75.2599C155.857 75.2599 155.894 75.5717 156.139 75.5833C156.139 75.5833 178.507 75.9067 180.639 75.9182C180.1 80.1224 180.553 84.7424 183.714 87.7223C186.69 90.4943 196.809 90.887 200.57 88.2421C203.693 86.036 204.465 79.6604 204.245 75.9182C204.98 75.9182 221.542 75.641 223.183 75.5833C223.229 75.5833 223.272 75.5662 223.304 75.5359C223.336 75.5056 223.355 75.4645 223.355 75.4216C223.355 75.3787 223.336 75.3376 223.304 75.3072C223.272 75.2769 223.229 75.2599 223.183 75.2599C220.39 75.2599 204.208 75.1444 204.208 75.1444C203.877 71.6794 202.983 71.3329 202.983 71.1712C202.973 71.0642 202.927 70.9631 202.852 70.8821C202.777 70.8012 202.677 70.7447 202.566 70.7207C201.501 70.5244 200.418 70.42 199.332 70.4089C201.047 67.8101 202.517 60.7415 205.212 56.006C209.206 48.949 224.237 55.6711 223.992 49.4341C223.698 42.5041 215.539 38.6117 206.78 42.2846C198.463 45.7496 196.294 61.9196 196.147 70.3627C193.636 70.3627 194.849 70.432 191.247 70.3627C194.396 66.4126 198.401 53.2456 197.703 44.0402C196.903 37.9312 194.176 32.1893 189.875 27.5584C186.102 23.5736 181.68 21.8873 178.348 25.0867C173.448 29.7067 177.956 34.8695 182.146 40.1017C186.752 45.8767 188.479 48.7526 189.104 56.9762C189.396 61.4379 189.306 65.9146 188.834 70.3627H187.474C188.528 67.1171 187.168 59.9677 186.176 56.6066C184.755 51.8596 182.329 47.0779 178.483 43.7861C173.939 40.0867 168.412 37.6232 162.497 36.6598C158.883 36.0823 155.796 36.3017 154.118 37.2488C153.5 37.5515 153.024 38.0587 152.78 38.6728C152.535 39.287 152.541 39.9646 152.795 40.5752C154.828 46.8469 169.21 51.9751 177.172 56.5951ZM207.025 43.0238C215.221 39.5588 222.767 43.1971 223.024 49.4803C223.22 54.2966 208.483 48.3253 204.465 55.7057C201.672 60.8108 200.435 67.9487 198.744 70.4204H197.875C199.1 65.3269 202.101 53.9963 205.629 49.9885C210.137 44.8025 217.989 47.8286 218.332 47.7478C218.467 47.7478 218.602 47.5399 218.197 47.4013C213.297 45.7265 208.312 45.7612 204.98 49.4803C200.974 53.9386 198.45 64.6801 197.397 70.4551H196.343C196.674 62.3701 199.075 46.3156 207.025 43.0238ZM189.728 56.9647C189.238 48.8104 187.646 45.8189 182.807 39.6397C178.838 34.6154 174.587 29.8222 178.973 25.6295C181.962 22.7651 185.857 24.4745 189.238 28.0781C193.378 32.5967 195.989 38.18 196.735 44.1095C197.532 53.465 193.489 66.8977 190.61 70.3742H189.961C191.271 65.0856 192.119 59.7045 192.497 54.2851C192.779 49.6651 192.693 46.4542 191.272 42.4348C190.104 39.3745 188.484 36.4853 186.458 33.8531C185.491 32.5548 184.426 31.3235 183.273 30.1687C183.243 30.135 183.201 30.1136 183.155 30.1093C183.109 30.105 183.063 30.118 183.028 30.1456C182.992 30.1731 182.969 30.213 182.965 30.2563C182.96 30.2996 182.974 30.3429 183.003 30.3766C183.31 30.6789 183.596 30.9991 183.861 31.3352C187.683 35.9552 191.456 42.7004 191.75 48.6602C192.044 54.62 190.782 64.5646 189.618 70.4551H189.275C189.816 65.9775 189.968 61.4656 189.728 56.9647ZM202.211 71.7025C204.232 73.4465 203.595 85.0312 199.933 87.6184C196.27 90.2056 186.727 89.5934 184.13 87.2257C180.039 83.5181 180.455 76.5766 181.852 71.4253C181.938 71.5332 182.058 71.6138 182.195 71.6563C183.136 71.8612 184.096 71.9849 185.061 72.0259C183.862 76.2174 184.072 80.6565 185.661 84.7309C185.72 84.8473 185.825 84.937 185.954 84.9803C186.082 85.0237 186.224 85.017 186.347 84.9619C186.471 84.9067 186.566 84.8076 186.612 84.6863C186.658 84.565 186.651 84.4315 186.592 84.3151C185.049 81.4045 184.632 74.9365 185.527 72.1067C189.349 72.2684 199.577 72.3377 202.211 71.7025ZM177.956 44.3752C186.262 51.3052 188.393 66.6551 187.107 70.3973H186.347C186.173 67.1879 185.581 64.0108 184.583 60.9379C181.937 52.8529 177.503 47.8864 170.704 44.1442C167.152 42.2288 163.352 40.7573 159.397 39.7667C159.352 39.756 159.304 39.7628 159.263 39.7855C159.223 39.8082 159.194 39.8451 159.183 39.888C159.172 39.9309 159.179 39.9763 159.203 40.0142C159.227 40.0521 159.266 40.0794 159.312 40.0901C163.928 41.4702 168.309 43.4696 172.321 46.0268C176.77 48.8191 180.243 52.7894 182.305 57.4382C184.261 61.5475 185.502 65.9272 185.98 70.4089H184.828C184.375 67.2387 183.503 64.1346 182.231 61.1689C181.238 59.0362 179.608 57.2223 177.54 55.9483C169.442 51.2474 155.49 46.0961 153.628 40.3211C151.9 35.0197 168.548 36.4288 177.956 44.3752ZM72.0303 103.846C55.7133 98.4985 41.0868 96.1076 31.985 93.9478C31.8723 93.9179 31.7544 93.9098 31.6382 93.924C31.5221 93.9381 31.4102 93.9742 31.3093 94.0301C31.2083 94.0861 31.1204 94.1606 31.0507 94.2493C30.981 94.3381 30.9311 94.4392 30.9039 94.5465C30.8766 94.6539 30.8727 94.7653 30.8922 94.8742C30.9118 94.983 30.9544 95.087 31.0176 95.18C31.0809 95.2729 31.1633 95.3528 31.2601 95.415C31.3569 95.4771 31.4659 95.5202 31.5808 95.5417C37.4363 96.8699 46.2808 98.3945 55.848 100.485C71.6505 103.95 71.9935 104.978 72.2508 104.262C72.2783 104.179 72.2706 104.09 72.2295 104.012C72.1884 103.935 72.117 103.875 72.0303 103.846ZM201.329 113.19C201.329 113.163 201.323 113.136 201.312 113.111C201.301 113.085 201.285 113.062 201.264 113.043C201.244 113.024 201.22 113.008 201.193 112.998C201.166 112.988 201.137 112.982 201.109 112.982C190.365 112.982 179.916 115.292 173.999 115.812C173.927 115.818 173.857 115.837 173.793 115.869C173.729 115.901 173.673 115.944 173.627 115.997C173.581 116.05 173.547 116.111 173.527 116.176C173.507 116.242 173.501 116.31 173.509 116.378C173.515 116.446 173.536 116.513 173.569 116.574C173.603 116.634 173.649 116.688 173.705 116.733C173.761 116.777 173.825 116.81 173.895 116.83C173.964 116.851 174.037 116.858 174.11 116.851C178.446 116.447 185.955 114.899 192.987 114.045C200.79 113.19 201.341 113.71 201.329 113.19ZM164.322 137.226C164.332 137.207 164.339 137.186 164.341 137.165C164.343 137.143 164.341 137.122 164.334 137.101C164.327 137.081 164.316 137.062 164.301 137.046C164.286 137.029 164.269 137.016 164.248 137.006L163.942 136.856L163.869 137.203C164.077 137.295 164.236 137.445 164.322 137.226Z" fill="black"/>
<path d="M238.728 140.113C235.58 139.501 227.801 139.743 224.592 140.009C227.238 131.485 229.97 120.374 231.072 114.252C231.471 112.559 231.644 110.824 231.587 109.09C231.546 108.934 231.472 108.788 231.369 108.66C231.266 108.533 231.135 108.428 230.986 108.35C226.086 105.451 174.747 111.815 171.17 113.49C170.104 113.987 169.148 116.493 168.72 117.625C165.547 112.705 165.878 111.538 162.337 103.765C160.131 98.702 157.333 93.8867 153.995 89.4084C154.081 88.7963 157.474 64.8993 153.836 58.5122C151.386 54.2387 138.119 52.7372 133.011 52.3329C133.011 52.0788 132.374 47.7129 132.104 45.7379C136.416 42.3422 138.229 36.0936 133.55 35.0426C130.23 34.3034 117.123 31.9472 107.359 34.3265C101.234 35.828 96.3344 39.2006 95.9179 45.8765C95.7534 48.4115 95.9179 50.9559 96.4079 53.4533C90.0746 54.1116 79.1721 55.0934 73.6106 57.0684C66.4566 59.6094 69.4701 89.1197 70.2296 91.5105C69.8131 92.4807 69.4211 93.4625 69.0659 94.3749C51.2421 90.0899 11.3439 82.0973 9.56764 82.2474C9.10498 82.2421 8.64812 82.3448 8.23775 82.5463C7.82738 82.7479 7.47625 83.042 7.21564 83.4024C6.73789 83.5064 6.56639 84.1416 6.48064 84.5574C5.25564 90.702 7.47289 127.396 7.86489 133.622C8.51414 135.863 27.3914 140.725 29.8414 141.36C29.9639 144.398 30.6131 159.482 30.7479 162.578C29.6821 162.395 28.6272 162.159 27.5874 161.873C25.4069 161.03 17.0524 168.699 17.7874 168.064C14.5901 170.744 49.3801 179.556 52.1609 178.817C54.9416 178.078 60.4419 173.123 59.5109 170.362C59.2535 169.871 58.8193 169.482 58.2859 169.265C55.6521 167.96 48.6819 166.355 45.7786 165.696C46.0604 160.106 46.0604 150.935 46.0481 145.368C49.4904 146.177 69.0291 150.635 72.5571 150.577C72.8101 150.581 73.0594 150.521 73.2799 150.404C74.4069 150.254 75.7299 149.988 75.8401 148.902C75.8401 148.579 76.1219 145.761 76.4771 141.58C85.1134 144.687 95.5871 144.456 97.4491 143.74C97.9511 143.511 98.3754 143.155 98.6741 142.712C98.7599 142.816 98.7966 142.793 99.4459 142.885C101.896 143.255 105.816 143.601 108.021 142.515C111.145 142.989 120.197 143.67 120.871 140.817C120.957 140.436 121.079 139.662 121.202 138.727C130.267 139.189 162.46 138.981 162.582 138.981L161.835 142.157C161.816 142.131 161.791 142.11 161.761 142.096C161.731 142.082 161.697 142.075 161.664 142.076C161.664 141.984 161.664 142.007 161.664 142.076C156.647 141.704 151.614 141.58 146.584 141.707C144.795 141.788 140.079 141.996 139.993 143.636C139.367 145.03 139.276 146.586 139.736 148.036C140.006 148.949 142.284 150.427 143.129 150.97C138.34 150.519 135.547 150.693 134.101 151.178C133.757 151.234 133.437 151.38 133.175 151.598C132.914 151.816 132.722 152.098 132.62 152.412C132.519 152.727 132.512 153.062 132.6 153.381C132.689 153.699 132.869 153.988 133.121 154.215C134.763 156.341 138.18 157.057 138.548 159.84C139.246 165.119 125.012 171.09 119.818 173.181C122.427 169.947 129.422 159.771 126.028 157.311C122.255 154.574 89.9031 153.372 86.9264 154.088C84.8316 154.597 69.4334 165.327 69.7151 169.103C69.9111 171.564 85.0644 173.978 87.8819 174.44C91.0546 174.948 113.693 178.274 116.4 176.646C116.974 176.427 117.496 176.102 117.933 175.689C118.371 175.276 118.716 174.785 118.948 174.243C123.639 172.723 128.154 170.757 132.423 168.376C139.16 164.437 142.933 159.563 136.269 155.463C135.473 154.978 133.293 153.499 133.611 152.668C134.297 150.831 143.766 151.513 143.901 151.513C148.299 154.215 156.715 158.385 161.676 159.598C166.919 160.903 191.419 158.373 197.336 157.669C198.009 159.979 198.659 162.127 199.087 163.444C198.169 163.513 195.547 163.733 194.812 164.276C194.408 164.576 194.42 165.084 195.069 165.431C195.069 169.3 194.567 180.873 195.792 186.093C196.258 188.045 196.797 188.854 198.94 189.558C202.995 190.794 210.786 190.355 214.865 189.327C217.401 188.681 217.732 188.172 218.136 186.902C219.533 182.582 219.459 169.831 219.361 165.303C219.44 165.25 219.503 165.18 219.547 165.098C219.591 165.017 219.614 164.927 219.614 164.836C219.614 164.744 219.591 164.654 219.547 164.573C219.503 164.492 219.44 164.421 219.361 164.368C218.455 163.972 217.479 163.737 216.482 163.675C216.654 162.381 217.573 155.151 217.707 153.881C218.348 153.518 218.919 153.058 219.398 152.518C220.147 151.66 220.634 150.625 220.807 149.526C222.032 148.013 223.796 142.365 224.371 140.517C229.835 140.737 237.846 140.436 238.594 140.517C238.65 140.534 238.712 140.529 238.765 140.503C238.818 140.477 238.857 140.432 238.875 140.379C238.893 140.325 238.888 140.267 238.86 140.217C238.833 140.167 238.785 140.13 238.728 140.113ZM73.1451 165.038C73.9659 164.183 74.9336 163.294 75.9626 162.393C80.3359 158.581 85.8974 154.747 87.1101 154.458C90.0501 153.742 122.341 155.613 125.624 157.923C126.175 158.316 126.286 159.078 126.175 159.99C125.734 163.617 121.716 169.6 119.377 172.522C116.731 170.374 76.6486 165.488 73.1451 165.038ZM133.17 53.1645C137.85 53.5803 150.969 55.001 153.223 58.8587C156.408 64.2872 154.448 82.8018 153.664 88.8887C152.978 88.0224 152.268 87.2024 151.545 86.4516C147.392 82.155 140.263 79.9952 134.224 78.8979C130.344 78.261 126.431 77.8253 122.5 77.5928C122.378 77.5928 122.574 77.766 121.606 75.8949C120.161 73.0883 120.075 73.1345 120.222 73.0536C121.828 72.973 123.419 72.7172 124.963 72.2913C129.103 71.1363 131.565 68.8263 132.729 63.213C133.361 59.886 133.493 56.4916 133.121 53.1299L133.17 53.1645ZM122.623 77.9508C123.395 78.0548 123.603 78.0432 123.664 78.0779C123.664 78.3666 126.347 91.9379 117.159 92.5616C109.564 93.1506 104.566 83.1021 101.871 76.3916C102.851 76.2414 103.635 76.1375 104.162 76.0682C104.419 81.335 112.455 90.8868 116.914 90.2169C121.925 89.4431 124.387 82.259 122.623 77.9508ZM104.334 56.6988C104.443 56.1835 104.688 55.7023 105.045 55.2989C105.403 54.8954 105.861 54.5826 106.379 54.3888C108.829 53.8229 108.829 56.6988 110.777 56.5371C113.227 56.387 110.495 51.0278 112.602 47.7591C114.893 44.1555 124.179 51.4436 131.688 46.0382C132.594 52.125 133.587 56.8605 132.202 63.0744C130.977 68.526 128.699 70.5357 124.767 71.6214C123.151 71.9721 121.515 72.2344 119.867 72.4068C119.735 72.4769 119.625 72.5771 119.545 72.6983C119.466 72.8195 119.421 72.9576 119.413 73.0998C119.413 73.5041 120.638 75.5715 121.778 77.9855C123.48 81.7739 121.263 88.6577 116.78 89.316C113.595 89.7896 107.359 83.0559 105.583 78.2973C104.799 76.1952 105.032 76.1144 106.416 67.9023C108.364 68.0294 108.768 64.4373 108.866 62.5778C108.886 62.1836 108.741 61.7977 108.462 61.5036C107.58 60.5912 106.857 61.6538 105.142 59.6325C104.768 59.2404 104.499 58.7692 104.358 58.2586C104.218 57.7481 104.209 57.2131 104.334 56.6988ZM96.5794 54.2849C98.2209 61.3535 102.533 66.2622 105.497 67.6251C104.958 70.8707 104.346 74.4858 104.187 75.5831C97.1181 75.9174 90.1471 77.281 83.5209 79.6256C80.5784 80.6879 77.8362 82.1893 75.3991 84.0723C74.0516 77.4888 77.5184 64.6221 77.0896 60.9723C76.8936 59.4246 76.4281 57.7845 74.8234 57.4496C80.3114 55.821 90.4789 54.897 96.5794 54.2849ZM74.0884 57.7499C74.3811 57.7593 74.6688 57.8245 74.9341 57.9416C75.1994 58.0587 75.4368 58.2253 75.6319 58.4313C76.1841 59.2171 76.4625 60.1458 76.4281 61.0878C76.6976 64.5528 72.8879 77.3271 75.0316 84.4073C72.9667 86.2329 71.4029 88.504 70.4746 91.0254C69.4946 85.4006 67.8654 59.7942 74.0884 57.7499ZM30.0741 110.372C30.1721 109.829 31.2256 109.586 31.8014 109.494C36.0521 108.836 44.8844 111.122 44.6884 113.906C44.3944 118.029 45.7419 167.995 44.5904 169.831C43.2184 172.037 35.7214 170.813 32.7324 168.849C31.3726 167.96 31.3971 167.198 31.4339 167.348C30.3926 128.02 29.9026 111.273 30.0741 110.372ZM58.4696 170.744C59.0944 172.707 54.1821 177.223 51.9036 177.824C49.6251 178.424 16.0356 170.224 18.2284 168.353C17.2116 169.219 23.6919 163.594 26.5461 162.693C26.7737 162.586 27.0336 162.558 27.2811 162.612C27.6119 162.751 28.9104 163.063 30.7846 163.479C30.8949 165.916 30.9684 167.359 30.9684 167.359C31.6911 170.755 43.2184 173.319 45.2274 170.189C45.535 169.08 45.6995 167.94 45.7174 166.793C47.5916 167.232 57.2079 169.438 58.4696 170.744ZM72.5571 149.595C69.3354 149.711 49.2821 145.276 46.0481 144.56C45.9869 131.023 45.6929 115.846 45.8399 113.975C46.1339 109.725 34.6679 107.415 30.6254 108.662C30.2248 108.745 29.8566 108.932 29.5623 109.201C29.268 109.47 29.0592 109.812 28.9594 110.187C28.6899 111.723 29.7434 139.062 29.8046 140.702C27.8079 140.194 9.10214 135.493 8.33039 133.61C8.12214 129.36 6.12539 88.265 7.54639 84.3726C14.2104 85.9434 71.1239 96.7658 75.1296 99.3876C76.1341 101.986 73.8434 145.923 72.5571 149.595ZM75.4359 148.914C75.4359 149.688 74.3456 149.954 73.5371 150.069C74.8601 147.078 77.4939 101.559 76.1464 98.8794C74.7989 96.1998 13.3406 84.9386 7.59539 83.4255C7.85091 83.1649 8.16198 82.9581 8.50821 82.8188C8.85444 82.6794 9.228 82.6107 9.60439 82.617C11.3071 82.5015 74.1496 95.7378 77.8001 97.632C78.4126 99.2952 77.8001 110.88 77.7144 112.786C77.4939 117.383 75.4849 148.29 75.4359 148.914ZM108.511 141.095C107.078 142.896 101.994 142.677 99.6051 142.469H99.0171C100.107 140.403 100.725 138.145 100.83 135.839C102.055 135.516 106.539 134.534 107.225 135.574C107.433 135.874 106.771 136.232 106.428 136.405C105.523 136.802 104.574 137.104 103.599 137.306C103.454 137.332 103.326 137.411 103.244 137.526C103.161 137.641 103.13 137.782 103.158 137.918C103.185 138.055 103.269 138.175 103.391 138.253C103.513 138.331 103.662 138.36 103.807 138.334C105.032 138.173 108.376 137.734 109.564 138.115C109.075 138.755 108.372 139.223 107.568 139.443C106.422 139.436 105.279 139.525 104.15 139.709C103.987 139.738 103.842 139.822 103.741 139.946C103.64 140.069 103.591 140.224 103.603 140.379C103.615 140.535 103.688 140.681 103.806 140.789C103.925 140.898 104.083 140.961 104.248 140.968C105.492 141.002 106.734 140.842 107.923 140.494C108.233 140.506 108.537 140.577 108.817 140.702C108.739 140.857 108.621 140.992 108.474 141.095H108.511ZM120.099 140.69C120.048 140.87 119.95 141.036 119.816 141.173C119.681 141.309 119.514 141.413 119.328 141.476C117.061 142.631 111.341 142.423 108.793 142.18C109.736 141.499 110.287 140.39 109.332 139.778C111.218 138.623 111.022 137.387 109.785 137.029C108.984 136.846 108.155 136.791 107.335 136.867C108.107 136.325 108.388 135.712 107.923 135.054C107.249 134.153 105.473 134.269 104.37 134.442C103.846 129.869 103.576 125.274 103.562 120.674C106.833 122.915 117.674 122.984 121.459 120.859C121.643 124.74 120.406 139.004 120.05 140.69H120.099ZM109.589 138.069C109.589 138.069 109.552 138.092 109.552 138.069H109.589ZM135.877 138.323C138.144 132.074 138.462 118.838 138.327 112.22C140.226 115.096 150.577 128.886 150.651 129.002C150.902 129.365 151.198 129.698 151.533 129.995C154.001 132.122 156.772 133.914 159.765 135.32C162.962 136.914 163.219 136.833 163.195 136.96L162.766 138.692C162.558 138.681 137.752 138.323 135.841 138.323H135.877ZM141.157 143.509C143.791 141.776 161.7 142.562 161.896 142.446V142.573C160.181 150.312 159.52 153.107 159.312 154.123C159.422 153.673 160.096 150.658 160.867 147.32C161.406 144.872 162.092 141.961 162.791 138.877C163.109 137.468 163.317 136.567 163.33 136.498C159.973 134.823 154.853 131.936 152.17 129.383C151.496 128.736 138.474 111.723 138.352 111.527C138.229 111.33 138.229 106.26 138.095 106.029C138.069 106.003 138.035 105.985 137.998 105.977C137.961 105.97 137.923 105.973 137.888 105.987C137.853 106.001 137.824 106.024 137.804 106.055C137.784 106.085 137.774 106.12 137.776 106.156C137.654 106.156 137.776 130.85 135.51 138.288L121.398 138.415C121.484 137.768 121.569 137.018 121.667 136.209C127.351 136.89 129.936 131.012 128.429 126.218C127.535 123.585 125.232 123.181 122.598 124.451C122.721 122.913 122.721 121.369 122.598 119.831C122.712 119.566 122.732 119.273 122.654 118.996C122.577 118.719 122.407 118.473 122.17 118.295C120.344 116.678 115.236 116.505 112.749 116.505C110.263 116.505 105.142 116.69 103.329 118.295C103.17 118.411 103.044 118.561 102.962 118.734C102.031 120.316 103.819 134.188 104.04 134.488C102.973 134.688 101.921 134.955 100.891 135.285V133.437C100.818 129.406 87.1469 127.165 86.6814 124.867C86.5221 124.082 86.2649 122.326 85.9709 120.247C84.3171 108.836 84.5621 109.274 84.2926 109.274C84.2472 109.274 84.2035 109.291 84.1714 109.322C84.1392 109.352 84.1211 109.393 84.1211 109.436C84.1211 109.748 85.4441 122.314 85.9219 124.982C86.3996 127.65 99.9726 130.238 100.034 133.437C100.034 135.932 99.4459 142.123 97.1551 143.012C95.7709 143.566 85.0644 144.075 76.5261 141.245C76.7099 139.004 80.1154 98.891 78.4739 97.1123C77.8491 96.4308 70.5114 94.6983 69.5804 94.4789C73.2554 86.6249 75.9749 80.1569 101.528 76.38C102.238 78.6227 103.106 80.8182 104.125 82.952C106.722 88.1841 111.12 93.8321 117.208 93.347C124.203 92.781 125.33 85.6316 124.215 79.1058C124.142 78.6438 124.068 78.3435 124.007 78.0779C127.368 78.395 130.709 78.8808 134.015 79.5332C139.785 80.6882 146.878 82.8827 150.835 87.0176C155.11 91.4528 158.846 98.3019 161.468 103.777C165.241 111.654 165.216 113.687 168.462 118.226C166.18 125.017 164.266 131.913 162.729 138.889C162.239 141.048 161.504 144.34 160.806 147.332C159.789 151.952 159.177 154.874 159.238 154.262C159.128 154.885 159.238 154.862 159.238 155.012C155.245 153.333 151.391 151.372 147.711 149.145C146.425 148.337 139.859 144.375 141.157 143.486V143.509ZM122.5 126.807C122.5 126.207 122.574 125.652 122.598 125.075C124.816 124.232 126.788 124.359 127.388 126.542C128.613 130.503 126.678 135.782 121.741 135.782C121.741 135.227 121.949 133.645 121.974 133.472C127.609 134.188 127.572 124.463 122.5 126.807ZM122.023 132.975C122.194 131.15 122.341 129.221 122.464 127.408C123.05 127.237 123.678 127.237 124.264 127.408C125.722 127.905 125.489 132.675 121.961 132.975H122.023ZM162.092 158.604C157.379 157.151 152.818 155.287 148.47 153.037C147.245 152.425 140.9 149.168 140.471 147.909C140.101 146.785 140.063 145.587 140.361 144.444C142.002 147.459 152.415 152.529 155.759 154.019C157.29 154.7 158.87 155.279 160.488 155.752C166.147 157.657 190.427 154.597 196.392 153.904C196.466 154.146 196.98 156.006 197.176 156.676C191.982 157.242 166.968 159.817 162.031 158.604H162.092ZM216.825 187.653C215.037 189.085 204.306 190.286 199.247 188.808C197.409 188.265 197.042 187.71 196.601 185.955C196.199 184.05 195.945 182.12 195.841 180.18C198.352 181.635 202.958 182.005 205.911 182.086C210.357 182.178 214.731 182.086 218.308 180.18C218.234 181.404 217.818 186.856 216.825 187.653ZM218.344 179.729C215.928 180.704 213.329 181.211 210.7 181.219C207.197 181.381 198.989 181.358 195.817 179.764C195.682 177.593 195.596 175.271 195.559 173.111C196.784 174.497 203.314 175.121 205.923 175.202C210.578 175.294 214.902 175.202 218.626 173.123C218.626 173.007 218.589 175.745 218.357 179.729H218.344ZM218.626 172.719C212.501 175.629 197.299 174.312 195.547 172.719V165.615C199.443 166.92 214.841 166.828 218.7 165.615C218.675 166.944 218.687 169.646 218.638 172.719H218.626ZM216.176 164.945C216.22 164.957 216.267 164.953 216.308 164.934C216.348 164.914 216.38 164.882 216.397 164.841C216.397 164.841 216.397 164.634 216.47 164.264C217.26 164.366 218.038 164.532 218.798 164.761C216.115 165.916 199.969 166.02 195.939 164.899C195.912 164.891 195.888 164.875 195.871 164.853C195.854 164.831 195.845 164.805 195.845 164.778C195.845 164.751 195.854 164.725 195.871 164.703C195.888 164.681 195.912 164.665 195.939 164.657C197.062 164.369 198.21 164.176 199.369 164.079C199.45 164.4 199.574 164.711 199.737 165.003C199.835 165.096 199.994 165.107 199.982 164.876C199.969 164.645 195.951 149.688 195.339 146.396C195.965 146.593 196.633 146.642 197.285 146.54C197.936 146.437 198.551 146.186 199.075 145.807C200.423 149.364 204.722 165.373 204.98 165.373C205.026 165.37 205.07 165.35 205.102 165.318C205.134 165.286 205.151 165.244 205.151 165.2L204.796 163.64H206.486C206.486 163.86 206.621 164.98 206.633 165.061C206.646 165.142 207.001 165.338 206.976 164.911C206.976 163.871 205.947 146.65 205.923 146.338C206.099 146.258 206.284 146.196 206.474 146.154C206.609 146.777 210.921 163.248 211.252 164.53C211.252 164.645 211.252 164.841 211.484 164.795C211.717 164.749 211.619 164.541 211.484 163.79L213.359 163.917V164.114C213.359 164.299 213.665 164.252 213.702 164.114C213.702 164.241 215.98 142.076 216.152 140.309C216.475 140.54 216.846 140.704 217.241 140.789C217.635 140.875 218.045 140.88 218.442 140.806C218.418 140.979 215.907 164.865 216.164 164.945H216.176ZM205.151 141.984C205.006 140.873 204.491 139.834 203.681 139.016C205.359 139.489 205.715 139.836 206.131 140.921C206.462 141.786 206.551 142.717 206.388 143.624C206.223 144.195 206.223 144.797 206.388 145.368C206.188 145.412 205.991 145.47 205.8 145.541C205.041 143.497 203.35 143.52 203.35 141.464C203.348 140.721 203.233 139.982 203.007 139.27C203.601 140.283 204.251 141.267 204.955 142.215C205.078 142.365 205.31 142.146 205.163 141.984H205.151ZM205.764 156.56C205.825 157.126 206.303 162.035 206.425 163.282H204.673C204.306 161.723 203.755 159.413 203.13 156.941L205.764 156.56ZM205.69 155.671L202.897 156.017C202.652 155.059 202.395 154.088 202.138 153.13C203.265 152.98 204.367 152.818 205.433 152.656C205.482 153.153 205.653 155.163 205.702 155.671H205.69ZM209.5 155.139C209.304 154.262 208.826 152.275 208.789 152.16C209.855 151.986 213.481 151.397 214.228 151.259C214.228 151.755 214.02 153.857 213.971 154.389C212.783 154.631 211.264 154.885 209.475 155.139H209.5ZM213.922 155.139C213.702 158.131 213.359 163.132 213.346 163.409C212.709 163.409 212.036 163.386 211.325 163.34C211.031 161.942 209.769 156.341 209.684 155.96C211.337 155.648 212.758 155.37 213.934 155.105L213.922 155.139ZM216.262 139.351C216.411 137.887 216.653 136.433 216.985 134.996C217.311 134.904 217.656 134.882 217.993 134.932C218.33 134.982 218.651 135.102 218.932 135.285C218.859 136.737 218.695 138.183 218.442 139.616C218.332 140.021 218.308 140.124 218.026 140.159C217.475 140.194 216.36 139.755 216.274 139.316L216.262 139.351ZM217.867 153.118C217.977 152.264 218.087 151.397 218.185 150.531C218.911 150.388 219.624 150.191 220.317 149.942C219.93 151.231 219.065 152.346 217.879 153.084L217.867 153.118ZM219.912 148.983C219.395 149.177 218.863 149.332 218.32 149.445C218.54 147.505 219.839 136.209 219.839 135.412C219.839 134.257 217.658 133.83 216.531 134.257C216.152 134.419 216.041 135.1 215.931 135.701C215.319 138.923 214.596 146.962 214.314 150.231L208.569 151.224C207.136 145.334 207.258 145.657 207.099 145.507C206.989 145.409 206.846 145.351 206.695 145.345C206.581 144.831 206.611 144.298 206.78 143.797C207.034 142.798 207 141.754 206.682 140.771C206.519 140.057 206.083 139.424 205.457 138.993C204.461 138.494 203.385 138.151 202.272 137.976C202.214 137.961 202.153 137.96 202.094 137.972C202.035 137.984 201.979 138.009 201.933 138.045C201.886 138.081 201.849 138.127 201.825 138.18C201.801 138.232 201.791 138.289 201.795 138.346C201.821 138.444 201.854 138.54 201.893 138.635C202.848 140.783 202.187 141.765 202.848 143.047C203.51 144.329 204.624 144.525 205.029 146.003C205.029 146.119 205.372 151.455 205.384 151.778L201.917 152.298C201.672 151.42 199.994 145.172 199.332 144.56C198.107 143.405 194.604 144.698 194.432 145.715C194.322 146.292 196 152.483 196.16 153.072C189.851 153.938 183.162 154.724 177.246 155.243C174.661 155.463 158.871 156.826 159.753 154.389C160.978 149.053 163.428 139.258 163.918 137.202V137.041C163.918 136.867 164.003 136.694 163.918 137.202C163.918 137.029 163.991 136.925 164.016 136.867L167.078 125.699C167.482 124.324 170.263 114.98 171.672 114.322C174.796 112.866 226.135 106.606 230.472 109.344C231.207 112.312 222.179 147.574 219.925 148.995L219.912 148.983Z" fill="black"/>
<path d="M120.675 56.0867V55.1973C120.675 55.0534 120.615 54.9153 120.507 54.8135C120.399 54.7117 120.252 54.6545 120.1 54.6545C119.946 54.6544 119.798 54.7113 119.688 54.8127C119.578 54.9142 119.515 55.0523 119.512 55.1973V56.2368C119.539 56.3742 119.621 56.4964 119.741 56.5781C119.861 56.6597 120.011 56.6945 120.157 56.6751C120.304 56.6558 120.437 56.5838 120.529 56.4742C120.621 56.3646 120.665 56.2258 120.651 56.0867H120.675ZM198.965 127.165C198.61 126.842 198.108 126.461 197.642 126.599C196.87 126.83 196.099 128.678 195.768 129.441C194.839 131.716 194.102 134.056 193.563 136.44C194.065 137.664 202.542 136.059 203.694 135.528C204.061 135.366 204.012 134.95 203.89 134.58C202.677 131.877 201.015 129.374 198.965 127.165ZM193.894 136.29C194.114 135.331 196.907 127.985 197.863 127.316C199.345 128.112 202.322 133.01 203.118 134.858C202.015 135.273 194.531 137.064 193.894 136.29ZM94.1541 160.787C94.0316 160.868 91.3611 162.462 91.2386 162.578C91.2095 162.589 91.1847 162.608 91.1673 162.633C91.1499 162.658 91.1406 162.687 91.1406 162.716C91.1406 162.746 91.1499 162.775 91.1673 162.8C91.1847 162.824 91.2095 162.843 91.2386 162.855C91.9246 163.04 94.2153 163.282 94.9136 163.352C111.672 159.39 111.782 159.39 111.574 159.39C111.686 159.375 111.789 159.321 111.859 159.237C111.93 159.153 111.964 159.046 111.953 158.939C111.953 158.743 111.623 157.38 111.525 156.964L94.1541 160.787ZM126.617 51.2588C126.96 51.2588 127.633 51.4089 127.768 51.4205C128.512 51.4932 129.249 51.6167 129.973 51.7901L131.076 51.9749C131.117 51.9847 131.162 51.9803 131.201 51.9624C131.239 51.9446 131.27 51.9144 131.288 51.8771C131.305 51.8399 131.309 51.798 131.297 51.7589C131.285 51.7197 131.258 51.6858 131.223 51.663C130.583 51.1525 129.808 50.8169 128.981 50.6928C128.162 50.5272 127.309 50.5955 126.531 50.8892C126.505 50.8945 126.481 50.9045 126.459 50.9187C126.437 50.9329 126.419 50.951 126.405 50.9719C126.391 50.9928 126.381 51.0161 126.376 51.0406C126.372 51.0651 126.372 51.0901 126.378 51.1144C126.383 51.1387 126.394 51.1617 126.409 51.182C126.424 51.2024 126.443 51.2198 126.465 51.2332C126.488 51.2466 126.512 51.2558 126.538 51.2602C126.564 51.2646 126.591 51.2641 126.617 51.2588ZM116.915 52.2752C117.245 52.2059 117.956 52.1019 118.14 52.0788C118.882 51.926 119.635 51.8256 120.394 51.7785L121.619 51.6515C121.667 51.6515 121.714 51.6332 121.748 51.6007C121.783 51.5682 121.802 51.5242 121.802 51.4782C121.802 51.4323 121.783 51.3882 121.748 51.3557C121.714 51.3232 121.667 51.305 121.619 51.305C120.829 50.9893 119.963 50.8838 119.114 50.9999C118.265 51.116 117.466 51.4492 116.804 51.9633C116.775 51.9633 116.746 51.9698 116.721 51.9824C116.695 51.9949 116.672 52.013 116.655 52.0353C116.638 52.0575 116.627 52.0833 116.623 52.1104C116.618 52.1376 116.621 52.1653 116.63 52.1914C116.639 52.2174 116.655 52.241 116.676 52.2602C116.696 52.2795 116.722 52.2938 116.75 52.3019C116.777 52.3101 116.807 52.312 116.835 52.3073C116.864 52.3027 116.891 52.2916 116.915 52.2752ZM129.165 54.2849C129.012 54.2849 128.865 54.3421 128.757 54.4439C128.649 54.5457 128.589 54.6838 128.589 54.8277V55.8672C128.61 56.0112 128.691 56.1414 128.814 56.2291C128.937 56.3168 129.091 56.3549 129.244 56.335C129.397 56.3151 129.535 56.2388 129.628 56.1229C129.721 56.007 129.761 55.861 129.74 55.7171V54.8277C129.742 54.756 129.728 54.6847 129.7 54.6181C129.672 54.5516 129.629 54.4911 129.575 54.4404C129.522 54.3896 129.457 54.3497 129.387 54.323C129.316 54.2963 129.241 54.2833 129.165 54.2849ZM34.0923 154.562C35.795 155.082 39.764 156.479 41.5893 156.271C41.8098 156.271 42.0548 156.063 42.214 155.694C43.439 153.095 42.557 139.882 42.116 137.329C41.8098 135.493 34.766 133.218 33.0633 134.523C31.9608 135.366 32.512 145.149 32.6345 146.512C32.953 149.803 32.6223 154.112 34.0923 154.562ZM33.6145 135.135C34.9375 134.234 41.0748 136.371 41.2708 137.445C41.577 139.258 42.7163 154.504 41.4913 155.694C39.911 155.913 35.7215 154.701 34.1413 154.239C33.0265 153.892 33.4063 149.295 33.2225 146.454C33.1368 144.537 33.002 136.925 33.6145 135.135ZM120.663 63.0051C120.633 62.9909 120.599 62.9835 120.565 62.9835C120.531 62.9835 120.498 62.9909 120.467 63.0051C120.161 63.1091 119.977 63.4325 119.928 63.906C119.888 65.1297 120.324 66.3249 121.153 67.2671C121.347 67.5172 121.593 67.7278 121.876 67.8865C122.158 68.0452 122.472 68.1486 122.797 68.1907C123.123 68.2327 123.455 68.2125 123.772 68.1312C124.089 68.0499 124.386 67.9092 124.644 67.7175C125.383 67.1445 125.963 66.4114 126.335 65.5808C126.368 65.516 126.386 65.4449 126.386 65.3729C126.386 65.3008 126.368 65.2297 126.335 65.165C125.955 64.6106 125.049 65.396 120.663 63.0051ZM120.553 63.3978C121.884 64.4664 123.442 65.254 125.122 65.7078C122.501 69.912 119.867 64.241 120.553 63.3978ZM123.554 60.6836C124.338 60.8222 126.506 60.5681 126.972 59.8173C127.205 59.4593 126.972 59.3438 126.457 57.8654C125.994 56.581 125.45 55.3237 124.828 54.1001C124.608 53.7767 124.326 54.1001 124.485 54.2964C124.825 56.0672 125.368 57.7982 126.102 59.4593C125.215 59.8504 124.308 60.1974 123.383 60.4988C123.381 60.5215 123.384 60.5444 123.392 60.566C123.399 60.5876 123.412 60.6076 123.428 60.6248C123.444 60.6419 123.463 60.656 123.485 60.6661C123.506 60.6762 123.53 60.6821 123.554 60.6836ZM168.732 180.792C173.326 178.043 169.749 175.514 166.711 176.715C165.964 175.433 165.792 175.329 164.261 175.398C156.311 175.779 120.406 183.61 120.063 183.737C118.25 184.442 122.856 194.64 124.681 195.98C125.098 196.281 124.963 196.338 129.459 195.507C129.753 198.025 130.916 202.437 133.636 202.575C134.903 202.356 136.137 201.992 137.311 201.49C139.583 203.62 142.001 205.608 144.551 207.438C147.368 209.217 165.376 189.385 168.071 187.075C168.842 186.833 169.528 186.671 169.443 184.869C171.77 184.465 173.571 183.114 172.334 181.173C171.501 179.995 170.055 180.18 168.732 180.792ZM169.161 177.65C169.663 177.824 169.92 178.008 169.761 178.482C169.431 179.206 168.947 179.858 168.34 180.399C168.015 179.46 167.635 178.538 167.201 177.639C167.835 177.423 168.53 177.428 169.161 177.65ZM156.127 177.269C156.58 179.291 156.886 180.388 157.462 182.247L148.973 183.76C148.484 182.089 147.916 180.44 147.27 178.817C148.875 178.528 154.816 177.477 156.127 177.269ZM143.571 192.689C144.02 194.14 144.684 195.524 145.543 196.8C143.191 197.874 140.974 198.856 139.087 199.665C138.41 197.728 137.458 195.886 136.257 194.19L143.571 192.689ZM140.104 192.689C139.69 190.682 139.166 188.696 138.536 186.74L148.336 184.742C148.87 186.699 149.516 188.626 150.271 190.517C146.903 191.187 143.387 191.938 140.104 192.642V192.689ZM144.183 192.746C144.048 192.561 143.215 192.839 152.231 190.887C152.391 191.745 152.728 192.565 153.224 193.301L146.045 196.616C145.619 195.236 144.992 193.918 144.183 192.7V192.746ZM152.758 190.76C157.413 189.743 161.688 188.773 164.641 188.034L153.824 193.012C153.624 192.192 153.267 191.413 152.77 190.713L152.758 190.76ZM150.688 190.402C150.295 188.431 149.796 186.48 149.193 184.557L157.56 182.617C157.56 182.675 158.124 184.453 158.381 185.216C158.503 185.562 159.545 188.357 159.606 188.403C157.07 188.935 150.884 190.309 150.676 190.355L150.688 190.402ZM146.903 178.932C147.307 181.035 147.687 182.397 148.128 183.968L138.328 186.001C137.752 184.165 137.36 182.963 136.515 180.884C138.426 180.469 145.433 179.152 146.915 178.886L146.903 178.932ZM136.11 180.954C136.588 183.264 136.943 184.476 137.458 186.186C136.637 186.359 129.936 187.941 129.936 187.941C129.691 187.941 129.789 188.3 130.034 188.253C130.034 188.253 137.299 186.983 137.666 186.902C137.666 186.902 138.193 188.889 139.7 192.781L131.798 194.444C130.668 190.415 129.248 186.464 127.548 182.617L136.11 180.954ZM125.024 195.588C123.162 194.271 118.899 184.569 120.185 184.038C120.185 184.038 122.991 183.46 127.205 182.628C128.255 186.676 129.656 190.636 131.394 194.467C124.951 195.83 125.232 195.692 125.036 195.541L125.024 195.588ZM133.599 201.732C131.529 201.732 130.292 197.516 129.924 195.599C129.924 195.38 129.275 195.599 135.682 194.34C136 194.282 135.498 194.202 137.029 197.205C137.468 198.148 138.01 199.046 138.646 199.884C137.035 200.612 135.363 201.214 133.648 201.686L133.599 201.732ZM145.016 206.676C142.526 205.03 140.133 203.256 137.85 201.363C139.957 200.543 142.346 199.491 144.404 198.567C146.015 200.333 147.84 201.915 149.843 203.28C149.01 203.95 146.18 206.421 145.065 206.629L145.016 206.676ZM150.198 202.933C148.58 201.231 146.768 199.701 144.796 198.371L152.489 194.802C153.561 195.84 154.801 196.709 156.164 197.378C154.237 199.257 152.264 201.094 150.247 202.887L150.198 202.933ZM156.58 197.008C155.558 196.025 154.396 195.181 153.126 194.502C158.393 191.996 161.419 190.471 166.331 187.907C164.151 189.72 158.614 195.056 156.629 196.962L156.58 197.008ZM168.267 186.151C167.74 186.509 160.525 188.172 159.9 188.311C159.12 184.532 157.976 180.829 156.482 177.246C158.859 176.865 163.563 176.091 165.314 176.276C165.551 176.539 165.757 176.825 165.927 177.131C165.091 177.666 164.399 178.378 163.906 179.21C163.783 179.498 164.102 179.649 164.261 179.51C164.874 178.899 165.59 178.387 166.38 177.997C166.936 179.08 167.419 180.195 167.826 181.335C166.737 182.037 165.756 182.876 164.91 183.83C164.751 184.014 164.8 184.153 164.91 184.211C165.204 184.373 165.229 183.957 168.12 182.34C168.412 183.275 168.576 184.241 168.61 185.216C168.548 185.424 168.512 185.955 168.316 186.105L168.267 186.151ZM171.317 183.056C170.77 183.647 170.081 184.106 169.308 184.396C169.195 183.572 169.019 182.758 168.781 181.959C169.577 181.577 170.815 181.092 171.231 181.797C171.388 181.959 171.486 182.164 171.51 182.382C171.534 182.601 171.484 182.82 171.366 183.01L171.317 183.056Z" fill="black"/>
</svg>
