<svg width="200" height="200" viewBox="0 0 200 200" fill="none" xmlns="http://www.w3.org/2000/svg">
<path d="M23.3829 95.5547C21.4069 79.0427 22.2959 62.4617 25.9089 46.1377C26.4339 43.7667 28.6069 45.9237 43.9259 42.4927C45.0979 42.2307 46.2599 41.9567 47.4109 41.6737C47.9269 40.7187 48.4989 39.7677 49.1349 38.8317C35.7959 41.9987 25.3279 43.0747 24.9549 43.3997C24.2929 43.9757 24.0869 44.2197 23.6239 46.2037C19.1659 65.3137 19.0499 85.5607 22.6309 104.968C22.8079 101.881 23.0589 98.7097 23.3819 95.5537L23.3829 95.5547Z" fill="black"/>
<path d="M172.84 56.0496C170.22 53.5416 165.803 50.8526 163.927 50.1856C161.315 49.2556 138.117 47.0316 105.275 27.4666C93.0029 20.1566 94.5319 18.8646 89.9679 22.1296C88.3699 23.2726 86.6969 24.3556 84.9659 25.3806C85.7199 25.4956 86.4679 25.6296 87.2109 25.7836C93.2169 22.0636 92.2999 21.2936 93.7139 22.3536C108.022 33.0836 133.588 45.7836 158.374 50.8286C161.048 51.3726 162.55 50.6116 162.129 53.1176C161.505 56.8306 160.037 79.2966 149.274 105.443C135.197 139.64 106.139 171.069 78.6389 185.644C76.5519 186.75 74.4479 188.268 71.5989 186.043C65.0949 180.963 60.4979 176.97 54.4909 169.81C44.0499 157.365 40.6019 151.311 36.0129 140.476C35.2839 140.198 34.5099 139.9 33.6319 139.571C33.5299 139.533 33.4289 139.495 33.3289 139.457C40.3889 155.203 50.0869 169.301 61.9639 180.337C64.1839 182.4 79.6929 195.859 82.7849 194.959C92.0699 192.257 118.186 174.84 136.334 152.39C169.116 111.836 174.685 57.8186 172.839 56.0516L172.84 56.0496ZM171.524 57.4096C167.185 109.826 139.019 160.484 91.6409 188.75C81.3439 194.893 82.0319 193.963 79.9269 192.399C79.3929 192.002 76.4379 189.773 76.3639 189.698C75.4659 188.794 75.1589 189.937 82.3169 185.965C106.632 172.474 127.38 149.341 140.91 126.995C152.21 108.332 157.284 92.6976 160.945 74.5276C165.937 49.7566 162.52 51.2336 166.048 53.1936C167.813 54.1736 169.413 55.4046 171.09 56.5176C171.539 56.8156 171.536 56.8256 171.524 57.4096Z" fill="black"/>
<path d="M63.1978 59.8496C96.7758 60.7106 96.3587 64.8816 96.7687 60.9416C98.1057 48.0826 91.0398 40.8586 79.6238 40.1986C73.8698 43.0366 68.0227 45.1836 62.5437 46.8206C61.0927 48.8106 60.0018 51.2196 59.2018 54.0146C58.6188 56.0526 58.4487 57.5406 58.4527 59.3616C58.4537 60.0166 58.4098 59.7266 63.1978 59.8496Z" fill="black"/>
<path d="M41.2091 60.5695C42.7171 60.5415 42.2311 59.7956 42.3011 59.4356C42.5731 58.0366 42.8741 54.8896 43.8451 51.0396C38.8441 51.8516 35.6071 52.1666 35.2561 52.4286C34.8661 52.7186 34.5261 53.0766 34.4211 53.5965C33.7611 56.8446 33.2231 60.0326 32.7971 63.1586C35.2711 61.6276 38.7071 60.6165 41.2091 60.5695Z" fill="black"/>
<path d="M148.297 58.4895C147.026 58.0485 132.002 56.0825 112.445 46.3595C112.184 46.2305 111.928 46.1015 111.674 45.9745C112.024 47.0855 112.309 48.2385 112.524 49.4325C114.608 61.0015 110.969 64.8245 112.684 65.2935C121.174 67.6185 125.289 69.1495 126.843 78.7125C128.67 89.9575 124.354 118.874 120.382 134.777C133.259 116.554 145.978 85.8655 149.363 60.2835C149.38 59.0025 149.25 58.8195 148.298 58.4895H148.297Z" fill="black"/>
<path d="M96.5339 149.313C84.7039 149.313 75.4829 150.29 48.7239 144.212C60.6919 163.976 74.8659 174.123 76.9639 173.483C82.1379 171.905 89.3319 166.163 92.3029 163.905C100.083 157.993 105.031 153.377 109.673 148.155C105.462 149.051 100.497 149.093 96.5339 149.313Z" fill="black"/>
<path d="M126.842 78.7124C125.288 69.1494 121.173 67.6184 112.683 65.2934C110.968 64.8234 114.607 61.0014 112.523 49.4324C108.572 27.4974 81.0876 19.6014 61.4876 28.4584C44.1386 36.2984 43.0936 55.3444 42.2996 59.4364C42.2296 59.7964 42.7156 60.5414 41.2076 60.5694C37.4446 60.6404 31.5676 62.8904 30.0326 65.8104C23.0536 79.0884 20.4506 120.326 23.7176 130.273C24.6386 133.077 24.1956 136.04 33.6306 139.57C38.4476 141.372 40.1456 142.254 48.3016 144.116C75.3866 150.3 84.6416 149.313 96.5336 149.313C104.181 148.889 115.564 149.126 118.052 142.611C122.342 131.376 129.04 92.2454 126.841 78.7134L126.842 78.7124ZM44.5026 60.0054C44.5626 57.2534 46.7476 47.5564 49.8796 42.1314C53.1196 36.5184 56.3596 33.7804 60.7536 31.2964C66.2386 28.1964 76.4226 26.9884 77.6376 26.9644C84.6476 26.8254 91.5056 28.9234 96.9236 31.7964C104.741 35.9414 107.974 40.8494 109.559 47.1254C110.99 52.7924 110.945 59.5594 110.173 63.7824C109.881 65.3774 110.116 64.6034 99.2696 63.0434C98.8856 62.9884 98.7926 62.8904 98.8506 62.4574C102.786 33.0894 66.9876 32.0054 58.6906 49.1094C56.3426 53.9494 56.4576 59.6554 56.4536 59.6824C56.3546 60.2414 51.8386 59.8354 51.8386 59.9884C44.1926 59.9884 44.4936 60.4464 44.5026 60.0054ZM96.7686 60.9414C96.3586 64.8814 96.7756 60.7104 63.1976 59.8494C58.4096 59.7264 58.4526 60.0174 58.4516 59.3614C58.4486 57.5404 58.6176 56.0514 59.2006 54.0144C61.8016 44.9224 67.4896 39.9044 78.5826 40.1564C90.6076 40.4294 98.1446 47.6964 96.7676 60.9404L96.7686 60.9414ZM117.937 134.755C115.994 143.261 116.101 144.052 108.256 145.843C103.973 146.821 84.5256 147.291 80.1686 146.737C76.9846 146.332 76.8226 147.952 54.3406 143.277C21.0456 136.355 27.0406 133.62 24.6906 122.485C23.3356 92.3944 29.5986 69.9504 31.4666 67.3834C32.9866 65.2954 34.2636 65.0224 35.5176 64.1234C35.9116 63.8414 35.7496 64.0224 37.7526 63.3574C39.1986 62.8774 41.4516 62.8034 41.4756 62.8034C62.1076 61.1084 79.4746 62.8454 99.9856 65.6374C110.125 67.0174 122.112 67.9954 123.97 75.7914C127.05 88.7154 120.741 122.486 117.938 134.754L117.937 134.755Z" fill="black"/>
<path d="M60.0441 85.4664C56.9061 91.2504 57.9451 98.9514 63.6881 103.964C63.9311 104.176 64.0261 104.413 63.9811 104.72C63.5351 107.793 62.8331 115.03 62.8501 118.856C62.8791 125.248 63.1481 128.782 68.5541 131.065C72.3811 132.682 76.3731 131.184 77.9771 126.211C78.6481 124.129 78.6911 122.596 79.4871 115.379C80.4841 106.346 79.7041 106.627 80.6081 106.235C84.9251 104.363 89.1091 98.9914 89.0031 92.6384C89.6171 78.3174 67.6171 71.5074 60.0431 85.4654L60.0441 85.4664ZM68.8011 110.688C66.8681 128.939 69.6031 130.831 66.5121 128.36C64.4121 126.681 64.3211 122.678 64.3531 119.753C64.4831 107.901 66.6641 104.451 65.3511 103.3C60.5391 99.0864 58.0881 92.1914 62.3101 85.3644C63.2931 83.7754 65.5531 82.0804 65.7051 81.9364C67.4011 80.3334 69.9761 80.1604 68.9871 81.2534C62.4931 88.4374 64.9891 96.3774 69.6571 99.9904C70.5591 100.688 69.8831 100.458 68.7991 110.687L68.8011 110.688Z" fill="black"/>
<path d="M113.004 79.6707C112.686 92.5927 108.019 144.008 105.888 138.006C105.348 136.486 111.551 81.0267 111.511 78.7767C111.426 74.0087 110.252 73.4537 110.957 73.0697C111.469 72.7907 112.061 73.6317 112.246 74.1197C112.918 75.8937 113.052 77.7737 113.005 79.6717L113.004 79.6707Z" fill="black"/>
<path d="M18.8955 171.403C18.3215 171.208 23.6345 165.736 23.5375 164.72C23.4565 163.87 22.4455 163.379 21.7605 163.988C20.8285 164.818 19.0855 166.653 17.7295 168.036C17.1575 168.62 17.4575 163.81 15.4795 160.114C15.0085 159.234 13.8545 159.444 13.8215 160.513C13.7545 162.691 14.8515 168.467 15.2235 170.209C13.3435 169.733 7.94055 168.245 7.89555 170.209C7.88555 170.648 8.13655 170.907 8.47455 171.074C12.5245 173.069 13.6125 172.614 13.1885 173.178C10.9305 176.183 10.2135 176.972 9.82555 178.128C9.54855 178.951 9.76655 179.868 10.6755 179.875C11.6705 179.883 12.0005 179.059 14.2115 176.388C17.1385 172.852 15.5905 173.781 17.5305 179.148C18.0135 180.484 18.1345 180.819 18.7625 180.725C19.8465 180.563 19.1265 176.982 18.9005 175.028C18.7915 174.087 24.2485 177.197 25.0265 175.208C25.6755 173.55 22.7675 172.717 18.8955 171.401V171.403Z" fill="black"/>
<path d="M153.652 16.3686C152.874 16.1316 155.562 14.9396 157.511 12.2316C158.073 11.4506 157.368 10.6226 155.451 11.8156C151.501 14.2736 151.452 15.1866 151.334 14.5806C150.904 12.3826 150.672 10.6996 149.981 9.46256C149.252 8.15656 147.332 7.76956 147.916 11.9116C148.638 17.0266 149.481 15.0436 145.228 15.2606C143.289 15.3596 142.594 16.5276 143.183 17.2956C143.53 17.7486 144.11 17.8376 145.302 18.0916C147.626 18.5866 147.176 17.7166 143.451 21.3736C143.059 21.7586 142.56 22.6176 143.086 23.2066C144.004 24.2336 145.581 22.6606 149.015 19.9566C149.478 19.5916 149.094 19.9466 150.227 23.1626C150.607 24.2396 150.843 24.9686 151.627 24.9736C152.287 24.9786 152.97 24.2686 152.795 22.9626C151.857 15.9786 151.297 20.7076 157.452 18.6976C159.573 18.0046 155.646 16.9766 153.652 16.3686Z" fill="black"/>
<path d="M151.791 183.978C150.978 187.061 155.8 187.184 155.529 184.5C155.711 182.595 152.476 181.378 151.791 183.978Z" fill="black"/>
<path d="M42.3904 5.00645C41.0154 4.92245 36.9254 6.46945 38.3864 9.52345C39.5154 11.8835 42.7954 12.4855 44.7044 10.3515C46.8514 7.95145 44.6654 4.84445 42.3904 5.00645ZM41.9034 9.72745C39.7814 9.87745 39.4314 7.41745 40.1734 7.16445C40.8634 6.92945 41.5264 6.57245 42.2904 6.62245C44.4684 6.76545 43.8304 9.89445 41.9034 9.72745Z" fill="black"/>
<path d="M191.824 118.172C190.196 114.516 184.744 115.939 183.121 117.758C179.87 121.399 184.781 128.483 189.806 124.192C191.506 122.74 192.658 120.045 191.824 118.172ZM186.413 123.465C185.713 123.561 184.01 121.918 184.442 119.986C184.725 118.717 185.967 117.731 186.556 117.837C186.936 117.906 187.335 117.849 187.724 117.876C191.432 118.133 189.464 123.324 186.413 123.465Z" fill="black"/>
</svg>
