<svg width="200" height="200" viewBox="0 0 200 200" fill="none" xmlns="http://www.w3.org/2000/svg">
<path d="M136.05 30.4903C136.045 30.4773 136.036 30.4661 136.025 30.4583C136.013 30.4504 135.999 30.4462 135.985 30.4462C135.971 30.4462 135.958 30.4504 135.946 30.4583C135.935 30.4661 135.926 30.4773 135.92 30.4903C135.92 31.1103 135.02 31.4903 135.27 32.1903C135.38 32.4903 135.79 32.7003 136.02 32.4003C136.029 32.3855 136.033 32.369 136.034 32.3522C136.035 32.3353 136.032 32.3185 136.025 32.303C136.018 32.2875 136.008 32.2738 135.995 32.2629C135.982 32.2521 135.967 32.2443 135.95 32.2403H135.84C135.36 32.2403 135.36 31.9003 135.9 31.2403C135.982 31.1357 136.038 31.0133 136.064 30.8831C136.091 30.7528 136.086 30.6183 136.05 30.4903ZM138.17 29.4803C138.23 29.6403 138.49 29.5903 138.52 29.4303C138.52 29.0927 138.476 28.7567 138.39 28.4303C138.39 28.3931 138.376 28.3575 138.349 28.3313C138.323 28.305 138.287 28.2903 138.25 28.2903C138.213 28.2903 138.178 28.305 138.151 28.3313C138.125 28.3575 138.11 28.3931 138.11 28.4303C138.045 28.7799 138.065 29.1403 138.17 29.4803ZM133.61 28.7103C133.61 29.0203 133.61 29.6303 133.92 29.8203C133.935 29.8284 133.952 29.8331 133.968 29.8339C133.985 29.8346 134.002 29.8315 134.018 29.8248C134.033 29.818 134.047 29.8077 134.058 29.7948C134.069 29.7819 134.076 29.7667 134.08 29.7503C134.031 29.4121 133.957 29.0779 133.86 28.7503C133.84 28.5603 133.61 28.5503 133.61 28.7103ZM132.65 27.5003C132.632 27.5308 132.626 27.5674 132.635 27.6021C132.643 27.6368 132.665 27.6667 132.695 27.6853C132.726 27.7038 132.762 27.7095 132.797 27.7011C132.832 27.6926 132.862 27.6708 132.88 27.6403C133.03 27.4403 133.88 26.8503 133.98 26.6403C133.993 26.6245 134.002 26.6054 134.005 26.5851C134.007 26.5648 134.004 26.5442 133.996 26.5255C133.988 26.5068 133.974 26.4908 133.958 26.4793C133.941 26.4677 133.921 26.4612 133.9 26.4603C133.35 26.4503 132.87 27.0703 132.65 27.5003ZM138.27 26.1903C138.77 26.2503 139.03 26.6503 139.27 27.0303C139.287 27.0593 139.313 27.082 139.344 27.0946C139.375 27.1072 139.409 27.109 139.442 27.0998C139.474 27.0906 139.502 27.0709 139.522 27.0438C139.541 27.0167 139.552 26.9838 139.55 26.9503C139.55 26.3003 138.84 25.9003 138.25 25.8903C138.07 25.8803 138.08 26.1703 138.27 26.1903ZM148.27 60.0003C150.42 59.8703 152.53 59.2603 154.68 59.0703C154.85 59.0703 154.85 58.7803 154.68 58.8003C152.51 58.9918 150.362 59.3766 148.26 59.9503L148.27 60.0003ZM137.92 60.4303C138.08 60.4303 138.01 60.1603 137.85 60.1803C135.62 60.5303 133.38 60.9303 131.16 61.3503C131.1 61.3503 131.16 61.4603 131.16 61.4603C133.43 61.1503 135.69 60.8203 137.92 60.4303ZM104.94 117.43L89.0003 106.33L85.9803 111.36L107.21 125.4L124.99 92.4903L119.87 90.0903L104.94 117.43Z" fill="black"/>
<path d="M131.93 78.0801C131.66 77.4001 131.53 77.4901 130.81 77.3401C129.62 77.0801 128.42 76.8501 127.22 76.6101C123.5 75.8601 119.85 74.6101 116.22 73.6101C112.55 72.6257 108.962 71.3551 105.49 69.8101C104.49 69.3701 103.57 68.9401 102.65 68.4201C102.1 68.1001 100.96 67.1001 100.35 67.1401C100 67.1401 100.17 67.1401 99.7703 67.4801C99.0203 68.1801 98.2904 68.8701 97.5004 69.4801C94.4104 71.8874 91.1219 74.0284 87.6703 75.8801C82.3631 79.0977 76.8361 81.9381 71.1303 84.3801C71.0907 84.3909 71.0556 84.4143 71.0303 84.4468C71.0051 84.4793 70.9911 84.519 70.9903 84.5601C70.4783 90.4975 71.0337 96.4786 72.6303 102.22C74.1208 108.01 75.9133 113.718 78.0003 119.32C81.7203 129.49 87.2704 138.94 95.4804 146.05C104.05 153.48 111.48 154.78 111.55 154.71C114.557 152.421 117.312 149.82 119.77 146.95C125.466 140.596 129.905 133.219 132.85 125.21C134.646 120.221 135.773 115.015 136.2 109.73C136.76 102.73 135.76 95.8201 134.55 88.8901C134.067 85.2034 133.188 81.5793 131.93 78.0801ZM134.57 118.08C133.216 124.666 130.649 130.943 127 136.59C117.81 150.13 111.52 154.32 111.42 154.39C102.134 151.243 94.0275 145.341 88.1804 137.47C85.4185 133.839 83.0455 129.927 81.1003 125.8C78.9566 120.987 77.1163 116.044 75.5903 111C73.9299 106.186 72.6428 101.252 71.7403 96.2401C71.3022 93.5764 71.0981 90.8795 71.1303 88.1801C71.1303 87.5401 71.2503 84.7601 71.2403 84.7701C71.3403 84.6001 78.6904 81.4601 81.7904 79.7001C86.0004 77.2601 90.3604 75.0001 94.4004 72.2401C96.1698 71.0702 97.8419 69.7593 99.4004 68.3201C99.9604 67.8001 100.18 67.5301 100.94 67.8401C101.47 68.0501 104.61 69.8401 105.71 70.2901C110.128 72.1528 114.681 73.6772 119.33 74.8501C121.76 75.5401 124.19 76.3301 126.66 76.8501C128.225 77.0944 129.774 77.4283 131.3 77.8501C131.87 78.2101 133.01 82.7601 133.3 83.9601C133.84 86.4401 134.24 88.9601 134.67 91.4401C136.18 100.36 136.59 109.19 134.57 118.1V118.08ZM65.6503 36.9401C65.6353 36.9568 65.6253 36.9773 65.6213 36.9994C65.6174 37.0215 65.6197 37.0442 65.6281 37.0651C65.6364 37.0859 65.6504 37.104 65.6685 37.1172C65.6865 37.1305 65.708 37.1384 65.7304 37.1401C65.9133 37.1171 66.0834 37.0339 66.2137 36.9035C66.3441 36.7731 66.4273 36.6031 66.4503 36.4201C66.4503 36.2501 65.8403 35.5001 65.7403 35.1601C65.7342 35.1425 65.7227 35.1272 65.7075 35.1164C65.6923 35.1055 65.674 35.0997 65.6553 35.0997C65.6367 35.0997 65.6184 35.1055 65.6032 35.1164C65.588 35.1272 65.5765 35.1425 65.5703 35.1601C65.4803 35.4501 66.1604 36.2701 66.1203 36.4901C66.0803 36.7101 65.8004 36.7901 65.6503 36.9401ZM67.4903 33.7001C67.3952 34.0245 67.3547 34.3625 67.3703 34.7001C67.3703 34.9901 67.8204 34.9901 67.8303 34.7001C67.8757 34.3628 67.8379 34.0195 67.7203 33.7001C67.7093 33.6792 67.6928 33.6617 67.6725 33.6494C67.6522 33.6372 67.629 33.6308 67.6054 33.6308C67.5817 33.6308 67.5585 33.6372 67.5382 33.6494C67.5179 33.6617 67.5014 33.6792 67.4903 33.7001ZM63.4203 33.6701C63.3275 33.997 63.3275 34.3433 63.4203 34.6701C63.4203 34.8801 63.8203 34.8501 63.8003 34.6701C63.7803 34.4901 63.7303 34.0501 63.6903 33.7401C63.6996 33.7043 63.6943 33.6663 63.6756 33.6344C63.6568 33.6025 63.6262 33.5794 63.5903 33.5701C63.5545 33.5609 63.5165 33.5662 63.4846 33.5849C63.4528 33.6037 63.4296 33.6343 63.4203 33.6701ZM62.5703 33.3901C62.7303 33.1801 63.5703 32.5201 63.6903 32.3301C63.7108 32.3104 63.7242 32.2844 63.7285 32.2563C63.7327 32.2282 63.7277 32.1994 63.7141 32.1745C63.7004 32.1495 63.679 32.1297 63.6531 32.1181C63.6271 32.1065 63.598 32.1037 63.5703 32.1101C63.0369 32.3063 62.5904 32.6855 62.3103 33.1801C62.2003 33.3401 62.4503 33.5301 62.5703 33.3901ZM67.2903 32.2301C67.6539 32.413 67.9904 32.6452 68.2903 32.9201C68.3099 32.9401 68.3351 32.9538 68.3625 32.9594C68.3899 32.9649 68.4184 32.9622 68.4442 32.9514C68.47 32.9406 68.4921 32.9224 68.5074 32.899C68.5228 32.8756 68.5308 32.8481 68.5303 32.8201C68.5303 32.5601 67.5303 31.9801 67.2603 32.0001C67.2359 32.0102 67.2154 32.028 67.2021 32.0509C67.1888 32.0738 67.1835 32.1004 67.1869 32.1267C67.1903 32.1529 67.2023 32.1773 67.221 32.196C67.2397 32.2147 67.2641 32.2267 67.2903 32.2301ZM62.6303 38.5301H62.5403C62.5403 39.1701 63.9603 40.4701 65.8503 39.6601C65.9403 39.6601 65.8503 39.4701 65.7803 39.5001C65.2246 39.7313 64.6055 39.7609 64.0303 39.5837C63.455 39.4066 62.9598 39.0339 62.6303 38.5301ZM24.3203 123C21.0103 123.33 17.6203 122.81 14.3203 123.22C14.3203 123.22 14.2503 123.28 14.2503 123.31C13.9886 126.037 14.0423 128.785 14.4103 131.5C14.4124 131.525 14.4206 131.549 14.4341 131.57C14.4477 131.59 14.4662 131.608 14.488 131.619C14.5098 131.631 14.5342 131.638 14.5591 131.638C14.5839 131.638 14.6084 131.632 14.6303 131.62C17.8503 131.79 21.2203 131.68 24.4503 131.53C24.5403 131.53 24.5803 131.33 24.5803 131.31C24.6772 128.579 24.6238 125.845 24.4203 123.12C24.4217 123.106 24.4202 123.091 24.4159 123.077C24.4116 123.063 24.4046 123.05 24.3953 123.039C24.3861 123.028 24.3746 123.019 24.3618 123.012C24.3489 123.005 24.3348 123.001 24.3203 123ZM14.6203 125.89C14.6203 125.05 14.6203 124.21 14.5603 123.36C17.7257 123.523 20.8978 123.499 24.0603 123.29C23.9819 124.265 23.9586 125.243 23.9903 126.22C20.8747 125.951 17.7468 125.851 14.6203 125.92V125.89ZM14.8303 131.28C14.6803 129.61 14.6603 127.95 14.6403 126.28C16.1203 126.28 17.6403 126.34 19.0803 126.38C18.9601 127.952 19.0509 129.533 19.3503 131.08C17.8398 131.016 16.3266 131.093 14.8303 131.31V131.28ZM19.8303 131.11C19.8303 130.22 19.6003 127.04 19.4703 126.35C20.9603 126.35 23.9803 126.6 23.9903 126.6C23.9903 128.12 24.1403 129.65 24.1703 131.15C22.7803 131.25 21.3103 131.18 19.8603 131.14L19.8303 131.11Z" fill="black"/>
<path d="M194.32 129.7C194.114 128.323 193.435 127.061 192.4 126.13C191.15 125.18 189.49 125.34 188.02 125.39C185.82 125.46 181.29 125.89 181.29 125.88C180.53 123.75 179.86 121.57 178.98 119.5C178.375 117.738 177.115 116.276 175.46 115.42C173.84 114.72 166.24 115.26 162.72 115.58C165.37 106.82 165.51 94.71 165.51 92.37C165.877 92.1229 166.193 91.8071 166.44 91.44C167.23 90.13 166.68 88.11 166.56 86.7C166.22 82.87 166.01 78.98 165.47 75.17C166.492 74.1306 167.385 72.9723 168.13 71.72C170.55 67.65 170.56 63.12 169.44 58.61C168.32 54.1 165.16 50.61 161.61 47.55C158.084 44.3475 153.703 42.2387 149 41.48C148.516 40.6347 147.958 39.8348 147.33 39.09L146.45 39.6C146.45 38.25 145.89 32.47 145.89 32.47C146.71 32.25 148.33 29.88 148.58 28.14C148.7 26.4447 148.403 24.7458 147.717 23.1912C147.03 21.6366 145.974 20.2733 144.64 19.22C140.94 16.22 133.64 17.63 132.03 18.85C131.588 19.1991 131.077 19.4508 130.531 19.5887C129.984 19.7265 129.415 19.7474 128.86 19.65C128.86 19.65 130.2 20.99 129.38 21.24C128.56 21.49 128 20.13 128 20.13C127.81 22.85 128.9 23.53 128.9 23.53C132.49 27.39 135.2 24.3 135.2 24.3C135.2 24.3 135.57 23.1 139.43 23.97C139.927 24.0409 140.404 24.2162 140.828 24.4843C141.253 24.7525 141.616 25.1074 141.893 25.5257C142.171 25.9441 142.357 26.4165 142.439 26.9119C142.521 27.4072 142.498 27.9144 142.37 28.4L142.86 28.6C143.044 28.3322 143.252 28.0813 143.48 27.85C145.66 26.34 146.22 28.63 146.22 28.63C146.66 30.49 144.37 31.03 144.37 31.03C144.43 33.61 143.96 34.03 143.96 34.03C142.1 36.26 140.21 33.84 140.21 33.84C139.793 33.359 139.266 32.9846 138.675 32.7481C138.083 32.5115 137.444 32.4196 136.81 32.48C134.45 32.58 134.81 33.33 133.81 34.06C133.18 34.52 132.54 34 132.15 33.57C132.15 32.72 131.81 29.39 131.62 28.57V25.66C130.92 25.4554 130.281 25.0809 129.76 24.57C128.76 27.57 130.89 28.49 131.48 28.7C131.55 29.61 131.22 36.54 132.48 39.14C132.817 39.8629 133.328 40.4914 133.966 40.9694C134.605 41.4474 135.351 41.7602 136.14 41.88C136.03 42.47 135.92 43.45 135.9 43.72C133.44 44.08 131.45 45.66 129.54 47.15C127.248 48.901 125.123 50.8593 123.19 53C119.708 56.7786 117.443 61.5172 116.69 66.6L113.26 65.6C113.31 65.3802 113.333 65.1553 113.33 64.93C113.327 64.5276 113.203 64.1355 112.973 63.8049C112.744 63.4743 112.42 63.2206 112.044 63.0769C111.668 62.9333 111.258 62.9063 110.866 62.9997C110.475 63.093 110.121 63.3022 109.85 63.6C109.653 63.8735 109.51 64.1825 109.43 64.51C109.43 64.51 103.69 61.97 100.82 60.74C100.211 60.3455 99.47 60.2088 98.7601 60.36C97.6616 60.9478 96.6871 61.7424 95.8901 62.7V62.64C94.8901 61.41 92.6901 61.51 92.3701 63.3C92.3079 63.8224 92.3909 64.3518 92.6101 64.83C92.1101 65.2 91.6101 65.59 91.0301 65.97C89.6301 62.51 88.3001 58.9 86.0301 55.97C84.1436 53.4613 81.8683 51.2703 79.2901 49.48C75.7535 46.9603 71.4907 45.6646 67.1501 45.79L66.8901 45.16C66.8901 44.75 66.8101 44.34 66.7601 43.94C70.0101 44.21 71.7001 39.32 71.7001 39.32C71.8146 40.1647 71.7289 41.0245 71.4501 41.83C71.4501 41.83 74.7501 37.09 72.8001 29.22C70.8501 21.35 63.8001 23 63.8001 23C55.4301 18.15 51.0801 26.84 51.0801 26.84C45.9801 39.18 55.0801 44.34 55.0801 44.34C54.2001 43.68 54.4801 42.2 54.4801 42.2C54.9366 42.845 55.5341 43.3774 56.2272 43.7569C56.9203 44.1363 57.6908 44.3529 58.4801 44.39C58.4801 44.7 58.3701 45.04 58.3401 45.39L58.1301 46.13C49.4201 49.2 41.7501 54.85 38.7601 63.91C37.3401 68.2 37.2501 72.66 39.4101 76.73C41.2248 80.0333 44.2165 82.5323 47.7901 83.73C47.7468 84.3157 47.8389 84.9035 48.0591 85.448C48.2793 85.9925 48.6218 86.479 49.0601 86.87C48.3801 87.18 46.6301 88.44 45.6301 93.44C45.2201 95.5 44.4601 99.1 43.6301 103.01C39.2601 99.59 32.8401 94.37 32.7401 94.45C23.3601 102 5.05009 117.92 5.05009 117.94C5.03016 117.956 5.01552 117.978 5.00804 118.003C5.00056 118.027 5.00057 118.054 5.00807 118.078C5.01557 118.103 5.03022 118.125 5.05017 118.141C5.07011 118.158 5.09445 118.168 5.12009 118.17C6.63009 118.3 8.12009 118.39 9.67009 118.44C9.67009 127.73 10.4501 146.44 10.4901 146.44H7.00009C6.93017 148.009 6.99037 149.581 7.18009 151.14C14.0801 151.14 40.0701 150.96 49.3201 150.78C49.6201 155.19 49.9901 160.49 49.9901 160.49C49.3801 160.73 46.7601 162.29 45.9401 162.65C44.8401 163.13 43.9401 163.72 44.0801 165.05C44.1268 165.102 44.185 165.143 44.2501 165.17C47.8544 165.44 51.4777 165.299 55.0501 164.75C55.1292 164.724 55.1966 164.671 55.2401 164.6C55.5251 163.59 55.5251 162.52 55.2401 161.51L59.7101 142.91C60.3701 140.28 62.8001 129.79 63.4001 127.2C65.9199 127.185 68.4371 127.031 70.9401 126.74C71.9401 129.8 74.7401 141.5 75.8601 144C76.9801 146.5 77.1001 147.53 77.1201 147.54C79.9701 148.34 82.3301 149.35 85.7501 146.54C85.7806 146.509 85.822 146.492 85.8651 146.492C85.9082 146.492 85.9496 146.509 85.9801 146.54C86.0106 146.57 86.0277 146.612 86.0277 146.655C86.0277 146.698 86.0106 146.739 85.9801 146.77C83.9201 148.98 79.5701 149.27 77.0901 147.61L81.4401 160.4C81.167 161.679 81.167 163.001 81.4401 164.28C81.4401 164.36 87.9801 164.28 91.1901 164.19C91.2901 164.19 91.3701 163.99 91.3701 163.97C91.3991 163.473 91.2783 162.978 91.0234 162.551C90.7685 162.123 90.3911 161.781 89.9401 161.57C89.3601 161.24 86.7501 159.99 86.0501 159.64V144.8C87.2986 146.444 88.6727 147.989 90.1601 149.42C93.5798 152.526 97.26 155.333 101.16 157.81C104.66 160.16 108.35 162.49 112.42 163.7C112.5 163.7 123.18 156.84 128.85 148.39V152.24C129.301 152.705 129.861 153.049 130.48 153.24C130.56 154.07 130.687 154.894 130.86 155.71C129.4 156.71 127.15 158.23 126.77 160.05C126.723 160.217 126.711 160.393 126.735 160.565C126.759 160.737 126.818 160.902 126.91 161.05C126.39 163.54 132 163.05 133.2 162.89C134.76 162.68 140.2 162.37 139.28 159.58C139.28 159.58 139.57 156.08 138.59 155.47C138.68 154.662 138.68 153.847 138.59 153.04C139.99 152.74 140.97 152.44 140.97 152.44L142.21 121.44C144.52 133.34 153.92 153.36 153.92 153.36C154.642 153.465 155.371 153.519 156.1 153.52C156.383 154.211 156.717 154.879 157.1 155.52C156.33 156.25 152.39 160.01 154.51 161.3C154.97 163.76 158.84 162.39 160.27 161.78C161.17 161.4 166.63 158.78 164.9 157.35C164.9 157.35 163.61 154.24 163.17 154.07C163.084 153.252 162.903 152.446 162.63 151.67C163.146 151.346 163.626 150.967 164.06 150.54C164.06 150.54 163.06 144.77 162.06 138.97C167.301 139.121 172.544 138.81 177.73 138.04C177.8 138.04 177.85 137.94 177.86 137.87C177.86 136.53 177.95 135.11 178.99 134.13C179.921 133.372 181.035 132.871 182.22 132.68C185.38 132 186.74 134.12 187.54 136.79C187.54 136.86 192.49 136.56 194.89 136.65C195.02 136.65 195.07 136.37 195.07 136.34C195.056 134.106 194.805 131.88 194.32 129.7ZM136 23.69C134.66 24.46 132.95 23.31 132.54 22C132.54 21.93 132.62 21.88 132.66 21.95C132.98 22.53 134.26 24.01 135.92 23.4C136 23.35 136.11 23.62 136 23.69ZM159.87 46.59C163.37 49.25 167.05 52.65 168.57 56.87C170.09 61.09 170.51 66.34 168.42 70.51C166.398 74.2792 163.204 77.2876 159.32 79.08C154.874 81.125 150.034 82.1695 145.14 82.14C145.114 82.13 145.086 82.13 145.06 82.14C144.125 80.2421 143.028 78.4287 141.78 76.72C147.392 73.1375 153.19 69.8562 159.15 66.89C159.174 66.8759 159.192 66.8548 159.203 66.8297C159.214 66.8046 159.216 66.7767 159.21 66.75C158.6 64.6917 158.194 62.5781 158 60.44C158 60.35 157.85 60.34 157.85 60.44C157.897 62.1493 158.125 63.8488 158.53 65.51C158.73 66.37 159.21 66.51 158.47 66.94C157.03 67.69 147.64 72.68 144.47 74.62C144.33 72.92 143.86 65.02 143.88 65C145.25 62.71 150.44 53.27 151.88 51C151.891 50.9888 151.9 50.9756 151.906 50.961C151.912 50.9464 151.915 50.9308 151.915 50.915C151.915 50.8992 151.912 50.8836 151.906 50.869C151.9 50.8544 151.891 50.8411 151.88 50.83C151.274 49.842 150.545 48.9348 149.71 48.13C150.824 47.2618 152.032 46.5206 153.31 45.92C153.42 45.92 153.55 45.83 153.47 45.71C152.652 44.3933 151.693 43.1695 150.61 42.06C153.968 42.912 157.112 44.4548 159.84 46.59H159.87ZM139.47 81.33C137.58 83.02 137.47 82.05 137.42 81.74C138.121 81.3672 138.77 80.9031 139.35 80.36C139.35 80.36 139.29 80.2 139.24 80.24C138.83 80.52 136.54 82.45 136.54 81.3C137.284 80.3766 138.145 79.5531 139.1 78.85C138.96 78.58 138.46 78.85 138.33 77.18C138.96 77.6571 139.73 77.9137 140.52 77.91C140.994 77.9344 141.464 77.8159 141.87 77.57C142.235 78.3297 142.649 79.0646 143.11 79.77C142.48 80.3755 141.812 80.94 141.11 81.46C140.48 81.9 139.11 82.99 138.31 82.46C138.771 82.1557 139.212 81.8216 139.63 81.46C139.65 81.4 139.5 81.28 139.44 81.33H139.47ZM150.35 42C150.72 42.61 152.73 45.09 153.24 45.79C151.857 46.2392 150.616 47.0425 149.64 48.12L151.74 50.87C149.08 55.44 145.95 59.87 143.87 64.78C144.598 57.0717 146.181 49.4682 148.59 42.11L148.95 41.73L150.35 42ZM147.28 39.32C147.69 40.1 148.28 40.76 148.71 41.56C147.37 42.96 145.89 44.18 144.48 45.56C143.951 44.3448 143.28 43.1968 142.48 42.14C144.185 41.3997 145.796 40.4598 147.28 39.34V39.32ZM141.7 41.55C144.85 40.86 145.64 36.84 145.84 34.38C145.84 34.88 146.04 38.38 146.19 39.64C146.185 39.663 146.185 39.687 146.19 39.71L142.3 42C141.869 42.7898 141.502 43.6124 141.2 44.46C140.863 43.5689 140.462 42.7033 140 41.87C140.57 41.8 141.12 41.7 141.7 41.57V41.55ZM141.07 44.91C141.066 44.931 141.066 44.9526 141.071 44.9735C141.075 44.9944 141.084 45.0143 141.096 45.0319C141.108 45.0496 141.123 45.0647 141.141 45.0763C141.159 45.088 141.179 45.0961 141.2 45.1C141.221 45.1039 141.243 45.1037 141.264 45.0993C141.285 45.0949 141.304 45.0864 141.322 45.0743C141.34 45.0623 141.355 45.0468 141.366 45.0289C141.378 45.011 141.386 44.991 141.39 44.97C141.69 44.06 142.13 43.18 142.39 42.27C142.946 43.4904 143.615 44.6555 144.39 45.75C145.771 44.7572 147.072 43.6571 148.28 42.46C144.99 49.73 143.75 60.13 143.56 63.55C142.76 60.55 139.19 48.33 137.87 45.36C138.206 45.5699 138.586 45.6999 138.98 45.74C139.23 45.31 139.7 42.67 139.98 41.94C140 42.09 140.84 44.34 141.07 44.93V44.91ZM136.44 36.25C136.657 36.314 136.885 36.3319 137.109 36.3026C137.333 36.2732 137.549 36.1972 137.742 36.0794C137.935 35.9617 138.102 35.8048 138.23 35.6189C138.359 35.433 138.448 35.2222 138.49 35C138.49 34.87 138.76 34.94 138.74 35.07C138.45 36.9 136.74 36.76 136.41 36.32C136.39 36.31 136.41 36.27 136.44 36.27V36.25ZM136.38 41.91C137.518 42.0742 138.673 42.0742 139.81 41.91C139.353 43.0546 138.991 44.2354 138.73 45.44C138.43 45.24 136.67 44.22 136.13 43.86C136.14 43.84 136.34 42.63 136.38 41.93V41.91ZM136 44C136.469 44.4393 136.986 44.825 137.54 45.15C138.41 48.48 142.54 61.09 143.35 64.15C142.1 62.37 135.43 55.15 133.76 53.01C134.243 51.934 134.657 50.8285 135 49.7C134.125 49.3605 133.217 49.1125 132.29 48.96C133.293 47.5318 134.091 45.9699 134.66 44.32C135.07 44.18 136 44 136 44ZM116.91 66.62C117.793 61.6245 120.039 56.97 123.4 53.17C125.012 51.3572 126.775 49.6845 128.67 48.17C130.367 46.5987 132.313 45.3212 134.43 44.39C133.56 45.88 132.73 47.66 131.78 49.12C131.7 49.25 133.85 49.66 134.71 49.96C134.52 50.28 133.66 52.5 133.41 53.1C133.41 53.17 142.01 62.8 143.58 65.01C143.45 66.55 144.34 74.73 144.35 74.74C143.42 75.31 142.43 75.96 141.54 76.58C141.46 76.58 141.76 77.11 141.85 77.3C141.48 77.4846 141.074 77.587 140.66 77.6C140.77 75.47 140.58 73 138.76 71.6C137.961 71.0255 137.021 70.6798 136.04 70.6C134.45 70.4 132.86 70.31 131.27 70.08C130.59 69.98 129.9 69.86 129.22 69.73V69.67C128.668 66.6128 128.453 63.5041 128.58 60.4C128.58 60.32 128.45 60.29 128.43 60.4C128.061 63.4997 128.21 66.6391 128.87 69.69C124.8 68.92 120.87 67.76 116.87 66.61L116.91 66.62ZM109.66 64.62C109.755 64.1471 110.022 63.7264 110.41 63.44C110.713 63.2456 111.07 63.1525 111.43 63.174C111.789 63.1956 112.132 63.3308 112.41 63.56C112.715 63.8209 112.934 64.1673 113.039 64.5542C113.144 64.9412 113.131 65.3508 113 65.73C112.86 66.2 112.11 67.59 111.51 66.48C111.546 66.3989 111.576 66.3154 111.6 66.23C111.698 65.7977 111.771 65.3604 111.82 64.92C111.7 65.32 111.63 65.75 111.49 66.14C111.459 66.2638 111.402 66.3795 111.322 66.4795C111.243 66.5795 111.144 66.6615 111.03 66.72C110.71 66.83 110.47 66.58 110.35 66.31C110.543 65.7103 110.661 65.0888 110.7 64.46C110.643 65.1195 110.467 65.7632 110.18 66.36C109.98 66.72 109.6 66.76 109.47 66.36C109.445 66.2244 109.445 66.0855 109.47 65.95C109.484 65.4977 109.548 65.0483 109.66 64.61V64.62ZM95.4801 62.62C95.5701 62.71 95.6501 62.81 95.7401 62.92C95.7409 62.9352 95.746 62.9499 95.7549 62.9623C95.7637 62.9747 95.7759 62.9843 95.7901 62.99C95.9993 63.2574 96.1616 63.5583 96.2701 63.88C96.4001 64.28 96.6701 65.27 95.8401 64.88C95.5896 64.5257 95.3121 64.1914 95.0101 63.88C94.9501 63.88 95.0101 63.88 95.0101 63.88C95.1901 64.2 96.6201 66.17 95.0101 65.73C94.8566 65.2661 94.6118 64.8377 94.2901 64.47C94.2724 64.4575 94.2511 64.4511 94.2294 64.4518C94.2078 64.4524 94.1869 64.4601 94.17 64.4736C94.1531 64.4872 94.141 64.5058 94.1356 64.5268C94.1302 64.5478 94.1318 64.57 94.1401 64.59C94.3401 65.05 95.4601 66.77 94.1401 66.31C93.3884 65.8664 92.8368 65.15 92.6001 64.31C92.4466 63.9343 92.4335 63.516 92.563 63.1315C92.6925 62.7469 92.9561 62.4218 93.3055 62.2156C93.655 62.0093 94.067 61.9356 94.4662 62.0081C94.8655 62.0805 95.2254 62.2941 95.4801 62.61V62.62ZM56.6501 40.5C57.1323 40.4985 57.6097 40.5953 58.0533 40.7844C58.4969 40.9735 58.8973 41.251 59.2301 41.6C59.0501 40.16 56.8701 38.11 56.8701 38.11C54.3201 38.17 54.8701 35.65 54.8701 35.65C54.9852 35.3844 55.1628 35.1505 55.3876 34.9682C55.6124 34.7858 55.8778 34.6604 56.1615 34.6025C56.4451 34.5446 56.7385 34.5559 57.0168 34.6356C57.2951 34.7152 57.55 34.8608 57.7601 35.06C57.7601 35.37 58.3001 36.79 59.0801 36.85C59.8601 36.91 59.5801 37.73 59.5801 37.73C59.5801 37.73 60.1601 36.98 59.5801 36.56C59.0001 36.14 58.9501 35.05 58.9501 35.05C62.2301 34.75 64.5401 26.86 64.5401 26.86C65.3801 31.23 70.1201 31.31 70.1201 31.31C70.1279 33.9037 69.9742 36.4954 69.6601 39.07C69.5239 39.8497 69.1311 40.5615 68.5441 41.0923C67.9571 41.6232 67.2095 41.9427 66.4201 42C66.4201 42 66.4201 44.62 66.5601 45.35C65.4705 46.2903 64.0793 46.8076 62.6401 46.8076C61.2009 46.8076 59.8097 46.2903 58.7201 45.35V44.35C59.1842 44.3823 59.6505 44.3622 60.1101 44.29C57.3101 43.74 56.6501 40.5 56.6501 40.5ZM58.1901 46.35C59.1901 48.21 64.8601 49.35 67.1901 45.97C68.2924 45.9771 69.3924 46.0707 70.4801 46.25C69.7101 54.18 57.9801 54.46 55.1901 47.67C56.1601 47.21 57.1701 46.78 58.1901 46.35ZM40.6301 78C35.2801 70.24 39.2401 59.79 45.4901 53.81C48.2465 51.2878 51.416 49.2583 54.8601 47.81C56.0001 51.44 60.5301 53.26 64.1001 52.81C65.7961 52.6505 67.3871 51.9177 68.6106 50.7324C69.8341 49.5471 70.617 47.9801 70.8301 46.29C73.6917 46.7896 76.4168 47.8831 78.8301 49.5C81.3698 51.2141 83.6183 53.3242 85.4901 55.75C87.9101 58.82 89.2801 62.54 90.7201 66.15C88.3101 67.82 85.4801 69.57 82.5801 71.21C82.0801 70.83 80.9401 69.82 80.7101 69.61C80.7863 66.6477 80.1555 63.7099 78.8701 61.04H78.7701C80.8301 66.13 80.2601 70.39 80.3501 72.39C75.0701 75.23 69.9701 77.5 67.3501 78.06C67.3501 78.06 67.3501 77.91 67.2701 77.89C63.0801 76.5 50.5901 72.05 50.5701 72.05C50.8286 70.3768 50.9989 68.6911 51.0801 67C51.0801 67 51.0001 67 51.0001 67.06C50.5701 68.71 50.5101 70.5 50.2401 72.19C50.235 72.2206 50.2389 72.252 50.2513 72.2804C50.2638 72.3088 50.2842 72.333 50.3101 72.35C55.7501 74.7 61.4901 76.35 67.1301 78.14C67.2625 80.047 67.1753 81.9629 66.8701 83.85C58.0001 84.66 46.5301 86.55 40.6301 78ZM82.2701 71.39C81.7101 71.71 81.1401 72.02 80.5801 72.32C80.6401 71.57 80.6801 70.78 80.6901 69.97C81.1656 70.4973 81.6952 70.9732 82.2701 71.39ZM67.4601 79.56C67.7922 79.7008 68.1493 79.7734 68.5101 79.7734C68.8709 79.7734 69.2279 79.7008 69.5601 79.56C70.3001 79.17 70.6701 78.36 71.3401 77.87C71.3841 78.4166 71.2355 78.9614 70.9201 79.41C70.8501 79.5 70.9201 79.61 71.0601 79.6C71.7401 79.7 73.1501 79.43 73.6401 79.83C74.3301 80.38 71.8701 80.62 71.2401 80.7C71.1401 80.7 71.1701 80.86 71.2401 80.87C72.0179 80.8654 72.7904 80.7406 73.5301 80.5C74.1201 82 71.6301 81.66 71.1601 81.83C71.1401 81.8366 71.1227 81.8493 71.1103 81.8663C71.098 81.8834 71.0913 81.9039 71.0913 81.925C71.0913 81.9461 71.098 81.9666 71.1103 81.9836C71.1227 82.0007 71.1401 82.0134 71.1601 82.02C71.7429 82.0598 72.3283 82.0195 72.9001 81.9C73.4301 83.15 68.5401 84.13 67.3101 82.47C67.4463 81.5064 67.4965 80.5325 67.4601 79.56ZM52.1901 98C52.1901 97.94 52.3201 98 52.3101 98C52.0601 101.8 49.6601 117.26 48.9301 121.17C48.9301 121.28 48.7501 121.23 48.7701 121.17C49.2901 117.31 51.4301 101.84 52.1901 98ZM44.2401 123.33C45.2849 123.854 46.3602 124.315 47.4601 124.71C47.4601 125 47.5201 125.4 47.5501 125.85C45.0701 125.61 42.7101 126.1 40.2401 125.93C40.2401 125.04 40.1701 123.4 40.1701 123.4C40.8401 123.38 42.7301 123.34 44.2401 123.36V123.33ZM44.9701 126.21H47.5001C47.5901 127.42 47.6901 129.08 47.7901 130.86C46.9025 130.735 46.0041 130.705 45.1101 130.77C45.1581 129.259 45.1214 127.747 45.0001 126.24L44.9701 126.21ZM44.7201 130.76C44.6101 130.76 41.7201 130.76 40.4101 130.82C40.4101 129.62 40.2401 126.58 40.2401 126.26C41.7184 126.359 43.2018 126.359 44.6801 126.26C44.5026 127.766 44.516 129.288 44.7201 130.79V130.76ZM5.84009 117.92C14.8401 110.06 23.5601 102.6 32.7601 94.92C36.1701 97.92 39.9301 100.6 43.5901 103.33C42.4601 108.58 41.2201 114.33 40.5001 117.64C31.2901 117.8 11.4701 118 5.84009 117.92ZM7.54009 150.85C7.60373 149.451 7.51656 148.05 7.28009 146.67C10.6301 147.07 40.7401 146.73 49.0001 146.6C49.0601 147.6 49.1601 148.95 49.2601 150.43C40.0001 150.43 14.3601 150.67 7.54009 150.85ZM30.4201 137.39C32.2499 137.247 34.0872 137.223 35.9201 137.32C35.9201 137.32 35.9201 144.8 36.0801 146.42L30.6101 146.51C30.5301 143.38 30.6101 140.5 30.4201 137.39ZM54.9601 164.39C49.4001 165.34 46.1101 164.79 44.3601 164.9C44.2901 164.45 45.0301 163.42 45.3601 163.17C45.6901 162.92 50.0001 160.86 50.0001 160.86C51.3501 163.31 54.1401 162.13 55.0001 161.7C55.2257 162.596 55.2257 163.534 55.0001 164.43L54.9601 164.39ZM58.4701 146.82C55.0301 148.33 51.6201 147.38 48.8901 144.93L48.9701 146.17L36.4501 146.37C36.598 143.248 36.5077 140.119 36.1801 137.01C36.1801 137.01 31.9401 136.44 30.0501 136.94C29.9901 136.94 30.1001 143.34 30.1801 146.47L11.1801 146.4C11.1801 146.4 10.8401 127.69 10.3101 118.4C14.5701 118.53 31.7601 118.2 40.4501 118.02L39.9201 120.45C41.0017 121.456 42.2124 122.313 43.5201 123C42.3384 122.876 41.1441 122.957 39.9901 123.24C39.9837 123.263 39.9837 123.287 39.9901 123.31C39.7802 125.908 39.8204 128.52 40.1101 131.11C40.1101 131.11 40.1801 131.23 40.2301 131.23C41.4701 131.31 46.4601 131.08 47.9201 131.29C48.1501 135.42 48.4201 140.09 48.6801 141.69C48.6801 141.69 48.9701 144.82 49.0201 144.85C50.4301 145.85 53.9101 148.64 58.4201 146.65C58.5101 146.58 58.6001 146.81 58.4701 146.86V146.82ZM59.3201 142.94C55.0001 144 50.2001 142.16 49.0001 141.62C48.6001 138.7 48.3601 127.43 47.7501 124.83C52.6629 126.476 57.8193 127.278 63.0001 127.2C62.2201 129.7 59.8701 140.27 59.3201 143V142.94ZM57.8401 108.94C57.8471 108.918 57.861 108.898 57.8799 108.884C57.8988 108.87 57.9216 108.863 57.9451 108.863C57.9685 108.863 57.9914 108.87 58.0103 108.884C58.0291 108.898 58.0431 108.918 58.0501 108.94C58.0501 112.38 58.1601 115.83 58.0501 119.27C58.0501 119.37 57.8901 119.37 57.8801 119.27C57.7301 115.88 57.8301 112.43 57.8401 109V108.94ZM65.4701 87.62C63.2301 87.74 52.4701 88.24 49.3801 86.72H49.3301C48.543 85.9097 48.0682 84.8469 47.9901 83.72C48.4101 83.87 48.8501 84 49.2801 84.12C54.6701 85.53 60.2801 84.7 65.7101 84.21C65.5566 85.357 65.4764 86.5127 65.4701 87.67V87.62ZM76.2401 144.11C75.2401 141.24 72.3201 129.43 71.1101 126.66C72.1101 126.54 74.2401 126.17 74.9901 126.04C75.9901 128.13 77.1901 130.15 78.2901 132.18C79.3901 134.21 80.5601 136.39 81.7701 138.44C82.7701 140.09 83.7701 141.71 84.8801 143.27C81.5301 145.62 77.5601 144.6 76.2401 144.16V144.11ZM90.7501 163.74C87.5801 163.81 85.0601 164.06 81.7501 163.88C81.515 162.785 81.4777 161.658 81.6401 160.55C84.7401 163.12 85.9801 159.78 85.9801 159.78C86.6701 160.42 90.7201 162.29 90.7501 163.79V163.74ZM130.63 153.24C132.88 153.9 136.05 153.47 138.27 153.01C138.17 153.84 138.82 156.83 135.15 157.25C130.57 157.84 130.83 154.07 130.63 153.29V153.24ZM133.71 162.35C132.44 162.56 127.4 163.35 127.05 161.22C127.43 161.474 127.873 161.616 128.33 161.63C130.07 161.77 138.44 160.25 138.91 159.69C139.44 161.9 135.08 162.18 133.71 162.4V162.35ZM138.91 159.47C138.38 159.96 131.5 161.18 130.08 161.29C128.66 161.4 126.16 161.62 127.21 159.45C127.431 159.014 127.71 158.61 128.04 158.25C128.453 158.659 128.891 159.043 129.35 159.4C129.47 159.48 129.59 159.34 129.53 159.22C129.216 158.715 128.765 158.309 128.23 158.05C128.52 157.75 128.85 157.45 129.18 157.17C129.38 157.33 130.09 158.11 130.31 158.24C130.333 158.253 130.359 158.259 130.385 158.257C130.411 158.256 130.436 158.246 130.456 158.23C130.477 158.214 130.492 158.192 130.5 158.167C130.508 158.142 130.508 158.115 130.5 158.09C130.278 157.604 129.897 157.209 129.42 156.97L130.15 156.38C130.68 156.72 131.15 157.14 131.67 157.5C131.74 157.5 131.83 157.5 131.78 157.4C131.386 156.907 130.887 156.507 130.32 156.23C130.518 156.068 130.725 155.918 130.94 155.78C131.382 156.358 131.953 156.825 132.607 157.144C133.261 157.463 133.98 157.625 134.708 157.618C135.435 157.612 136.151 157.436 136.799 157.104C137.447 156.773 138.009 156.296 138.44 155.71C139.16 156.47 138.91 158.87 138.91 159.52V159.47ZM140.66 119.26C139.9 128.83 128.76 147.4 128.76 147.4V147.64C123 156 115.35 161 112.38 163.39C108.2 162.14 104.44 159.71 100.85 157.29C96.987 154.816 93.3555 151.998 90.0001 148.87C86.8073 145.606 84.0693 141.926 81.8601 137.93C79.5401 133.93 77.5801 129.75 75.1601 125.84C74.1601 123.7 66.2901 105.68 65.8801 87.65C65.9714 86.519 65.9881 85.3832 65.9301 84.25L66.8701 84.17C66.9322 84.1306 66.9783 84.0703 67.0001 84C67.1126 83.5925 67.1995 83.1784 67.2601 82.76C67.7936 83.1324 68.4034 83.3813 69.0451 83.4885C69.6869 83.5958 70.3445 83.5587 70.9701 83.38C71.7001 83.22 73.5001 82.88 73.1301 81.77C73.2436 81.7273 73.3512 81.6702 73.4501 81.6C73.5545 81.5467 73.6443 81.4687 73.7117 81.3727C73.779 81.2768 73.822 81.1659 73.8368 81.0496C73.8516 80.9333 73.8377 80.8152 73.7965 80.7055C73.7552 80.5957 73.6878 80.4977 73.6001 80.42C73.9601 80.24 74.1201 79.99 73.8401 79.64C73.69 79.5152 73.5156 79.4232 73.3279 79.3698C73.1401 79.3164 72.9433 79.3028 72.7501 79.33C72.215 79.3231 71.6802 79.3565 71.1501 79.43C71.5101 78.93 71.7001 77.21 71.2101 77.51C70.7616 77.8569 70.3702 78.2719 70.0501 78.74C69.3001 79.6 68.4301 79.51 67.4101 79.35C67.4101 79 67.4101 78.65 67.3201 78.35C69.3332 78.0949 71.2861 77.4891 73.0901 76.56C75.4301 75.56 86.7801 70.33 92.7001 65.17C92.8551 65.5197 93.0808 65.8335 93.363 66.0917C93.6453 66.3498 93.978 66.5467 94.3401 66.67C95.0001 66.82 95.1201 66.44 95.0201 65.96C95.0914 66.0116 95.174 66.0453 95.261 66.0584C95.348 66.0714 95.4369 66.0634 95.5201 66.035C95.6034 66.0066 95.6786 65.9586 95.7395 65.8951C95.8004 65.8316 95.8452 65.7544 95.8701 65.67C95.9449 65.4632 95.9449 65.2368 95.8701 65.03C96.2301 65.22 96.4901 65.25 96.6001 64.82C96.6367 64.4713 96.6025 64.1188 96.4993 63.7837C96.3962 63.4486 96.2264 63.1378 96.0001 62.87C96.7101 62.31 97.3701 61.7 98.0701 61.13C99.5001 59.99 101.25 61.32 102.68 61.93C104.86 62.87 109.32 64.78 109.35 64.74C109.287 65.0068 109.24 65.2773 109.21 65.55C109.21 65.92 109 66.63 109.48 66.82C109.79 66.94 110.02 66.76 110.18 66.46C110.209 66.5596 110.261 66.6511 110.331 66.7273C110.401 66.8035 110.488 66.8623 110.585 66.8991C110.682 66.936 110.787 66.9498 110.89 66.9395C110.993 66.9293 111.092 66.8952 111.18 66.84C111.256 66.7909 111.323 66.7301 111.38 66.66C111.65 67.1 112.15 67.34 112.56 66.94C112.885 66.6279 113.12 66.2341 113.24 65.8C118.324 67.577 123.532 68.9808 128.82 70C131.33 70.47 133.89 70.56 136.4 71C139.78 71.57 140.51 74.62 140.4 77.6C140.156 77.5869 139.915 77.5467 139.68 77.48C139.163 77.3197 138.655 77.1294 138.16 76.91C138.16 76.91 138.1 76.91 138.1 76.97C137.999 77.3658 138.031 77.7838 138.19 78.16C138.28 78.4534 138.476 78.7028 138.74 78.86C138.148 79.1687 137.621 79.5899 137.19 80.1C136.9 80.4 136.09 81.1 136.19 81.6C136.29 82.1 136.81 81.96 137.19 81.85C137.149 81.9393 137.132 82.0374 137.14 82.1352C137.147 82.2329 137.18 82.3272 137.234 82.4091C137.288 82.491 137.361 82.5579 137.448 82.6035C137.535 82.6492 137.632 82.672 137.73 82.67H138.04C138.66 83.37 139.56 82.79 140.19 82.38L141.02 81.85C141.02 84.24 141.39 86.64 141.61 89.02C141.77 90.85 141.85 92.71 142.09 94.54C142.57 108.28 141.41 109.76 140.66 119.31V119.26ZM142.43 94.47C142.3 92.47 142.02 90.47 141.85 88.47C141.65 86.2 141.57 83.88 141.21 81.63C141.983 81.1356 142.691 80.5478 143.32 79.88C143.83 80.69 144.37 81.48 144.85 82.25C144.985 82.333 145.134 82.3906 145.29 82.42C145.11 84.42 146.08 92.11 146.44 94.85C144.5 94.79 143.06 94.61 142.43 94.52V94.47ZM146.63 94.87C146.42 92.09 145.88 84.42 145.63 82.42C152.69 82.31 160.19 80.36 165.28 75.31C165.39 78.43 166.36 87.77 166.41 89.31C166.482 89.7868 166.433 90.274 166.267 90.7266C166.101 91.1793 165.823 91.5828 165.46 91.9C159.16 95 151.44 95.19 146.63 94.92V94.87ZM160.63 161.13C159.02 161.86 155.78 163.28 154.7 161.25C155.265 161.299 155.834 161.245 156.38 161.09C159.371 160.513 162.198 159.284 164.66 157.49C165.75 158.68 161.26 160.87 160.58 161.18L160.63 161.13ZM164.56 157.24C162.245 158.968 159.568 160.147 156.73 160.69C155.84 160.87 154.41 161.22 154.23 160.03C154.259 159.59 154.419 159.168 154.69 158.82C154.8 158.62 154.93 158.43 155.06 158.24C155.421 158.432 155.735 158.702 155.98 159.03C156.09 159.11 156.19 158.96 156.15 158.86C155.928 158.496 155.595 158.212 155.2 158.05C155.39 157.79 155.59 157.54 155.79 157.29C156.5 157.58 156.69 158.14 156.9 158.29C157.11 158.44 157.08 158.29 157.05 158.18C156.798 157.719 156.415 157.344 155.95 157.1L156.46 156.48C157.22 156.95 157.46 157.56 157.68 157.77C157.77 157.84 157.95 157.77 157.9 157.64C157.634 157.065 157.206 156.578 156.67 156.24L157.2 155.58C158.38 157.58 162.92 156.58 163.09 154.28C163.66 155.235 164.136 156.243 164.51 157.29L164.56 157.24ZM162.36 151.68C162.56 152.42 164.01 155.57 160.14 156.27C157.45 156.76 156.42 153.55 156.36 153.42C158.456 153.378 160.505 152.796 162.31 151.73L162.36 151.68ZM188 136.38C187.53 136.17 187.53 135.77 187.36 135.38C187.135 134.731 186.836 134.111 186.47 133.53C184.82 131.33 181.47 131.93 179.34 133.13C178.81 133.448 178.361 133.884 178.028 134.404C177.695 134.925 177.487 135.516 177.42 136.13C177.408 136.398 177.382 136.665 177.34 136.93C177.15 137.6 177 137.58 176.28 137.67C175.35 137.79 166.93 138.37 162.17 138.51C161.42 134.13 160.68 129.79 160.36 128.02C159.885 126.028 159.807 123.962 160.13 121.94C161.343 120.125 162.264 118.13 162.86 116.03C165.97 115.82 172.86 115.22 174.62 115.68C176.81 116.28 177.98 118.14 178.79 120.12C179.6 122.1 180.22 124.3 180.92 126.27C180.92 126.35 181.13 126.39 181.16 126.39C182.9 126.39 184.68 126.14 186.42 126.06C188.16 125.98 190.5 125.32 191.98 126.42C193.063 127.432 193.739 128.805 193.88 130.28C194.226 132.21 194.394 134.169 194.38 136.13C192.62 136.07 188.28 136.51 188 136.38Z" fill="black"/>
<path d="M185.17 141.5C185.509 141.23 185.789 140.895 185.993 140.513C186.198 140.132 186.323 139.712 186.36 139.281C186.398 138.85 186.347 138.415 186.211 138.004C186.075 137.593 185.857 137.214 185.57 136.89C184.954 136.119 184.095 135.578 183.134 135.355C182.172 135.132 181.163 135.239 180.27 135.66C178.21 136.88 178.83 139.45 179.77 140.75C180.85 142.23 183.69 142.5 185.17 141.5ZM180.43 136C181.032 135.707 181.703 135.585 182.369 135.647C183.035 135.709 183.672 135.952 184.21 136.35C185.61 137.26 186.49 139.42 185.21 140.8C184.21 141.87 181.79 141.8 180.68 140.95C178.54 139.34 179.32 136.54 180.43 136Z" fill="black"/>
<path d="M183.001 139C183.184 138.813 183.286 138.562 183.286 138.3C183.286 138.038 183.184 137.787 183.001 137.6C182.815 137.426 182.57 137.329 182.316 137.329C182.061 137.329 181.816 137.426 181.631 137.6C181.537 137.678 181.46 137.775 181.406 137.884C181.351 137.994 181.319 138.113 181.313 138.235C181.306 138.357 181.325 138.479 181.368 138.593C181.41 138.708 181.476 138.812 181.561 138.9C181.647 139.004 181.753 139.089 181.873 139.15C181.993 139.211 182.125 139.248 182.259 139.257C182.394 139.267 182.529 139.249 182.656 139.204C182.784 139.16 182.901 139.091 183.001 139ZM182.591 137.81C182.666 137.839 182.733 137.886 182.787 137.946C182.841 138.006 182.88 138.078 182.9 138.156C182.921 138.235 182.922 138.316 182.905 138.395C182.888 138.474 182.852 138.548 182.801 138.61C181.791 139.68 181.201 137.35 182.571 137.79L182.591 137.81ZM173.791 119.12C171.791 117.58 168.011 118.64 165.881 119.28C165.858 119.283 165.838 119.293 165.823 119.31C165.809 119.326 165.8 119.348 165.801 119.37C165.981 121.72 166.531 124.22 166.901 126.55C166.901 126.55 173.171 125.76 176.281 125.77C176.361 125.77 176.511 125.77 176.501 125.66C176.211 123.42 175.701 120.6 173.791 119.12ZM167.181 126.12C166.851 123.96 166.711 121.73 166.281 119.58C168.391 119.18 171.891 118.05 173.701 119.68C175.281 121.09 175.641 123.37 175.941 125.36C174.481 125.36 168.641 125.9 167.181 126.14V126.12ZM183.941 145.46C181.041 143.71 177.021 144.3 173.941 145.46C172.321 146.051 170.801 146.884 169.431 147.93C168.361 148.76 167.361 149.73 167.581 151.18C167.581 151.4 169.231 156.65 169.261 156.66C171.931 158.37 175.891 158.26 178.851 157.55C180.496 157.161 182.071 156.521 183.521 155.65C184.816 154.844 185.878 153.714 186.601 152.37C186.601 152.37 186.341 149.04 186.331 148.96C186.245 148.227 185.983 147.525 185.567 146.916C185.151 146.306 184.592 145.806 183.941 145.46ZM168.691 149.15C169.939 147.839 171.457 146.816 173.141 146.15C176.361 144.72 180.961 144.24 183.631 145.81C185.361 146.81 186.521 148.92 185.251 150.81C184.185 152.079 182.806 153.048 181.251 153.62C178.101 155.03 173.731 156.16 170.541 154.29C168.831 153.29 167.181 151 168.691 149.15ZM182.861 155.5C181.572 156.208 180.193 156.737 178.761 157.07C175.769 157.858 172.6 157.618 169.761 156.39C169.761 156.39 169.011 154.15 168.641 153.05C169.33 153.875 170.198 154.533 171.178 154.974C172.158 155.416 173.226 155.63 174.301 155.6C177.812 155.51 181.219 154.383 184.091 152.36C184.868 151.864 185.483 151.151 185.861 150.31C185.951 150.95 186.031 152.26 186.031 152.31C185.283 153.642 184.187 154.744 182.861 155.5Z" fill="black"/>
<path d="M175.19 153.24L174.89 153.77C174.78 153.97 175.09 154.15 175.2 153.95L175.54 153.36C175.877 153.462 176.233 153.484 176.58 153.425C176.927 153.366 177.256 153.227 177.54 153.02C177.71 152.89 177.54 152.63 177.32 152.73C176.843 152.997 176.287 153.085 175.75 152.98C176.33 151.98 176.95 151.07 177.58 150.15C177.81 150.15 178.04 150.15 178.28 150.21C178.731 150.281 179.192 150.211 179.6 150.008C180.009 149.806 180.344 149.482 180.56 149.08C180.697 148.719 180.717 148.323 180.616 147.95C180.516 147.576 180.3 147.244 180 147L179.85 146.9L180.19 146.38C180.196 146.373 180.201 146.365 180.203 146.356C180.206 146.347 180.207 146.337 180.206 146.328C180.205 146.319 180.202 146.31 180.198 146.302C180.193 146.293 180.187 146.286 180.18 146.28C180.173 146.274 180.165 146.27 180.156 146.267C180.147 146.265 180.137 146.264 180.128 146.265C180.119 146.265 180.11 146.268 180.102 146.273C180.093 146.277 180.086 146.283 180.08 146.29C179.92 146.45 179.76 146.61 179.61 146.78C179.077 146.628 178.517 146.597 177.97 146.689C177.424 146.78 176.904 146.993 176.45 147.31C176.36 147.37 176.45 147.53 176.53 147.49C177.039 147.26 177.578 147.102 178.13 147.02C178.529 146.973 178.933 147.003 179.32 147.11C178.596 147.956 177.928 148.848 177.32 149.78C176.27 149.67 175.06 149.59 174.32 150.56C174.154 150.781 174.043 151.039 173.997 151.311C173.952 151.584 173.972 151.864 174.058 152.127C174.143 152.39 174.291 152.628 174.488 152.822C174.685 153.016 174.926 153.159 175.19 153.24ZM179.64 147.17C179.893 147.255 180.106 147.431 180.237 147.664C180.368 147.897 180.409 148.17 180.35 148.43C180.09 149.77 178.93 149.88 177.85 149.79C178.45 148.92 179.05 148.05 179.64 147.17ZM176 150.05C176.333 150.013 176.668 150.013 177 150.05C176.41 150.96 175.86 151.9 175.33 152.82C173.51 152 174.57 150.22 176 150.05ZM65.0703 172.61C64.7293 171.706 64.1748 170.897 63.454 170.253C62.7332 169.608 61.8674 169.148 60.9303 168.91C58.1447 168.198 55.2088 168.348 52.5103 169.34C50.1703 170.08 46.5103 172.15 47.2503 175.17C47.3403 175.81 48.5703 180.41 48.6403 180.41C51.0203 182.85 55.0603 182.78 58.1703 182.41C60.9303 182.04 64.8503 181.03 65.9303 178.07C65.7498 176.263 65.4694 174.467 65.0902 172.69C65.0956 172.684 65.0995 172.677 65.1014 172.669C65.1033 172.661 65.1033 172.653 65.1013 172.645C65.0993 172.637 65.0955 172.63 65.0901 172.624C65.0847 172.618 65.0779 172.613 65.0703 172.61ZM47.8803 173C48.8635 171.426 50.4014 170.277 52.1903 169.78C54.9591 168.727 57.9822 168.539 60.8603 169.24C62.8003 169.69 65.2603 171.6 64.8603 173.86C64.5203 175.95 62.8603 176.86 61.0703 177.55C57.8088 178.98 54.1347 179.158 50.7503 178.05C48.6503 177.23 46.5803 175.39 47.8803 173ZM57.6803 182.07C56.1203 182.276 54.5402 182.276 52.9803 182.07C51.4795 181.793 50.0547 181.2 48.8003 180.33C48.8003 180.33 48.2603 177.79 47.9503 176.58C49.4903 178.49 52.8203 179 55.0003 179C56.8334 178.998 58.6527 178.683 60.3803 178.07C61.8553 177.685 63.21 176.935 64.3203 175.89C64.647 175.519 64.8984 175.088 65.0602 174.62C65.2002 175.75 65.6302 177.98 65.6302 177.98C63.7502 180.7 60.8503 181.65 57.6803 182V182.07Z" fill="black"/>
<path d="M54.3403 176.9L54.1103 177.26C54.0403 177.37 54.2103 177.51 54.2903 177.4L54.5803 177.01C54.9867 177.185 55.4273 177.264 55.8691 177.244C56.3108 177.223 56.7421 177.102 57.1303 176.89C57.2803 176.8 57.1903 176.54 57.0103 176.6C56.3012 176.876 55.5212 176.911 54.7903 176.7C55.3803 175.81 56.6903 173.46 56.8403 173.24C57.7403 173.34 58.7003 173.37 59.2603 172.53C59.3965 172.386 59.4948 172.21 59.5462 172.018C59.5977 171.826 59.6008 171.625 59.5552 171.431C59.5096 171.238 59.4168 171.059 59.285 170.911C59.1533 170.762 58.9867 170.648 58.8003 170.58L58.9903 170.31C59.0603 170.22 58.9203 170.13 58.8403 170.2L58.5503 170.48C58.1363 170.321 57.6905 170.261 57.2492 170.306C56.8078 170.351 56.3834 170.5 56.0103 170.74C55.9303 170.81 56.0103 170.91 56.1203 170.87C56.625 170.656 57.1731 170.563 57.7203 170.6C57.9255 170.614 58.1276 170.658 58.3203 170.73C57.7007 171.399 57.1512 172.129 56.6803 172.91C56.218 172.806 55.7436 172.765 55.2703 172.79C54.8188 172.839 54.3892 173.009 54.0279 173.284C53.6665 173.559 53.3873 173.928 53.2203 174.35C53.0389 174.837 53.0544 175.376 53.2635 175.852C53.4725 176.328 53.8588 176.704 54.3403 176.9ZM58.5903 170.9C59.4603 171.45 59.2103 172.7 57.7803 172.97C57.5348 173.005 57.2857 173.005 57.0403 172.97C57.5303 172.24 58.0603 171.56 58.5903 170.87V170.9ZM56.5003 173.24C55.8203 174.35 55.2203 175.51 54.5003 176.61C54.2764 176.492 54.0803 176.327 53.9251 176.127C53.7699 175.927 53.6592 175.696 53.6003 175.45C53.1303 173.51 55.0003 173.06 56.5003 173.21V173.24ZM36.5603 155.62C33.9643 154.254 30.9828 153.807 28.1003 154.35C25.6903 154.62 21.7003 155.96 21.8803 159.03C21.8803 159.65 22.1203 164.37 22.1803 164.39C23.9903 167.19 27.8103 167.97 30.8903 168.22C33.7103 168.45 37.8903 168.32 39.5903 165.57L39.8603 160.1C39.7034 159.146 39.3225 158.242 38.7489 157.463C38.1752 156.685 37.4252 156.053 36.5603 155.62ZM39.3203 165.49C36.9703 167.69 34.0203 168.07 30.8903 167.82C29.3126 167.731 27.7531 167.438 26.2503 166.95C24.7804 166.371 23.4533 165.481 22.3603 164.34C22.3603 164.34 22.3603 161.75 22.2903 160.51C23.4403 162.76 26.7303 163.95 28.9503 164.38C30.6912 164.713 32.4751 164.757 34.2303 164.51C35.7266 164.421 37.1785 163.967 38.4603 163.19C38.8624 162.888 39.202 162.511 39.4603 162.08C39.3503 163.21 39.3203 165.49 39.3203 165.49ZM39.5403 160.91C38.9503 163.01 37.1203 163.65 35.1903 164.03C31.711 164.809 28.0669 164.294 24.9403 162.58C23.0803 161.48 21.2303 159.41 22.7403 157.23C23.3162 156.518 24.0286 155.928 24.8358 155.495C25.6429 155.063 26.5284 154.796 27.4403 154.71C30.4867 154.084 33.6552 154.496 36.4403 155.88C38.0703 156.7 40.1203 158.88 39.5403 160.91Z" fill="black"/>
<path d="M34.2005 156.75L34.3705 156.6C34.4505 156.53 34.3705 156.4 34.2505 156.45L34.0105 156.61C33.6109 156.399 33.1725 156.272 32.7221 156.236C32.2717 156.2 31.8186 156.255 31.3905 156.4C31.3716 156.409 31.3566 156.425 31.3482 156.445C31.3397 156.464 31.3384 156.486 31.3443 156.506C31.3503 156.526 31.3632 156.544 31.3808 156.555C31.3984 156.567 31.4195 156.572 31.4405 156.57C32.2017 156.445 32.9825 156.528 33.7005 156.81C33.0088 157.301 32.3658 157.856 31.7805 158.47L31.2105 158.39C30.7378 158.245 30.2384 158.21 29.75 158.286C29.2615 158.362 28.7967 158.548 28.3905 158.83C28.1334 159.022 27.9262 159.273 27.7863 159.561C27.6464 159.85 27.578 160.168 27.5868 160.488C27.5956 160.809 27.6814 161.123 27.837 161.403C27.9925 161.684 28.2132 161.923 28.4805 162.1L28.1805 162.41C28.0705 162.51 28.2305 162.66 28.3505 162.57L28.6905 162.26C29.0442 162.531 29.4599 162.709 29.8999 162.779C30.3399 162.849 30.7903 162.808 31.2105 162.66C31.2428 162.643 31.2681 162.614 31.2821 162.58C31.296 162.546 31.2979 162.509 31.2874 162.474C31.2768 162.438 31.2545 162.408 31.2241 162.387C31.1937 162.367 31.1571 162.357 31.1205 162.36C30.3939 162.447 29.6578 162.322 29.0005 162C29.8105 161.21 31.6705 159.06 31.8805 158.86C32.5175 158.99 33.1765 158.962 33.8005 158.78C34.0877 158.704 34.3345 158.521 34.4892 158.267C34.6439 158.014 34.6945 157.71 34.6305 157.42C34.5669 157.155 34.4153 156.918 34.2005 156.75ZM28.7305 161.84C28.5511 161.74 28.3938 161.604 28.268 161.442C28.1422 161.279 28.0504 161.093 27.9981 160.894C27.9458 160.695 27.9342 160.488 27.9638 160.284C27.9934 160.081 28.0637 159.886 28.1705 159.71C28.7205 158.6 29.8205 158.55 30.8905 158.71L31.4705 158.8C30.5305 159.78 29.6705 160.85 28.7305 161.84ZM33.1105 158.53C32.8079 158.56 32.5031 158.56 32.2005 158.53C32.7705 158 33.3705 157.53 33.9605 156.98C34.0679 157.063 34.1532 157.171 34.209 157.295C34.2648 157.419 34.2893 157.555 34.2805 157.69C34.2705 158.37 33.6305 158.49 33.1105 158.53Z" fill="black"/>
</svg>
