<svg width="200" height="200" viewBox="0 0 200 200" fill="none" xmlns="http://www.w3.org/2000/svg">
<path d="M72.9538 178.004C51.0608 179.12 14.8848 181.793 14.8078 183.47C14.7318 185.118 20.9578 182.421 63.0098 179.918C65.7748 179.753 68.5828 179.607 71.4168 179.475C71.8348 179.056 72.3348 178.58 72.9538 178.004Z" fill="black"/>
<path d="M120.885 177.146C121.165 177.487 121.455 177.845 121.768 178.244C121.833 178.327 121.887 178.401 121.951 178.483C154.74 178.519 181.576 179.588 182.202 179.294C185.718 177.642 151.229 177.113 120.885 177.147V177.146Z" fill="black"/>
<path d="M165.016 49.4826C164.835 49.4666 164.602 49.4426 164.34 49.4146C164.593 52.6896 164.799 56.4776 164.984 60.2176C164.772 73.1136 166.545 130.258 162.59 130.835C151.853 132.403 113.48 134.022 108.696 134.283C87.2597 135.452 46.6567 135.558 25.0097 133.701C18.3117 133.126 19.0127 133.518 18.8557 129.338C16.1167 56.4986 19.7967 43.0526 19.8157 42.0246C19.8377 40.8176 20.1207 38.3646 20.5607 37.2126C20.7337 36.7596 20.9987 36.3996 21.5707 36.3226C23.0477 36.1246 21.5377 35.7186 33.6867 34.7676C60.8217 32.6406 102.964 30.1826 135.968 32.2466C135.308 29.4176 135.241 26.4586 135.762 23.5646C94.7037 21.3876 26.1537 23.5086 15.1947 29.5366C13.1197 30.6776 12.6657 32.2736 12.0237 34.0436C6.68968 48.7626 8.81368 135.031 12.1287 149.53C12.8767 152.803 13.2947 154.569 15.1847 155.948C17.4697 157.616 24.0607 158.469 25.3097 158.52C26.1847 158.555 29.2547 159.212 32.9487 159.689C35.9247 160.073 40.7977 160.316 40.9357 160.334C50.1757 161.478 61.1557 161.526 78.3957 161.761C78.9067 161.768 78.8547 161.707 78.6747 164.097C77.9927 173.137 78.5977 173.285 77.5027 173.84C70.1547 180.545 70.9857 179.688 67.5257 184.18C66.5257 185.479 65.2557 187.367 65.3397 188.868C65.3867 189.704 65.4727 192.412 65.8177 193.122C67.1487 195.859 91.2107 194.865 94.6197 194.634C101.991 194.134 119.234 194.054 125.671 192.59C126.28 192.451 126.644 192.103 126.848 191.528C127.221 190.48 127.546 187.287 127.03 186.302C126.037 184.403 124.652 181.928 121.766 178.244C114.631 169.139 116.161 175.766 115.17 168.471C114.14 160.884 114.207 161.28 114.559 161.287C114.333 161.294 150.015 159.632 164.171 156.223C166.567 155.646 168.842 155.053 170.157 152.556C175.127 143.117 175.751 76.4306 173.91 48.4266C171.638 49.0416 171.208 49.0556 165.014 49.4826H165.016ZM115.883 178.776C116.172 179.586 116.368 179.607 116.683 179.58C117.533 179.508 116.826 177.787 116.05 173.978C119.503 176.994 123.261 182.601 125.541 185.859C126.375 187.051 124.153 186.898 110.275 187.765C110.083 187.777 73.6367 189.467 68.0237 188.713C65.5607 188.382 65.4557 188.829 71.4357 181.262C73.1537 179.087 77.1057 175.482 77.9207 174.953C78.3007 174.707 77.9387 175.355 77.7337 179.773C77.7057 180.385 78.2387 180.895 78.3997 180.482C79.6737 177.212 80.1867 165.261 80.0227 165.261C80.0227 161.738 79.8967 161.765 80.3257 161.764C95.2637 161.727 81.3227 162.312 106.326 161.614C112.562 161.44 110.413 161.567 112.562 161.399C112.855 161.376 112.76 161.564 112.874 162.742C113.53 169.52 115.228 176.933 115.884 178.775L115.883 178.776ZM169.242 151.263C168.116 154.146 166.236 154.54 157.868 156.281C152.673 157.362 120.488 159.607 120.464 159.609C117.235 159.894 91.9727 160.56 91.9717 160.524C46.9887 160.524 38.0367 158.533 28.7757 157.447C18.2957 156.218 15.2727 156.281 14.0547 151.592C13.4757 149.362 12.5247 145.588 12.4717 143.285C12.4437 142.022 12.1977 141.545 12.5777 141.698C17.0497 143.492 81.9687 143.992 111.602 142.959C126.977 142.423 123.342 142.17 136.314 141.628C163.464 140.493 167.915 138.81 171.343 138.804C171.428 142.172 170.272 148.622 169.24 151.264L169.242 151.263Z" fill="black"/>
<path d="M117.916 61.9778C117.486 57.4968 115.923 49.4438 110.296 45.2768C110.642 44.5498 110.347 43.6688 109.628 43.2988C107.083 41.9908 98.1085 37.8868 89.5445 39.9828C81.4515 41.9628 76.0755 46.8288 74.1395 48.8288C73.5375 49.4518 73.5865 50.4488 74.2395 51.0108C74.3305 51.0888 74.4265 51.1708 74.5245 51.2548C71.9615 55.6628 71.4855 61.2448 73.0065 68.7878C73.1085 69.2928 73.1405 69.4578 73.3335 69.5588C73.5535 69.6748 73.8015 69.5438 74.1275 69.4018C74.5795 69.2058 74.5605 69.0238 74.4365 68.5268C73.2505 63.7448 73.2795 56.4578 75.6665 52.2078C76.3955 52.7958 77.2425 52.6608 77.7535 52.1268C79.4125 50.3928 84.0595 46.2258 91.3545 44.9688C98.6825 43.7068 105.149 46.2518 107.588 47.4038C108.332 47.7538 109.201 47.4548 109.569 46.7218L109.589 46.6818C113.707 50.0688 116.204 56.8058 116.257 61.5908C116.267 62.4018 116.723 62.3348 117.687 62.2498C117.824 62.2378 117.927 62.1158 117.914 61.9768L117.916 61.9778ZM108.017 46.5008C105.492 45.3078 98.7985 42.6738 91.1865 43.9848C83.5985 45.2918 78.7605 49.6318 77.0325 51.4368C76.8545 51.6228 76.5595 51.6428 76.3595 51.4808C75.9065 51.1168 75.3415 50.6378 74.8925 50.2518C74.6735 50.0638 74.6575 49.7308 74.8595 49.5228C79.7835 44.4358 87.5425 40.3938 94.6225 40.3938C101.18 40.3938 107.188 43.1678 109.172 44.1868C109.415 44.3118 109.513 44.6118 109.39 44.8548L108.679 46.2718C108.556 46.5158 108.267 46.6158 108.018 46.4988L108.017 46.5008Z" fill="black"/>
<path d="M48.3934 93.7309C48.2444 94.4709 47.6974 94.3609 47.5314 93.8379C46.7804 91.4739 47.1144 90.6039 44.9494 88.9919C44.7164 88.8189 43.6164 87.9819 43.4834 87.6889C43.3164 87.3219 43.7204 86.9559 44.0214 87.0959C46.9904 88.4829 49.0384 90.5169 48.3934 93.7309Z" fill="black"/>
<path d="M111.256 67.3436C111.011 72.5256 111.044 73.0436 106.278 74.1466C100.563 75.4686 100.924 74.6856 99.8174 71.8796C98.8354 69.3886 99.2204 68.6756 98.6474 68.4576C98.2384 68.3026 98.3134 67.9106 97.1404 67.8116C94.7274 67.6086 94.0864 68.2516 92.5944 69.6416C92.4214 69.8026 92.4954 70.9096 92.5104 71.0546C92.7144 73.0346 92.5584 73.8996 92.4854 75.0626C92.3664 76.9466 90.2934 77.3276 88.2864 77.5426C84.6024 77.9376 83.0144 78.9586 81.4544 74.6056C80.8964 73.0496 79.3164 68.9416 80.7434 68.1086C82.7894 66.9146 88.7864 65.5886 89.0294 65.5496C93.2754 64.8786 91.7874 68.0266 92.6044 67.3566C95.8114 64.7286 97.7414 66.4486 98.1264 66.2436C98.3254 66.1376 97.6444 64.3406 99.5154 63.6306C100.617 63.2126 101.276 63.0696 105.93 62.3896C111.172 61.6236 111.028 62.4676 111.256 67.3436ZM109.57 67.2756C109.402 63.1426 109.928 63.6426 106.71 63.9466C106.686 63.9486 101.08 64.6966 100.319 65.0006C99.7934 65.2106 99.9194 65.5576 100.196 66.6566C101.002 69.8516 101.7 73.2786 102.889 73.0596C107.79 72.1576 107.414 72.1106 108.44 71.7856C109.331 71.5026 109.25 70.7636 109.57 67.2756ZM90.7874 71.9766C90.7524 70.6216 90.9584 71.0726 90.4324 67.4086C90.3494 66.8286 89.8734 66.6616 82.2404 69.0026C81.6524 69.1826 81.4134 69.2456 81.6784 70.1466C83.4824 76.2756 83.8174 76.6406 86.1124 76.1666C91.1204 75.1306 90.9044 76.5106 90.7874 71.9766Z" fill="black"/>
<path d="M102.329 90.1128C101.364 91.9758 99.2499 92.3848 98.5109 91.9258C97.9869 91.5998 98.4189 91.2668 99.0139 91.1658C101.62 90.7238 102.279 87.5528 102.069 84.9178C101.369 85.5038 99.5019 87.8528 96.1419 87.2818C95.6239 87.1938 95.0899 86.2918 96.6509 86.3368C98.4059 86.3878 100.289 85.4478 101.125 83.8408C101.583 82.9598 101.604 82.4628 102.283 82.3648C103.997 82.1168 103.615 87.6288 102.329 90.1128Z" fill="black"/>
<path d="M95.6246 70.4445C96.4056 70.5955 95.4996 71.8945 95.3916 75.6865C95.3676 76.5435 95.4946 77.4015 95.7516 78.2155C96.7466 81.3685 100.477 77.8505 101.621 78.0375C103.765 78.3875 95.7846 84.4275 94.2116 78.5465C93.6516 76.4535 94.6896 70.2645 95.6256 70.4455L95.6246 70.4445Z" fill="black"/>
<path d="M104.17 57.7978C104.535 58.4898 103.649 58.8498 103.114 58.7028C101.721 58.3188 100.441 58.0148 99.1814 58.2068C98.6344 58.2898 98.0204 57.7228 98.4594 57.1568C99.3114 56.0578 103.521 56.5678 104.17 57.7978Z" fill="black"/>
<path d="M86.5536 58.7416C87.5576 58.6856 87.6856 59.4106 87.0876 59.8696C86.0676 60.6526 85.4256 60.5326 83.9636 62.1346C83.5956 62.5386 83.2946 62.8776 82.8156 62.5916C81.4936 61.8016 84.3246 58.8656 86.5536 58.7416Z" fill="black"/>
<path d="M105.023 68.6706C105.012 67.4346 103.753 66.9846 103.095 67.9586C102.67 68.5826 103.035 69.9086 103.992 69.9086C104.585 69.9086 105.105 69.3506 105.023 68.6706Z" fill="black"/>
<path d="M86.8739 70.816C86.6669 71.296 86.8339 72.178 87.1929 72.5C87.5979 72.864 88.2829 72.845 88.5569 72.321C89.4609 70.596 87.4389 69.494 86.8739 70.816Z" fill="black"/>
<path d="M155.405 121.926L154.66 122.9C158.994 126.544 160.713 128.843 161.443 128.44C162.321 127.956 158.675 124.653 155.405 121.926Z" fill="black"/>
<path d="M142.241 112.77C128.313 105.244 115.11 103.828 114.737 100.44C114.734 100.415 114.362 98.5208 114.29 97.2488C114.125 94.3168 114.477 94.3738 115.133 88.7518C115.154 88.5738 115.777 83.2908 115.892 83.1538C115.899 83.1458 117.6 82.7668 117.958 82.6738C118.649 82.4948 119.315 82.2188 120.047 82.2058C120.235 82.2018 120.427 82.0928 120.605 82.0078C124.66 80.0758 124.185 78.5058 124.022 73.4438C124.022 73.4198 123.566 69.0338 123.463 68.5828C123.068 66.8628 122.739 65.2088 121.71 63.9398C120.361 62.2748 119.485 61.9438 118.61 61.7568C117.88 61.6008 115.758 61.2928 115.038 61.4878C113.727 61.8428 115.191 58.0588 111.175 52.7158C106.89 47.0148 100.919 46.7858 96.7788 46.2568C96.5288 46.2248 96.2668 46.3158 96.0088 46.3268C95.5518 46.3478 95.3098 46.0398 95.2588 45.7728C94.4088 41.2788 94.8458 41.2338 94.6918 39.3228C94.6278 38.5278 93.8458 38.6118 93.2668 39.1608C91.3848 40.9458 91.6288 40.8268 90.5438 42.5968C89.9628 43.5448 89.9848 43.2048 90.0488 38.5618C90.0618 37.6268 89.3238 37.4358 88.8388 37.8458C88.2437 38.3488 87.6058 38.8048 87.0408 39.3388C85.8478 40.4648 84.3078 42.3268 84.0598 44.3358C83.9148 45.5138 83.6228 47.1298 84.2038 48.8368C84.5048 49.7208 84.3248 48.9858 81.7348 50.8918C80.0928 52.1008 78.1838 54.4808 77.9248 54.8548C72.3748 62.8568 76.6608 67.3618 75.5818 67.7318C73.8058 68.3418 73.0767 68.6028 72.0888 69.1068C69.0098 70.6758 68.7578 74.7278 69.5028 78.1558C70.0798 80.8108 70.8688 84.4948 72.0108 86.7198C74.3078 91.1958 81.1528 87.7408 81.7668 88.9808C83.4768 92.4328 84.7318 94.4128 87.8108 96.7288C88.2548 97.0628 88.6438 97.4788 89.1867 97.6758C89.3378 97.7308 89.3428 97.8558 89.2858 98.0218C87.8538 102.202 88.6688 101.925 87.6198 102.107C78.0648 103.768 58.9888 109.806 52.4118 113.92C48.2888 116.5 48.3608 116.559 48.3948 116.256C48.6038 114.428 49.9398 106.755 51.0368 103.476C51.0848 103.332 52.4758 99.2468 52.9038 98.8498C57.8108 94.2948 57.4038 95.3948 60.3888 87.7348C61.8178 84.0678 62.2078 83.5848 62.1288 82.7138C62.0188 81.4998 60.6638 81.7328 59.8338 82.6238C57.9218 84.6758 57.6178 86.0178 56.7798 87.3558C56.5768 87.6798 56.3538 87.6578 55.6468 87.7608C55.2318 87.8218 55.4488 87.4198 55.3448 86.7598C54.5058 81.4248 56.9028 79.6138 58.3488 72.6088C58.5618 71.5798 57.1288 70.1038 55.8058 72.0468C52.4528 76.9688 51.5358 82.3578 50.8468 81.6088C50.7718 81.5268 50.6938 81.4108 50.6908 81.3078C50.6568 79.9908 51.0658 76.3828 51.0708 76.3578C51.2388 75.5848 51.5078 70.0658 50.9218 69.0758C50.2128 67.8758 48.9898 68.3438 48.5588 69.5708C46.8458 74.4518 47.4238 73.3588 46.3558 79.7318C46.3158 79.9708 46.2398 80.0288 45.9398 80.0638C45.7388 80.0868 45.5748 80.0588 45.5208 79.8328C44.0848 73.8948 44.9188 71.8008 43.3468 70.6318C42.6978 70.1498 41.7628 70.3198 41.5148 71.1238C40.6498 73.9258 41.2638 75.8028 41.6418 79.8948C41.8088 81.7068 41.8028 81.6908 41.5968 81.7898C41.1278 82.0148 41.1378 81.6908 37.4008 75.7968C36.4978 74.3728 35.4338 74.5398 35.0788 75.3328C34.3878 76.8718 37.1818 82.5588 38.1048 83.8308C38.6278 84.5518 38.5468 84.9898 38.7658 87.3688C39.4248 94.5538 42.1518 96.4768 41.8758 97.0978C41.6588 97.5858 41.5798 98.1268 41.2558 98.5758C38.1658 102.855 39.4018 101.971 33.0268 107.989C30.3118 110.552 24.2588 115.713 21.6368 120.359C21.3048 120.946 21.7548 121.315 22.3038 120.897C22.3658 120.85 23.4578 119.765 23.9058 119.265C34.3728 107.587 38.0298 107.5 42.9148 97.5408C43.3408 96.6718 42.9608 95.9008 42.4078 95.0978C40.4818 92.3018 40.3618 89.2538 40.1888 88.0568C39.5368 83.5488 38.1768 82.3538 35.9678 76.6018C35.6858 75.8668 36.1288 75.5178 36.3098 75.7298C37.0478 76.6008 36.4128 75.6668 38.6758 79.3978C41.0028 83.2338 40.8348 83.2548 42.3868 82.5358C43.7788 81.8908 41.4558 74.4768 42.3458 71.4558C42.4498 71.1048 42.5438 71.0798 42.8468 71.2588C44.0898 71.9918 43.8158 78.0098 44.7228 80.5588C44.8828 81.0088 45.3538 81.1288 45.8158 81.0898C46.1268 81.0638 46.4288 80.9288 46.7328 80.8348C46.9568 80.7658 47.1138 80.6168 47.1818 80.3898C47.8478 78.1638 48.6648 69.2888 49.8278 69.7148C50.9938 70.1418 50.1558 74.4248 49.7148 79.6438C49.4898 82.3098 49.4048 82.3888 51.3438 82.7268C51.9928 82.8398 52.2168 81.1038 56.1248 73.2998C56.5638 72.4228 57.2128 72.1098 57.2058 73.0918C57.1928 74.9188 53.8698 80.8768 53.9508 85.1248C53.9528 85.2528 53.9398 85.1278 54.3958 87.7728C54.5108 88.4368 54.1548 87.7108 51.4308 90.0028C50.1188 91.1068 50.1718 92.0788 50.7238 91.7348C51.3178 91.3658 51.9268 91.0148 52.4828 90.5948C55.9798 87.9538 56.9278 89.6408 57.7758 87.9378C59.0768 85.3248 59.4478 84.8568 60.8288 83.1648C60.8768 83.1058 61.0008 83.1078 61.0888 83.0818C61.2578 83.6648 60.1488 85.7768 59.4088 87.8038C56.0868 96.8998 52.4218 96.3148 51.2978 99.5698C50.1108 103.008 49.3898 104.711 47.5608 114.096C47.5548 114.124 44.0828 132.821 44.0718 133.212C44.0508 133.925 44.5908 134.125 44.9008 133.394C45.3508 132.331 46.3318 127.891 46.5198 127.039C47.5998 122.14 47.7428 118.239 48.3498 117.742C54.3378 112.838 72.1298 107.467 79.6208 105.162C80.3098 104.95 79.8908 105.349 81.1078 107.144C87.7208 116.898 93.7708 119.681 100.26 122.802C100.83 123.076 101.789 123.482 102.754 122.879C104.648 121.695 108.875 117.815 112.134 115.164C120.386 108.453 120.24 105.264 121.065 105.538C128.546 108.018 134.865 110.335 141.177 113.764L142.24 112.769L142.241 112.77ZM119.001 63.1678C123.352 65.2638 122.479 75.9928 122.866 76.0328C122.593 78.4728 122.771 79.8318 120.734 80.5038C120.391 80.6168 121.092 80.3378 120.195 72.4348C119.797 68.9268 119.92 67.3068 119.188 64.7608C118.87 63.6558 118.087 62.7278 119.001 63.1678ZM115.88 62.8708C117.807 62.9498 118.371 64.7448 119.307 77.3118C119.353 77.9348 119.279 78.5748 119.338 78.5748C119.338 80.9368 119.349 80.8068 116.179 81.5898C116.003 81.6328 115.958 81.5588 115.964 81.4168C116.84 61.4298 112.135 62.7178 115.88 62.8708ZM72.7248 85.0148C71.2948 81.2378 68.7648 71.8148 72.3028 70.4758C72.3108 70.6788 72.3348 70.4818 72.2018 71.2288C71.6368 74.4038 75.8188 87.6898 75.8198 87.7138C74.0418 87.6538 73.4448 86.9178 72.7248 85.0148ZM78.7888 87.5078C76.6318 87.8188 76.4908 85.6668 75.2568 80.5598C72.7468 70.1678 72.6288 69.8748 76.4188 68.9668C77.0448 68.8168 76.8418 68.7978 77.0568 70.2488C78.7408 81.6048 79.8928 83.2478 80.9148 86.9798C81.0288 87.3968 80.8788 87.2058 78.7888 87.5078ZM119.219 105.274C113.207 112.78 109.546 116.107 101.819 121.832C101.613 121.985 101.444 122.009 101.216 121.901C90.9288 117.065 87.5868 113.717 82.4238 106.8C80.8138 104.643 80.8828 104.818 81.4148 104.685C86.0968 103.511 88.4438 103.458 88.7848 102.933C89.3328 102.092 90.0677 100.41 90.3388 99.7018C90.5497 99.1498 90.6508 98.5548 90.7808 97.9748C90.8618 97.6118 90.7398 97.3258 90.4268 97.0908C83.1798 91.6618 81.5358 85.7248 78.5978 72.7708C77.0568 65.9738 78.4208 61.8088 81.2098 58.3818C82.8138 56.4118 83.9648 55.3098 86.0258 54.0098C87.3918 53.1478 87.5018 52.9028 87.8748 53.0068C90.4227 53.7168 93.6898 52.5898 95.9878 51.2798C96.8708 50.7768 100.065 51.2568 101.044 51.5288C109.003 53.7388 112.34 59.2278 113.893 66.3838C115.702 74.7178 114.708 79.8498 114.188 84.4318C113.376 91.5778 112.342 92.5978 112.737 97.8268C113.114 102.819 114.145 103.032 116.451 103.919C119.281 105.008 119.583 104.819 119.218 105.273L119.219 105.274Z" fill="black"/>
<path d="M60.107 114.805C52.318 116.938 50.347 126.825 56.734 131.541C61.956 135.397 69.765 133.013 71.827 127.01C74.454 119.362 67.498 112.781 60.107 114.805ZM63.689 132.153C52.323 133.057 50.44 118.097 60.852 115.68C64.507 114.831 69.012 116.505 70.875 120.975C72.994 126.058 68.994 131.731 63.689 132.153Z" fill="black"/>
<path d="M121.224 112.885C116.57 113.553 112.76 117.857 113.125 123.071C113.77 132.29 126.311 134.923 131.157 127.054C135.197 120.495 130.24 111.591 121.224 112.885ZM124.851 130.283C118.774 131.762 113.477 126.636 114.164 121.292C114.815 116.222 119.804 112.902 124.746 113.994C133.843 116.004 133.796 128.106 124.851 130.283Z" fill="black"/>
<path d="M154.604 116.125C149.162 107.308 134.785 112.536 136.707 123.035C138.672 133.768 155.511 133.302 156.001 120.867C155.852 119.481 155.812 118.083 154.604 116.125ZM147.584 129.384C142.365 130.279 137.429 125.881 137.527 121.508C137.733 112.284 149.572 109.659 153.84 116.925C157.041 122.375 153.443 128.38 147.584 129.384Z" fill="black"/>
<path d="M55.217 124.392C55.294 125.79 55.364 126.761 56.689 127.231C58.083 127.726 60.112 127.265 60.529 125.904C60.866 124.805 60.223 124.538 60.772 124.303C61.208 124.116 61.751 123.816 63.151 123.784C64.874 123.98 65.084 123.886 65.087 124.538C65.092 125.58 64.907 126.113 65.68 126.595C66.387 127.036 67.679 127.175 69.02 126.572C70.371 125.965 71.093 123.099 68.936 121.493C64.193 117.961 55.006 120.569 55.218 124.391L55.217 124.392ZM69.294 124.472C69.126 125.654 67.859 125.679 66.744 125.62C65.414 125.55 68.045 122.707 63.126 122.627C62.102 122.61 60.191 122.935 59.601 123.88C59.376 124.24 59.437 124.934 59.455 125.342C59.496 126.299 57.917 126.337 57.01 126.031C56.268 125.781 55.744 124.548 56.736 122.886C56.813 122.757 58.092 121.753 58.891 121.533C60.697 121.037 62.299 120.739 65.165 120.978C67.237 121.151 69.584 122.428 69.294 124.472Z" fill="black"/>
<path d="M126.868 120.721C126.431 120.559 126.088 121.172 126.106 121.501C126.215 123.496 126.265 122.868 126.033 124.038C125.675 125.846 122.977 125.273 122.298 125.435C121.611 125.599 121.002 125.392 120.382 125.173C118.92 124.657 119.443 121.197 118.87 120.984C118.475 120.838 118.065 121.149 118.078 121.603C118.085 121.86 118.14 122.116 118.17 122.372C118.445 124.772 118.279 126.461 121.723 126.675C122.122 126.7 122.125 126.655 122.14 127.017C122.158 127.46 122.246 127.692 121.921 127.691C121.051 127.688 120.505 127.627 119.8 127.91C119.49 128.034 119.424 128.575 119.832 128.685C120.315 128.815 120.201 128.787 122.82 128.787C122.82 128.669 125.434 129.009 126.017 128.566C126.525 128.18 126.001 127.661 125.49 127.669C124.594 127.684 123.74 127.705 123.732 127.587C123.667 126.596 123.73 126.629 123.921 126.585C126.476 126 127.498 125.634 127.218 121.167C127.204 120.936 127.056 120.789 126.87 120.72L126.868 120.721Z" fill="black"/>
<path d="M121.642 124.512C126.47 126.04 124.821 120.299 125.182 120.298C125.182 117.988 125.24 117.839 124.925 116.791C124.544 115.524 122.64 115.164 121.651 115.686C120.347 116.374 120.401 117.247 120.374 120.896C120.361 122.687 120.314 124.092 121.643 124.513L121.642 124.512ZM122.359 116.52C124.027 116.258 123.986 117.21 124.221 119.731C124.019 123.345 124.223 123.55 122.873 123.588C120.955 123.642 121.75 122.665 121.434 119.317C121.335 118.271 121.321 116.683 122.359 116.52Z" fill="black"/>
<path d="M152.734 118.507C152.176 117.974 151.709 118.524 150.227 119.65C149.742 120.018 150.147 118.704 149.016 118.303C148.843 118.241 148.949 118.145 148.984 118.072C149.252 117.505 149.413 116.946 149.261 116.291C148.51 113.049 143.892 114.908 145.255 117.901C145.368 118.15 145.359 118.154 145.116 118.184C144.499 118.26 144.491 118.257 144.679 117.677C145.039 116.564 144.49 115.297 143.158 114.938C141.895 114.598 140.566 115.729 140.54 117.137C140.518 118.364 141.386 118.487 140.831 118.704C140.396 118.874 140.056 119.086 139.968 119.541C139.689 120.972 139.901 124.043 140.11 124.596C140.29 125.07 140.597 125.458 141.124 125.508C142.074 125.599 143.025 125.748 143.987 125.55C144.418 125.461 149.599 126.021 149.846 124.809C150.146 123.336 150.065 123.426 150.379 123.591C153.437 125.198 153.085 125.248 153.085 121.838C153.109 121.838 153.21 118.962 152.734 118.507ZM147.179 115.407C147.789 115.401 148.386 116.021 148.39 116.665C148.394 117.29 147.818 117.921 147.233 117.884C145.256 117.758 145.917 115.42 147.179 115.407ZM143.768 117.001C143.788 118.279 141.511 118.568 141.51 116.975C141.51 115.444 143.741 115.31 143.768 117.001ZM148.887 123.105C148.867 124.203 148.974 124.207 148.149 124.372C147.88 124.426 142.711 124.519 141.626 124.429C140.978 124.375 140.984 123.396 140.934 122.139C140.846 119.921 140.822 119.723 141.493 119.498C142.444 119.179 145.719 119.231 145.719 119.255C148.917 119.255 148.655 119.137 148.833 119.776C149.124 120.823 148.926 120.977 148.887 123.104V123.105ZM152.126 122.151C152.126 123.637 152.38 123.565 150.548 122.569C150.09 122.32 150.023 122.1 150.038 121.561C150.051 121.112 150.205 120.823 150.586 120.591C151.478 120.048 151.953 119.307 152 120.007C152.144 122.149 152.165 122.148 152.126 122.151Z" fill="black"/>
<path d="M182.759 10.5848C175.746 5.32776 162.828 3.94076 154.295 5.75976C131.497 10.6218 128.938 37.5908 146.267 46.3748C148.113 47.3108 148.2 47.1808 148.079 47.5028C147.48 49.1038 144.581 55.6688 143.383 57.1818C141.244 59.8838 152.199 58.0358 158.858 50.1328C159.508 49.3608 163.282 49.9138 164.581 50.0258C171.358 49.5588 171.227 49.5888 174.169 48.7808C191.834 43.9308 197.556 21.6758 182.758 10.5838L182.759 10.5848ZM174.195 46.7248C169.88 47.8658 171.548 47.6998 166.444 48.2418C159.676 48.9608 159.628 47.7298 158.303 48.9808C155.201 51.9078 154.152 52.7158 149.955 54.9578C148.567 55.6998 146.061 56.6438 145.273 56.6518C145.531 56.0088 146.109 55.8078 148.398 50.3558C150.285 45.8618 149.731 46.7378 146.898 44.8818C143.312 42.5318 140.35 40.4008 138.211 35.5818C134.067 26.2488 137.072 9.03975 159.575 7.22376C160.791 7.12576 162.01 7.07875 163.228 7.00875C163.237 7.26076 166.098 6.87676 169.544 7.61076C171.425 8.01076 170.496 7.58476 172.59 8.15876C175.194 8.87276 178.778 9.70576 182.402 12.7458C195.256 23.5308 189.685 42.6298 174.196 46.7258L174.195 46.7248Z" fill="black"/>
<path d="M162.547 26.2545C160.838 26.2475 159.787 27.8905 159.801 29.1095C159.84 32.6985 165.226 32.8875 165.323 28.9275C165.362 27.3295 164.119 26.2605 162.548 26.2545H162.547Z" fill="black"/>
<path d="M151.903 26.0989C150.381 26.0179 149.091 27.6459 149.072 28.9519C149.051 30.3809 150.325 31.7309 151.757 31.6669C155.084 31.8929 155.935 26.3139 151.904 26.0989H151.903Z" fill="black"/>
<path d="M172.857 25.967C171.384 25.833 170.137 27.495 170.138 28.821C170.14 30.266 171.439 31.525 172.86 31.529C176.356 31.537 176.849 25.901 172.856 25.968L172.857 25.967Z" fill="black"/>
</svg>
